<?xml version="1.0" encoding="UTF-8"?>
<!DOCTYPE svg PUBLIC "-//W3C//DTD SVG 1.1//EN" "http://www.w3.org/Graphics/SVG/1.1/DTD/svg11.dtd">
<!-- Creator: CorelDRAW 2018 (64 Bit Versão de avaliação) -->
<svg xmlns="http://www.w3.org/2000/svg" xml:space="preserve" width="4.6566mm" height="4.6566mm" version="1.1" style="shape-rendering:geometricPrecision; text-rendering:geometricPrecision; image-rendering:optimizeQuality; fill-rule:evenodd; clip-rule:evenodd"
viewBox="0 0 465.66 465.66"
 xmlns:xlink="http://www.w3.org/1999/xlink">
 <defs>
  <style type="text/css">
   <![CDATA[
    .fil0 {fill:#8C4A99}
   ]]>
  </style>
 </defs>
 <g id="Camada_x0020_1">
  <metadata id="CorelCorpID_0Corel-Layer"/>
  <g id="_1645402527008">
   <path class="fil0" d="M368.15 388.24l-69.69 -69.69c-9.27,-9.27 -23.86,-10.63 -34.69,-3.23l-44.48 30.41c-3.61,2.47 -8.48,2.02 -11.57,-1.07l-86.71 -86.72c-3.09,-3.09 -3.55,-7.95 -1.08,-11.56l30.41 -44.48c7.41,-10.83 6.05,-25.42 -3.23,-34.7l-69.69 -69.69c-10.64,-10.64 -27.95,-10.64 -38.59,0 -51.78,51.78 -51.78,136.04 0,187.82l58.62 58.62c3.55,3.55 9.31,3.55 12.86,0 3.56,-3.56 3.56,-9.32 0,-12.87l-58.61 -58.62c-21.65,-21.64 -33.57,-50.43 -33.57,-81.04 0,-30.62 11.92,-59.4 33.57,-81.04 1.71,-1.72 4,-2.67 6.43,-2.67 2.43,0 4.71,0.95 6.43,2.67l69.69 69.68c3.09,3.1 3.54,7.96 1.08,11.57l-13.54 19.79 -52.08 -52.09c-3.56,-3.55 -9.32,-3.55 -12.87,0 -3.55,3.56 -3.55,9.32 0,12.87l54.5 54.5 -6.43 9.41c-7.4,10.83 -6.04,25.42 3.23,34.7l86.72 86.71c9.27,9.28 23.86,10.64 34.69,3.23l44.48 -30.41c3.61,-2.47 8.47,-2.02 11.57,1.08l69.69 69.68c1.72,1.72 2.66,4.01 2.66,6.44 0,2.43 -0.94,4.71 -2.66,6.43 -5.26,5.25 -10.93,9.93 -16.95,14l-54.33 -54.33c-3.55,-3.55 -9.31,-3.55 -12.87,0 -3.55,3.55 -3.55,9.31 0,12.87l50.73 50.72c-14.76,6.75 -30.92,10.31 -47.63,10.31 -30.61,0 -59.4,-11.92 -81.04,-33.57l-37.9 -37.9c-3.55,-3.55 -9.31,-3.55 -12.87,0 -3.55,3.55 -3.55,9.31 0,12.86l37.9 37.9c25.89,25.89 59.9,38.84 93.91,38.84 34.01,0 68.02,-12.95 93.91,-38.84 10.64,-10.64 10.64,-27.95 0,-38.59z"/>
   <path class="fil0" d="M133.03 353.8c-1.69,-1.69 -4.03,-2.66 -6.42,-2.66 -2.4,0 -4.75,0.97 -6.44,2.66 -1.7,1.7 -2.67,4.05 -2.67,6.44 0,2.39 0.97,4.74 2.67,6.43 1.69,1.69 4.03,2.67 6.44,2.67 2.39,0 4.73,-0.98 6.42,-2.67 1.7,-1.69 2.67,-4.04 2.67,-6.43 0,-2.39 -0.97,-4.74 -2.67,-6.44z"/>
   <path class="fil0" d="M394.43 102.71l-15.34 -15.34c-3.55,-3.55 -9.31,-3.55 -12.87,0 -3.49,3.49 -3.54,9.11 -0.17,12.68l-104.22 0c-5.02,0 -9.1,4.07 -9.1,9.1 0,5.02 4.08,9.09 9.1,9.09l104.23 0c-3.38,3.57 -3.33,9.19 0.17,12.68 1.77,1.78 4.1,2.66 6.43,2.66 2.32,0 4.65,-0.88 6.43,-2.66l15.34 -15.34c3.55,-3.55 3.55,-9.31 0,-12.87z"/>
   <path class="fil0" d="M388 161.9l-104.23 0c3.38,-3.56 3.32,-9.18 -0.17,-12.67 -3.55,-3.56 -9.31,-3.56 -12.86,0l-15.34 15.34c-3.55,3.55 -3.55,9.31 0,12.86l15.34 15.34c1.78,1.78 4.1,2.67 6.43,2.67 2.33,0 4.66,-0.89 6.43,-2.67 3.49,-3.49 3.55,-9.11 0.17,-12.67l104.23 0c5.02,0 9.09,-4.08 9.09,-9.1 0,-5.02 -4.07,-9.1 -9.09,-9.1z"/>
   <path class="fil0" d="M324.91 -0.01c-23.39,0 -46.56,5.86 -67,16.94 -4.42,2.4 -6.06,7.92 -3.66,12.34 2.39,4.41 7.91,6.05 12.33,3.66 17.79,-9.65 37.96,-14.75 58.33,-14.75 67.58,0 122.56,54.98 122.56,122.56 0,67.58 -54.98,122.56 -122.56,122.56 -13.7,0 -27.16,-2.25 -40.02,-6.69 -1.61,-0.56 -3.35,-0.65 -5.01,-0.27l-42 9.7 -0.03 -35.4c0,-2.31 -0.88,-4.53 -2.45,-6.21 -21.31,-22.78 -33.04,-52.5 -33.04,-83.69 0,-20.63 5.22,-41.02 15.09,-58.97 2.42,-4.4 0.81,-9.93 -3.59,-12.35 -4.4,-2.42 -9.93,-0.82 -12.35,3.58 -11.35,20.63 -17.34,44.05 -17.34,67.74 0,34.61 12.58,67.64 35.49,93.43l0.04 43.32c0,2.77 1.27,5.39 3.44,7.11 1.62,1.29 3.62,1.97 5.65,1.97 0.69,0 1.37,-0.07 2.05,-0.23l50.63 -11.7c14.01,4.55 28.61,6.85 43.45,6.85 77.6,0 140.74,-63.14 140.74,-140.75 0,-77.61 -63.14,-140.75 -140.75,-140.75z"/>
   <path class="fil0" d="M238.66 40.72c-3.58,-3.52 -9.33,-3.5 -12.86,0.08 -0.02,0.02 -0.09,0.09 -0.11,0.12 -3.53,3.57 -3.5,9.34 0.08,12.87 1.77,1.75 4.08,2.62 6.39,2.62 2.34,0 4.68,-0.9 6.46,-2.7 0.02,-0.02 0.09,-0.09 0.12,-0.12 3.52,-3.57 3.49,-9.34 -0.08,-12.87z"/>
  </g>
 </g>
</svg>
