<?xml version="1.0" encoding="UTF-8"?>
<!DOCTYPE svg PUBLIC "-//W3C//DTD SVG 1.1//EN" "http://www.w3.org/Graphics/SVG/1.1/DTD/svg11.dtd">
<!-- Creator: CorelDRAW 2018 (64 Bit Versão de avaliação) -->
<svg xmlns="http://www.w3.org/2000/svg" xml:space="preserve" width="6.7732mm" height="6.7732mm" version="1.1" style="shape-rendering:geometricPrecision; text-rendering:geometricPrecision; image-rendering:optimizeQuality; fill-rule:evenodd; clip-rule:evenodd"
viewBox="0 0 677.32 677.32"
 xmlns:xlink="http://www.w3.org/1999/xlink">
 <defs>
  <style type="text/css">
   <![CDATA[
    .fil0 {fill:#AD72AC}
   ]]>
  </style>
 </defs>
 <g id="Camada_x0020_1">
  <metadata id="CorelCorpID_0Corel-Layer"/>
  <g id="_1645405374912">
   <g>
    <path class="fil0" d="M611.17 58.21l-63.05 0 0 -18.52c0,-21.89 -17.81,-39.69 -39.69,-39.69 -21.89,0 -39.69,17.8 -39.69,39.69l0 18.52 -222.25 0 0 -18.52c0,-21.89 -17.8,-39.69 -39.68,-39.69 -21.89,0 -39.69,17.8 -39.69,39.69l0 19.01c-1.12,-0.32 -2.3,-0.49 -3.53,-0.49l-52.71 0c-36.47,0 -66.14,29.67 -66.14,66.14l0 225.33c0,7.31 5.92,13.23 13.23,13.23 7.3,0 13.23,-5.92 13.23,-13.23l0 -155.22 476.92 0c7.3,0 13.22,-5.92 13.22,-13.22 0,-7.31 -5.92,-13.23 -13.22,-13.23l-476.92 0 0 -43.66c0,-21.88 17.8,-39.69 39.68,-39.69l52.71 0c1.23,0 2.41,-0.18 3.53,-0.49l0 17.03c0,21.88 17.8,39.69 39.69,39.69 21.88,0 39.68,-17.81 39.68,-39.69l0 -16.54 222.25 0 0 16.54c0,21.88 17.8,39.69 39.69,39.69 21.88,0 39.69,-17.81 39.69,-39.69l0 -16.54 63.05 0c21.89,0 39.69,17.81 39.69,39.69l0 502.69c0,13.14 -10.68,23.82 -23.82,23.82 -13.13,0 -23.82,-10.68 -23.82,-23.82l0 -34.22c0,-7.31 -5.92,-13.23 -13.23,-13.23l-153.88 0c-7.3,0 -13.23,5.92 -13.23,13.23 0,7.31 5.93,13.23 13.23,13.23l140.65 0 0 20.99c0,8.62 2.18,16.73 6.02,23.82l-532.52 0c-13.13,0 -23.81,-10.68 -23.81,-23.81l0 -21 296.1 0c7.31,0 13.23,-5.92 13.23,-13.23 0,-7.3 -5.92,-13.23 -13.23,-13.23l-132.18 0c23.12,-19.91 37.8,-49.35 37.8,-82.18 0,-59.82 -48.67,-108.48 -108.48,-108.48 -59.82,0 -108.48,48.66 -108.48,108.48 0,32.83 14.68,62.27 37.8,82.18l-35.79 0c-7.3,0 -13.23,5.92 -13.23,13.23l0 34.23c0,27.72 22.56,50.27 50.27,50.27l576.78 0c27.72,0 50.28,-22.55 50.28,-50.28l0 -502.69c0,-36.47 -29.67,-66.14 -66.15,-66.14zm-391.13 42.99c0,7.29 -5.94,13.23 -13.23,13.23 -7.3,0 -13.23,-5.94 -13.23,-13.23l0 -61.51c0,-7.3 5.93,-13.23 13.23,-13.23 7.29,0 13.23,5.93 13.23,13.23l0 61.51zm301.62 0c0,7.29 -5.94,13.23 -13.23,13.23 -7.3,0 -13.23,-5.94 -13.23,-13.23l0 -61.51c0,-7.3 5.93,-13.23 13.23,-13.23 7.29,0 13.23,5.93 13.23,13.23l0 61.51zm-483.99 396.21c0,-45.23 36.79,-82.02 82.02,-82.02 45.23,0 82.02,36.79 82.02,82.02 0,45.22 -36.79,82.02 -82.02,82.02 -45.23,0 -82.02,-36.8 -82.02,-82.02z"/>
   </g>
   <g>
    <path class="fil0" d="M619.52 171.88c-2.46,-2.46 -5.87,-3.87 -9.35,-3.87 -3.48,0 -6.89,1.41 -9.35,3.87 -2.46,2.46 -3.88,5.88 -3.88,9.36 0,3.47 1.41,6.89 3.88,9.35 2.46,2.46 5.87,3.87 9.35,3.87 3.48,0 6.89,-1.41 9.35,-3.87 2.46,-2.46 3.88,-5.88 3.88,-9.35 0,-3.48 -1.42,-6.9 -3.88,-9.36z"/>
   </g>
   <g>
    <path class="fil0" d="M395.08 583.46c-2.46,-2.46 -5.88,-3.86 -9.35,-3.86 -3.48,0 -6.9,1.4 -9.36,3.86 -2.46,2.48 -3.87,5.88 -3.87,9.35 0,3.5 1.41,6.9 3.87,9.37 2.46,2.46 5.88,3.86 9.36,3.86 3.47,0 6.89,-1.4 9.35,-3.86 2.46,-2.47 3.87,-5.89 3.87,-9.37 0,-3.47 -1.41,-6.87 -3.87,-9.35z"/>
   </g>
   <g>
    <path class="fil0" d="M299.29 402.16c-27.71,0 -50.27,22.55 -50.27,50.27 0,27.72 22.56,50.27 50.27,50.27 27.72,0 50.27,-22.55 50.27,-50.27 0,-27.72 -22.55,-50.27 -50.27,-50.27zm0 74.08c-13.13,0 -23.81,-10.68 -23.81,-23.81 0,-13.13 10.68,-23.81 23.81,-23.81 13.13,0 23.82,10.68 23.82,23.81 0,13.13 -10.69,23.81 -23.82,23.81z"/>
   </g>
   <g>
    <path class="fil0" d="M422.76 402.16c-27.71,0 -50.27,22.55 -50.27,50.27 0,27.72 22.56,50.27 50.27,50.27 27.72,0 50.27,-22.55 50.27,-50.27 0,-27.72 -22.55,-50.27 -50.27,-50.27zm0 74.08c-13.13,0 -23.81,-10.68 -23.81,-23.81 0,-13.13 10.68,-23.81 23.81,-23.81 13.13,0 23.82,10.68 23.82,23.81 0,13.13 -10.69,23.81 -23.82,23.81z"/>
   </g>
   <g>
    <path class="fil0" d="M546.24 402.16c-27.72,0 -50.27,22.55 -50.27,50.27 0,27.72 22.55,50.27 50.27,50.27 27.71,0 50.27,-22.55 50.27,-50.27 0,-27.72 -22.56,-50.27 -50.27,-50.27zm0 74.08c-13.13,0 -23.82,-10.68 -23.82,-23.81 0,-13.13 10.69,-23.81 23.82,-23.81 13.13,0 23.81,10.68 23.81,23.81 0,13.13 -10.68,23.81 -23.81,23.81z"/>
   </g>
   <g>
    <path class="fil0" d="M175.82 264.58c-27.72,0 -50.27,22.55 -50.27,50.27 0,27.72 22.56,50.27 50.27,50.27 27.72,0 50.27,-22.55 50.27,-50.27 0,-27.72 -22.55,-50.27 -50.27,-50.27zm0 74.08c-13.13,0 -23.81,-10.68 -23.81,-23.81 0,-13.13 10.68,-23.81 23.81,-23.81 13.13,0 23.82,10.68 23.82,23.81 0,13.13 -10.69,23.81 -23.82,23.81z"/>
   </g>
   <g>
    <path class="fil0" d="M422.76 264.58c-27.71,0 -50.27,22.55 -50.27,50.27 0,27.72 22.56,50.27 50.27,50.27 27.72,0 50.27,-22.55 50.27,-50.27 0,-27.72 -22.55,-50.27 -50.27,-50.27zm0 74.08c-13.13,0 -23.81,-10.68 -23.81,-23.81 0,-13.13 10.68,-23.81 23.81,-23.81 13.13,0 23.82,10.68 23.82,23.81 0,13.13 -10.69,23.81 -23.82,23.81z"/>
   </g>
   <g>
    <path class="fil0" d="M546.24 264.58c-27.72,0 -50.27,22.55 -50.27,50.27 0,27.72 22.55,50.27 50.27,50.27 27.71,0 50.27,-22.55 50.27,-50.27 0,-27.72 -22.56,-50.27 -50.27,-50.27zm0 74.08c-13.13,0 -23.82,-10.68 -23.82,-23.81 0,-13.13 10.69,-23.81 23.82,-23.81 13.13,0 23.81,10.68 23.81,23.81 0,13.13 -10.68,23.81 -23.81,23.81z"/>
   </g>
   <g>
    <path class="fil0" d="M299.29 264.58c-27.71,0 -50.27,22.55 -50.27,50.27 0,27.72 22.56,50.27 50.27,50.27 27.72,0 50.27,-22.55 50.27,-50.27 0,-27.72 -22.55,-50.27 -50.27,-50.27zm0 74.08c-13.13,0 -23.81,-10.68 -23.81,-23.81 0,-13.13 10.68,-23.81 23.81,-23.81 13.13,0 23.82,10.68 23.82,23.81 0,13.13 -10.69,23.81 -23.82,23.81z"/>
   </g>
   <g>
    <path class="fil0" d="M166.82 465.17c-5.17,-5.17 -13.54,-5.17 -18.71,0l-43.08 43.08 -14.73 -14.72c-5.16,-5.17 -13.54,-5.17 -18.71,0 -5.16,5.16 -5.16,13.54 0,18.71l24.08 24.07c2.48,2.48 5.85,3.88 9.36,3.88 3.5,0 6.87,-1.4 9.35,-3.88l52.44 -52.44c5.16,-5.16 5.16,-13.54 0,-18.7z"/>
   </g>
  </g>
 </g>
</svg>
