<?xml version="1.0" encoding="UTF-8"?>
<!DOCTYPE svg PUBLIC "-//W3C//DTD SVG 1.1//EN" "http://www.w3.org/Graphics/SVG/1.1/DTD/svg11.dtd">
<!-- Creator: CorelDRAW 2018 (64 Bit Versão de avaliação) -->
<svg xmlns="http://www.w3.org/2000/svg" xml:space="preserve" width="8.4666mm" height="8.4666mm" version="1.1" style="shape-rendering:geometricPrecision; text-rendering:geometricPrecision; image-rendering:optimizeQuality; fill-rule:evenodd; clip-rule:evenodd"
viewBox="0 0 846.66 846.66"
 xmlns:xlink="http://www.w3.org/1999/xlink">
 <defs>
  <style type="text/css">
   <![CDATA[
    .fil0 {fill:#848688}
   ]]>
  </style>
 </defs>
 <g id="Camada_x0020_1">
  <metadata id="CorelCorpID_0Corel-Layer"/>
  <g id="_1645399799888">
   <g>
    <path class="fil0" d="M377.43 179.91l-79.67 -21.35c-8.71,-2.33 -18.47,-0.4 -25.49,5.04 -5.34,4.14 -8.66,10 -9.38,16.4l-8.83 32.94c-2.6,6.03 -2.62,12.9 0.01,19.26 0.87,2.09 2,4.07 3.35,5.91 -8.43,17.55 -18.05,39.21 -28.14,63.3 -0.01,0.03 -0.02,0.05 -0.03,0.08 -8.82,21.05 -17.99,43.94 -27.06,67.58 -30.89,8.38 -70.28,44.54 -81.74,87.3l-75.84 283.02c-7.29,27.25 10.63,55.8 39.95,63.65l77.63 20.81c0,0 0.01,0 0.01,0l77.63 20.8c5.05,1.35 10.18,2.02 15.26,2.02 8.85,0 17.55,-2.03 25.42,-6.03 12.98,-6.6 22.12,-17.66 25.74,-31.14l10.43 -38.93c0,-0.01 0,-0.01 0,-0.02 0,0 0,-0.01 0.01,-0.01l65.39 -244.06c11.46,-42.76 -4.58,-93.77 -27.14,-116.48 5.68,-35.79 10.41,-70.39 13.75,-100.26 0.01,-0.09 0.02,-0.18 0.03,-0.26 1.67,-14.97 2.98,-28.74 3.9,-40.89 7.16,-3.51 12.84,-9.95 15.06,-18.23l9.64 -35.99c4.02,-14.99 -4.91,-30.45 -19.89,-34.46zm-103.13 621.03c-1.15,4.29 -4.27,7.92 -8.78,10.21 -5.1,2.6 -11.18,3.15 -17.14,1.55l-77.62 -20.8c-0.01,0 -0.01,0 -0.01,0l-77.63 -20.8c-11.51,-3.09 -19.09,-13.69 -16.56,-23.15l6.16 -22.98 197.74 52.99 -6.16 22.98zm14.72 -54.92l-197.75 -52.99 56.84 -212.12 197.75 52.98 -56.84 212.13zm63.66 -244.54l-194.27 -52.06c14.34,-28.3 43.43,-48.78 56.29,-49.11 6.72,-0.17 12.66,-4.38 15.05,-10.67 8.59,-22.66 17.33,-44.73 25.78,-65.22l78.14 0c-2.72,22.2 -6.11,46.47 -10.01,71.55l-4.04 -1.08c-8.82,-2.37 -17.89,2.87 -20.25,11.69 -2.36,8.82 2.87,17.89 11.69,20.25l18.98 5.09c10.78,8.61 24.3,39.35 22.64,69.56zm4.06 -263.44c-0.13,0 -0.26,0.01 -0.39,0.02 -0.12,0 -0.24,0.01 -0.36,0.02 -0.4,0.02 -0.8,0.06 -1.2,0.11 -0.13,0.02 -0.27,0.04 -0.4,0.06 -0.4,0.06 -0.79,0.14 -1.18,0.23 -0.11,0.03 -0.23,0.05 -0.34,0.08 -0.47,0.12 -0.94,0.26 -1.4,0.43 -0.15,0.05 -0.29,0.11 -0.44,0.17 -0.31,0.12 -0.62,0.25 -0.92,0.38 -0.19,0.09 -0.37,0.18 -0.55,0.27 -0.26,0.14 -0.51,0.27 -0.77,0.41 -0.18,0.11 -0.35,0.21 -0.53,0.32 -0.26,0.16 -0.51,0.33 -0.77,0.51 -0.14,0.1 -0.29,0.2 -0.43,0.31 -0.34,0.25 -0.66,0.51 -0.98,0.79 -0.05,0.04 -0.1,0.08 -0.15,0.13 -0.37,0.33 -0.72,0.68 -1.07,1.05 -0.07,0.07 -0.13,0.16 -0.2,0.23 -0.26,0.29 -0.51,0.59 -0.75,0.9 -0.1,0.13 -0.19,0.26 -0.29,0.38 -0.19,0.27 -0.38,0.55 -0.56,0.83 -0.1,0.15 -0.2,0.32 -0.3,0.48 -0.15,0.26 -0.3,0.53 -0.44,0.8 -0.1,0.18 -0.19,0.36 -0.28,0.55 -0.13,0.26 -0.24,0.54 -0.35,0.81 -0.08,0.2 -0.17,0.39 -0.25,0.6 -0.14,0.4 -0.27,0.81 -0.38,1.22 -0.14,0.5 -0.25,1 -0.35,1.51 -0.01,0.11 -0.05,0.22 -0.06,0.33 -0.01,0.07 -0.02,0.14 -0.03,0.21 -0.07,0.5 -0.13,1 -0.16,1.5 -0.6,10.82 -1.64,23.54 -3.07,37.67l-67.87 0c8.55,-19.65 16.51,-36.86 23.37,-50.43 0.21,-0.43 0.41,-0.87 0.59,-1.33 0.03,-0.08 0.07,-0.16 0.1,-0.24 0.04,-0.09 0.06,-0.18 0.09,-0.27 0.18,-0.51 0.34,-1.01 0.47,-1.52 0.11,-0.42 0.21,-0.84 0.28,-1.26 0.04,-0.2 0.06,-0.41 0.08,-0.61 0.05,-0.31 0.09,-0.61 0.11,-0.91 0.02,-0.2 0.02,-0.39 0.03,-0.58 0.02,-0.33 0.02,-0.65 0.02,-0.97 0,-0.17 -0.01,-0.34 -0.02,-0.51 -0.01,-0.36 -0.04,-0.72 -0.08,-1.07 -0.01,-0.13 -0.03,-0.27 -0.04,-0.41 -0.06,-0.42 -0.13,-0.84 -0.22,-1.25 -0.02,-0.07 -0.03,-0.14 -0.04,-0.21 -0.12,-0.5 -0.25,-0.99 -0.41,-1.48 -0.01,-0.03 -0.02,-0.06 -0.03,-0.08 -0.15,-0.43 -0.31,-0.86 -0.49,-1.27 -0.07,-0.16 -0.14,-0.31 -0.21,-0.46 -0.13,-0.29 -0.27,-0.57 -0.42,-0.85 -0.1,-0.18 -0.2,-0.35 -0.3,-0.53 -0.14,-0.25 -0.3,-0.49 -0.46,-0.74 -0.11,-0.17 -0.22,-0.35 -0.35,-0.52 -0.18,-0.25 -0.37,-0.5 -0.57,-0.75 -0.11,-0.13 -0.21,-0.28 -0.33,-0.41 -0.31,-0.36 -0.64,-0.71 -0.98,-1.05 -0.1,-0.1 -0.21,-0.19 -0.32,-0.29 -0.27,-0.25 -0.54,-0.5 -0.83,-0.73 -0.12,-0.1 -0.25,-0.2 -0.38,-0.29 -0.29,-0.23 -0.6,-0.45 -0.92,-0.66 -0.11,-0.07 -0.23,-0.15 -0.34,-0.22 -0.11,-0.07 -0.21,-0.14 -0.31,-0.21l7.36 -27.46 70.13 18.79 -7.36 27.47z"/>
   </g>
   <g>
    <path class="fil0" d="M272.51 382.27l-0.38 -0.1c-8.83,-2.36 -17.89,2.89 -20.24,11.71 -2.36,8.83 2.89,17.89 11.71,20.24l0.39 0.11c1.43,0.38 2.86,0.56 4.27,0.56 7.31,0 13.99,-4.89 15.97,-12.28 2.35,-8.83 -2.89,-17.89 -11.72,-20.24z"/>
   </g>
   <g>
    <path class="fil0" d="M272.56 582.29c-8.33,-14.43 -21.77,-24.74 -37.86,-29.05 -5.29,-1.42 -10.73,-2.14 -16.17,-2.14 -28.15,0 -52.9,19.01 -60.19,46.22 -4.31,16.09 -2.1,32.89 6.23,47.32 8.33,14.42 21.77,24.74 37.86,29.04 5.29,1.42 10.73,2.14 16.16,2.14 28.15,0 52.91,-19.01 60.2,-46.22 4.31,-16.09 2.1,-32.89 -6.23,-47.31zm-25.72 38.75c-3.42,12.78 -15.04,21.71 -28.25,21.71 -2.54,0 -5.1,-0.34 -7.6,-1.01 -7.56,-2.02 -13.87,-6.87 -17.78,-13.64 -3.91,-6.77 -4.95,-14.66 -2.92,-22.22 3.42,-12.78 15.04,-21.71 28.25,-21.71 2.54,0 5.1,0.34 7.6,1.01 7.56,2.02 13.87,6.87 17.78,13.64 3.91,6.77 4.95,14.66 2.92,22.22z"/>
   </g>
   <g>
    <path class="fil0" d="M802.03 739.39l-75.83 -283.02c-11.46,-42.76 -50.86,-78.92 -81.75,-87.3 -9.06,-23.64 -18.24,-46.53 -27.05,-67.58 -0.01,-0.03 -0.03,-0.05 -0.04,-0.08 -10.09,-24.09 -19.7,-45.75 -28.14,-63.3 1.35,-1.84 2.48,-3.82 3.35,-5.91 2.63,-6.35 2.61,-13.23 0.01,-19.26l-8.83 -32.94c-0.72,-6.39 -4.04,-12.26 -9.38,-16.39 -7.01,-5.45 -16.78,-7.38 -25.49,-5.05l-79.67 21.35c-7.24,1.94 -13.31,6.6 -17.07,13.12 -3.76,6.51 -4.76,14.09 -2.82,21.34l9.64 35.99c2.22,8.29 7.9,14.73 15.06,18.23 0.92,12.14 2.23,25.9 3.9,40.87 0.01,0.1 0.03,0.21 0.04,0.31 3.34,29.87 8.06,64.45 13.74,100.23 -22.56,22.71 -38.6,73.72 -27.14,116.48l75.83 283.02c3.62,13.48 12.76,24.54 25.74,31.14 7.87,4 16.58,6.03 25.42,6.03 5.08,0 10.22,-0.67 15.26,-2.02l155.27 -41.6c13.85,-3.71 25.65,-12.17 33.23,-23.82 7.95,-12.2 10.33,-26.35 6.72,-39.84zm-309.63 -501.12c-0.25,-0.04 -0.5,-0.08 -0.75,-0.11 -0.28,-0.03 -0.56,-0.06 -0.85,-0.08 -0.2,-0.01 -0.39,-0.02 -0.59,-0.03 -0.11,0 -0.21,-0.01 -0.31,-0.02l-7.36 -27.46 70.13 -18.79 7.36 27.46c-0.1,0.07 -0.2,0.14 -0.31,0.21 -0.12,0.07 -0.23,0.15 -0.35,0.22 -0.31,0.21 -0.62,0.43 -0.91,0.66 -0.13,0.1 -0.26,0.19 -0.39,0.29 -0.28,0.23 -0.55,0.47 -0.81,0.72 -0.11,0.1 -0.23,0.2 -0.34,0.3 -0.34,0.34 -0.66,0.69 -0.97,1.05 -0.12,0.14 -0.23,0.29 -0.35,0.43 -0.19,0.24 -0.38,0.48 -0.55,0.73 -0.13,0.17 -0.24,0.35 -0.36,0.54 -0.16,0.23 -0.31,0.47 -0.45,0.71 -0.11,0.18 -0.21,0.36 -0.3,0.54 -0.15,0.28 -0.29,0.56 -0.42,0.84 -0.07,0.16 -0.15,0.31 -0.22,0.47 -0.17,0.4 -0.33,0.82 -0.47,1.24 -0.01,0.04 -0.03,0.08 -0.04,0.11 -0.16,0.49 -0.29,0.98 -0.41,1.47 -0.02,0.08 -0.03,0.16 -0.04,0.23 -0.09,0.41 -0.16,0.82 -0.22,1.24 -0.02,0.14 -0.03,0.28 -0.05,0.42 -0.03,0.35 -0.06,0.7 -0.08,1.05 -0.01,0.17 -0.01,0.35 -0.02,0.52 0,0.32 0.01,0.64 0.02,0.96 0.01,0.2 0.02,0.39 0.03,0.59 0.03,0.3 0.07,0.6 0.11,0.91 0.03,0.2 0.05,0.41 0.09,0.61 0.08,0.44 0.17,0.88 0.29,1.32 0.12,0.46 0.26,0.91 0.43,1.37 0.04,0.12 0.07,0.25 0.12,0.37 0.02,0.05 0.04,0.1 0.06,0.15 0.19,0.49 0.4,0.96 0.64,1.43 6.86,13.56 14.81,30.76 23.36,50.41l-67.87 0c-1.43,-14.13 -2.47,-26.85 -3.07,-37.67 -0.03,-0.5 -0.09,-1.01 -0.16,-1.51 -0.01,-0.07 -0.02,-0.14 -0.03,-0.2 -0.01,-0.11 -0.04,-0.22 -0.07,-0.33 -0.08,-0.49 -0.18,-0.97 -0.31,-1.44 -0.12,-0.44 -0.26,-0.88 -0.42,-1.3 -0.06,-0.19 -0.15,-0.37 -0.22,-0.56 -0.12,-0.29 -0.24,-0.58 -0.37,-0.86 -0.09,-0.17 -0.18,-0.34 -0.27,-0.51 -0.15,-0.29 -0.3,-0.57 -0.46,-0.85 -0.09,-0.15 -0.18,-0.3 -0.28,-0.45 -0.18,-0.29 -0.38,-0.57 -0.58,-0.85 -0.09,-0.12 -0.18,-0.25 -0.28,-0.37 -0.23,-0.31 -0.48,-0.6 -0.73,-0.88 -0.08,-0.09 -0.15,-0.18 -0.23,-0.27 -0.34,-0.35 -0.68,-0.69 -1.04,-1.02 -0.13,-0.11 -0.26,-0.21 -0.39,-0.32 -0.23,-0.2 -0.47,-0.4 -0.71,-0.58 -0.21,-0.16 -0.42,-0.3 -0.64,-0.45 -0.17,-0.11 -0.34,-0.23 -0.52,-0.34 -0.25,-0.16 -0.5,-0.31 -0.76,-0.45 -0.14,-0.08 -0.29,-0.16 -0.43,-0.23 -0.29,-0.15 -0.58,-0.3 -0.88,-0.44 -0.09,-0.03 -0.18,-0.07 -0.27,-0.11 -1,-0.43 -2.05,-0.75 -3.13,-0.97 -0.2,-0.04 -0.4,-0.09 -0.6,-0.12zm24.21 193.65l18.98 -5.09c8.82,-2.36 14.05,-11.43 11.69,-20.25 -2.37,-8.82 -11.44,-14.06 -20.25,-11.69l-4.05 1.08c-3.89,-25.08 -7.28,-49.35 -10,-71.55l78.14 0c8.45,20.5 17.19,42.56 25.78,65.23 2.39,6.28 8.33,10.49 15.05,10.66 12.85,0.33 41.95,20.81 56.29,49.11l-194.27 52.06c-1.66,-30.21 11.86,-60.95 22.64,-69.56zm41.02 314.1l-56.84 -212.13 197.74 -52.99 56.84 212.13 -197.74 52.99zm209.97 15.17c-3.13,4.79 -8.12,8.31 -14.07,9.91l-155.27 41.6c-5.95,1.6 -12.04,1.05 -17.14,-1.55 -4.51,-2.29 -7.62,-5.91 -8.78,-10.21l-6.15 -22.98 197.74 -52.99 6.16 22.98c1.15,4.3 0.26,9 -2.49,13.24z"/>
   </g>
   <g>
    <path class="fil0" d="M594.75 393.87c-2.36,-8.83 -11.42,-14.07 -20.25,-11.7l-0.38 0.1c-8.83,2.37 -14.06,11.43 -11.7,20.25 1.98,7.39 8.66,12.27 15.97,12.27 1.41,0 2.85,-0.19 4.28,-0.57l0.39 -0.11c8.82,-2.36 14.06,-11.42 11.69,-20.24z"/>
   </g>
   <g>
    <path class="fil0" d="M688.3 597.32c-7.29,-27.21 -32.04,-46.22 -60.19,-46.22 -5.44,0 -10.88,0.72 -16.17,2.13 -16.08,4.31 -29.53,14.63 -37.86,29.05 -8.32,14.43 -10.54,31.23 -6.23,47.32 7.3,27.21 32.05,46.22 60.2,46.22 0,0 0,0 0,0 5.44,0 10.88,-0.72 16.17,-2.13 16.08,-4.31 29.53,-14.63 37.86,-29.05 8.32,-14.43 10.53,-31.23 6.22,-47.32zm-34.87 30.78c-3.91,6.77 -10.22,11.62 -17.77,13.64 -2.5,0.67 -5.06,1.01 -7.61,1.01 0,0 0,0 0,0 -13.21,0 -24.83,-8.93 -28.25,-21.71 -2.03,-7.55 -0.99,-15.44 2.92,-22.22 3.91,-6.77 10.23,-11.61 17.78,-13.64 2.5,-0.67 5.06,-1.01 7.61,-1.01 13.2,0 24.82,8.93 28.25,21.71 2.02,7.56 0.98,15.45 -2.93,22.22z"/>
   </g>
   <g>
    <path class="fil0" d="M423.32 0c-9.13,0 -16.53,7.41 -16.53,16.54l0 44.26c0,9.13 7.4,16.54 16.53,16.54 9.13,0 16.54,-7.41 16.54,-16.54l0 -44.26c0,-9.13 -7.4,-16.54 -16.54,-16.54z"/>
   </g>
   <g>
    <path class="fil0" d="M368.02 83.01l-22.48 -38.33c-4.62,-7.88 -14.76,-10.52 -22.63,-5.9 -7.88,4.62 -10.52,14.75 -5.9,22.63l22.48 38.33c3.08,5.25 8.61,8.17 14.28,8.17 2.84,0 5.72,-0.73 8.35,-2.27 7.88,-4.63 10.52,-14.76 5.9,-22.63z"/>
   </g>
   <g>
    <path class="fil0" d="M523.74 38.78c-7.88,-4.62 -18.01,-1.98 -22.63,5.9l-22.48 38.33c-4.62,7.87 -1.98,18.01 5.9,22.63 2.63,1.54 5.5,2.27 8.35,2.27 5.67,0 11.2,-2.92 14.28,-8.17l22.48 -38.33c4.62,-7.88 1.98,-18.01 -5.9,-22.63z"/>
   </g>
  </g>
 </g>
</svg>
