<?xml version="1.0" encoding="UTF-8"?>
<!DOCTYPE svg PUBLIC "-//W3C//DTD SVG 1.1//EN" "http://www.w3.org/Graphics/SVG/1.1/DTD/svg11.dtd">
<!-- Creator: CorelDRAW 2018 (64 Bit Versão de avaliação) -->
<svg xmlns="http://www.w3.org/2000/svg" xml:space="preserve" width="5.4186mm" height="5.4186mm" version="1.1" style="shape-rendering:geometricPrecision; text-rendering:geometricPrecision; image-rendering:optimizeQuality; fill-rule:evenodd; clip-rule:evenodd"
viewBox="0 0 541.86 541.86"
 xmlns:xlink="http://www.w3.org/1999/xlink">
 <defs>
  <style type="text/css">
   <![CDATA[
    .fil0 {fill:#794094}
   ]]>
  </style>
 </defs>
 <g id="Camada_x0020_1">
  <metadata id="CorelCorpID_0Corel-Layer"/>
  <g id="_1645397679072">
   <g>
    <path class="fil0" d="M464.85 184.21c-3.46,-6.48 -10.17,-10.51 -17.51,-10.51l-56.37 0c-4.71,-26.47 -27.87,-46.64 -55.66,-46.64 -27.8,0 -50.96,20.17 -55.67,46.64l-57.1 0c4.47,-6.86 7.09,-15.03 7.09,-23.81 0,-24.08 -19.58,-43.66 -43.66,-43.66 -24.07,0 -43.65,19.58 -43.65,43.66 0,8.78 2.61,16.95 7.09,23.81l-46.56 0c-7.34,0 -14.06,4.03 -17.51,10.51 -3.45,6.49 -3.05,14.31 1.05,20.4l133.14 198 0 112.39c0,3.35 1.69,6.47 4.49,8.3 1.64,1.08 3.53,1.63 5.44,1.63 1.34,0 2.69,-0.28 3.96,-0.83l91.28 -39.75c3.62,-1.58 5.96,-5.15 5.96,-9.09l0 -72.65 133.14 -198c4.1,-6.09 4.5,-13.91 1.05,-20.4zm-129.54 -37.3c16.8,0 30.99,11.35 35.33,26.79l-70.67 0c4.34,-15.44 18.53,-26.79 35.34,-26.79zm-149.33 -20.84c13.12,0 23.81,10.69 23.81,23.81 0,13.13 -10.69,23.82 -23.81,23.82 -13.13,0 -23.82,-10.69 -23.82,-23.82 0,-13.12 10.69,-23.81 23.82,-23.81zm126.52 267.97c-1.1,1.64 -1.69,3.57 -1.69,5.54l0 69.17 -71.43 31.11 0 -90.36 35.84 0c5.48,0 9.92,-4.44 9.92,-9.92 0,-5.48 -4.44,-9.92 -9.92,-9.92l-40.48 0 -99.86 -148.5 200.43 0c5.48,0 9.92,-4.44 9.92,-9.92 0,-5.48 -4.45,-9.92 -9.92,-9.92l-213.77 0 -18.68 -27.78 344.47 0 -134.83 200.5z"/>
   </g>
   <g>
    <path class="fil0" d="M308.95 16.93c-24.07,0 -43.65,19.59 -43.65,43.66 0,24.07 19.58,43.65 43.65,43.65 24.08,0 43.66,-19.58 43.66,-43.65 0,-24.07 -19.58,-43.66 -43.66,-43.66zm0 67.47c-13.13,0 -23.81,-10.68 -23.81,-23.81 0,-13.13 10.68,-23.81 23.81,-23.81 13.13,0 23.82,10.68 23.82,23.81 0,13.13 -10.69,23.81 -23.82,23.81z"/>
   </g>
   <g>
    <path class="fil0" d="M414.99 64.89c-5.48,0 -9.92,4.44 -9.92,9.92l0 56.39c0,5.48 4.44,9.92 9.92,9.92 5.48,0 9.92,-4.44 9.92,-9.92l0 -56.39c0,-5.48 -4.44,-9.92 -9.92,-9.92z"/>
   </g>
   <g>
    <path class="fil0" d="M422.01 35.22c-1.85,-1.85 -4.41,-2.91 -7.02,-2.91 -2.61,0 -5.17,1.06 -7.01,2.91 -1.85,1.85 -2.91,4.41 -2.91,7.01 0,2.61 1.06,5.17 2.91,7.02 1.84,1.84 4.4,2.91 7.01,2.91 2.61,0 5.17,-1.07 7.02,-2.91 1.84,-1.85 2.9,-4.41 2.9,-7.02 0,-2.6 -1.06,-5.16 -2.9,-7.01z"/>
   </g>
   <g>
    <path class="fil0" d="M219.71 29.59c-5.48,0 -9.92,4.44 -9.92,9.92l0 40.68c0,5.48 4.44,9.92 9.92,9.92 5.48,0 9.92,-4.44 9.92,-9.92l0 -40.68c0,-5.48 -4.44,-9.92 -9.92,-9.92z"/>
   </g>
   <g>
    <path class="fil0" d="M84.6 16.93c-5.48,0 -9.92,4.45 -9.92,9.93l0 64.65c0,5.48 4.44,9.92 9.92,9.92 5.48,0 9.92,-4.44 9.92,-9.92l0 -64.65c0,-5.48 -4.44,-9.93 -9.92,-9.93z"/>
   </g>
   <g>
    <path class="fil0" d="M91.61 121.71c-1.84,-1.86 -4.4,-2.91 -7.01,-2.91 -2.61,0 -5.17,1.05 -7.02,2.91 -1.84,1.84 -2.9,4.39 -2.9,7.01 0,2.61 1.06,5.17 2.9,7.02 1.85,1.84 4.41,2.9 7.02,2.9 2.61,0 5.17,-1.06 7.01,-2.9 1.85,-1.85 2.91,-4.41 2.91,-7.02 0,-2.62 -1.06,-5.17 -2.91,-7.01z"/>
   </g>
   <g>
    <path class="fil0" d="M386.44 224.23c-1.85,-1.85 -4.41,-2.91 -7.02,-2.91 -2.62,0 -5.18,1.06 -7.01,2.91 -1.86,1.84 -2.91,4.4 -2.91,7.01 0,2.61 1.05,5.17 2.91,7.02 1.84,1.84 4.39,2.91 7.01,2.91 2.61,0 5.16,-1.07 7.02,-2.91 1.84,-1.85 2.9,-4.41 2.9,-7.02 0,-2.61 -1.06,-5.17 -2.9,-7.01z"/>
   </g>
  </g>
 </g>
</svg>
