<?xml version="1.0" encoding="UTF-8"?>
<!DOCTYPE svg PUBLIC "-//W3C//DTD SVG 1.1//EN" "http://www.w3.org/Graphics/SVG/1.1/DTD/svg11.dtd">
<!-- Creator: CorelDRAW 2018 (64 Bit Versão de avaliação) -->
<svg xmlns="http://www.w3.org/2000/svg" xml:space="preserve" width="4.2332mm" height="4.2332mm" version="1.1" style="shape-rendering:geometricPrecision; text-rendering:geometricPrecision; image-rendering:optimizeQuality; fill-rule:evenodd; clip-rule:evenodd"
viewBox="0 0 423.32 423.32"
 xmlns:xlink="http://www.w3.org/1999/xlink">
 <defs>
  <style type="text/css">
   <![CDATA[
    .fil0 {fill:#AD72AC}
   ]]>
  </style>
 </defs>
 <g id="Camada_x0020_1">
  <metadata id="CorelCorpID_0Corel-Layer"/>
  <g id="_1645402881488">
   <path class="fil0" d="M361.32 62c-39.98,-39.98 -93.13,-62 -149.67,-62 -56.54,0 -109.69,22.02 -149.67,62 -39.98,39.98 -61.99,93.13 -61.99,149.67 0,56.54 22.01,109.69 61.99,149.67 39.98,39.98 93.13,61.99 149.67,61.99 56.54,0 109.69,-22.01 149.67,-61.99 39.98,-39.98 62,-93.13 62,-149.67 0,-56.54 -22.02,-109.69 -62,-149.67zm-149.67 344.8c-107.59,0 -195.13,-87.54 -195.13,-195.13 0,-107.59 87.54,-195.13 195.13,-195.13 107.59,0 195.13,87.54 195.13,195.13 0,107.59 -87.54,195.13 -195.13,195.13z"/>
   <path class="fil0" d="M387.02 177.73c-11.15,-57.91 -50.19,-106.52 -104.46,-130.02 -4.19,-1.81 -9.06,0.11 -10.87,4.3 -1.82,4.19 0.11,9.06 4.3,10.88 49.24,21.32 84.68,65.42 94.79,117.97 0.76,3.95 4.23,6.7 8.11,6.7 0.52,0 1.05,-0.04 1.57,-0.15 4.49,-0.86 7.42,-5.19 6.56,-9.68z"/>
   <path class="fil0" d="M250.04 37.22l-0.22 -0.05c-4.46,-0.96 -8.86,1.88 -9.82,6.34 -0.96,4.46 1.88,8.86 6.34,9.82l0.1 0.02c0.6,0.14 1.21,0.2 1.81,0.2 3.78,0 7.2,-2.61 8.06,-6.46 0.99,-4.46 -1.81,-8.88 -6.27,-9.87z"/>
   <path class="fil0" d="M149.18 361.25c-50.26,-21.02 -86.4,-65.42 -96.66,-118.77 -0.86,-4.48 -5.19,-7.42 -9.68,-6.55 -4.49,0.86 -7.42,5.19 -6.56,9.68 5.56,28.91 18.41,56.29 37.15,79.16 18.53,22.62 42.51,40.5 69.37,51.73 1.04,0.44 2.12,0.65 3.19,0.65 3.23,0 6.3,-1.91 7.63,-5.08 1.76,-4.22 -0.23,-9.06 -4.44,-10.82z"/>
   <path class="fil0" d="M176.98 370.01l-0.51 -0.11c-4.46,-0.99 -8.88,1.82 -9.87,6.28 -0.99,4.45 1.82,8.87 6.28,9.86l0.58 0.13c0.59,0.13 1.18,0.19 1.77,0.19 3.8,0 7.22,-2.64 8.07,-6.51 0.97,-4.46 -1.86,-8.87 -6.32,-9.84z"/>
   <path class="fil0" d="M379.83 240.02c-4.46,-0.97 -8.87,1.86 -9.84,6.32 -13.81,63.36 -63.86,112.21 -127.53,124.46 -4.48,0.86 -7.42,5.2 -6.55,9.68 0.76,3.96 4.22,6.71 8.11,6.71 0.51,0 1.04,-0.05 1.57,-0.15 34.31,-6.6 65.73,-23.07 90.86,-47.62 25.08,-24.51 42.27,-55.48 49.7,-89.56 0.97,-4.46 -1.86,-8.86 -6.32,-9.84z"/>
   <path class="fil0" d="M187.39 42.86c-0.86,-4.49 -5.19,-7.43 -9.68,-6.56 -34.31,6.6 -65.73,23.07 -90.86,47.62 -25.09,24.51 -42.27,55.48 -49.7,89.56 -0.97,4.46 1.86,8.86 6.32,9.84 0.59,0.13 1.19,0.19 1.77,0.19 3.8,0 7.23,-2.64 8.07,-6.51 13.81,-63.36 63.86,-112.21 127.53,-124.46 4.48,-0.86 7.42,-5.2 6.55,-9.68z"/>
   <path class="fil0" d="M211.65 183.56c-15.5,0 -28.11,12.61 -28.11,28.11 0,15.5 12.61,28.11 28.11,28.11 15.5,0 28.11,-12.61 28.11,-28.11 0,-15.5 -12.61,-28.11 -28.11,-28.11zm0 39.69c-6.38,0 -11.58,-5.2 -11.58,-11.58 0,-6.38 5.2,-11.58 11.58,-11.58 6.38,0 11.58,5.2 11.58,11.58 0,6.38 -5.2,11.58 -11.58,11.58z"/>
   <path class="fil0" d="M211.78 33.08c-4.57,0 -8.27,3.7 -8.27,8.27l0 18.52c0,4.57 3.7,8.27 8.27,8.27 4.56,0 8.26,-3.7 8.26,-8.27l0 -18.52c0,-4.57 -3.7,-8.27 -8.26,-8.27z"/>
   <path class="fil0" d="M211.52 349.31c-4.56,0 -8.26,3.7 -8.26,8.26l0 24.42c0,4.57 3.7,8.27 8.26,8.27 4.57,0 8.27,-3.7 8.27,-8.27l0 -24.42c0,-4.56 -3.7,-8.26 -8.27,-8.26z"/>
   <path class="fil0" d="M381.97 203.53l-22.32 0c-4.57,0 -8.27,3.7 -8.27,8.27 0,4.56 3.7,8.26 8.27,8.26l22.32 0c4.57,0 8.27,-3.7 8.27,-8.26 0,-4.57 -3.7,-8.27 -8.27,-8.27z"/>
   <path class="fil0" d="M65.3 203.28l-23.97 0c-4.57,0 -8.27,3.7 -8.27,8.26 0,4.57 3.7,8.27 8.27,8.27l23.97 0c4.57,0 8.27,-3.7 8.27,-8.27 0,-4.56 -3.7,-8.26 -8.27,-8.26z"/>
   <path class="fil0" d="M191.81 203.4l-37.76 0c-4.57,0 -8.27,3.7 -8.27,8.27 0,4.57 3.7,8.27 8.27,8.27l37.76 0c4.56,0 8.26,-3.7 8.26,-8.27 0,-4.57 -3.7,-8.27 -8.26,-8.27z"/>
   <path class="fil0" d="M211.65 106.11c-4.57,0 -8.27,3.7 -8.27,8.27l0 77.45c0,4.56 3.7,8.26 8.27,8.26 4.57,0 8.27,-3.7 8.27,-8.26l0 -77.45c0,-4.57 -3.7,-8.27 -8.27,-8.27z"/>
  </g>
 </g>
</svg>
