<?xml version="1.0" encoding="UTF-8"?>
<!DOCTYPE svg PUBLIC "-//W3C//DTD SVG 1.1//EN" "http://www.w3.org/Graphics/SVG/1.1/DTD/svg11.dtd">
<!-- Creator: CorelDRAW 2018 (64 Bit Versão de avaliação) -->
<svg xmlns="http://www.w3.org/2000/svg" xml:space="preserve" width="5.0798mm" height="4.6566mm" version="1.1" style="shape-rendering:geometricPrecision; text-rendering:geometricPrecision; image-rendering:optimizeQuality; fill-rule:evenodd; clip-rule:evenodd"
viewBox="0 0 507.98 465.66"
 xmlns:xlink="http://www.w3.org/1999/xlink">
 <defs>
  <style type="text/css">
   <![CDATA[
    .fil0 {fill:#8C4A99}
   ]]>
  </style>
 </defs>
 <g id="Camada_x0020_1">
  <metadata id="CorelCorpID_0Corel-Layer"/>
  <g id="_1645402892944">
   <path class="fil0" d="M110.89 284.65c-4.03,-3.65 -10.22,-3.32 -13.88,0.7 -3.66,4.03 -3.33,10.29 0.7,13.95 1.88,1.71 4.26,2.56 6.62,2.56 2.68,0 5.35,-1.08 7.3,-3.22 3.66,-4.03 3.36,-10.26 -0.67,-13.92 -0.01,-0.02 -0.05,-0.05 -0.07,-0.07l0 0zm0 0z"/>
   <path class="fil0" d="M426.24 238.29c-4.62,0 -9.22,0.42 -13.73,1.24 26.27,-34.8 39.56,-68.21 39.56,-99.68 0,-77.12 -60.37,-139.86 -134.57,-139.86 -34,0 -65.8,12.87 -90.6,36.44 -24.8,-23.57 -56.6,-36.44 -90.59,-36.44 -74.21,0 -134.58,62.74 -134.58,139.86 0,41.28 22.86,85.91 67.94,132.65 3.78,3.92 10.02,4.03 13.93,0.25 3.92,-3.78 4.03,-10.02 0.25,-13.93 -41.41,-42.95 -62.41,-82.97 -62.41,-118.97 0,-66.25 51.53,-120.15 114.86,-120.15 31.81,0 61.39,13.3 83.31,37.44 1.86,2.06 4.51,3.23 7.29,3.23 2.78,0 5.43,-1.17 7.29,-3.23 21.92,-24.14 51.5,-37.44 83.31,-37.44 63.33,0 114.86,53.9 114.86,120.15 0,35.1 -19.95,73.99 -59.28,115.67 -13.9,-11.06 -31.11,-17.23 -48.79,-17.23 -44.12,0 -80.02,37.23 -80.02,83 0,10.69 2.61,21.25 7.05,31.51 -10.87,6.89 -19.45,11.96 -24.42,14.82 -12.61,-7.28 -48.64,-28.83 -86.93,-58.79 -4.29,-3.36 -10.48,-2.6 -13.83,1.68 -3.35,4.29 -2.6,10.49 1.69,13.84 48.59,38.03 92.49,62.23 94.33,63.24 1.48,0.81 3.11,1.21 4.74,1.21 1.63,0 3.26,-0.41 4.74,-1.21 0.54,-0.3 11.75,-6.47 29.05,-17.4 33.28,51.77 105.87,92.08 109.84,94.26 1.48,0.81 3.1,1.22 4.74,1.22 1.63,0 3.26,-0.41 4.74,-1.22 5.15,-2.83 126.25,-70.07 126.25,-143.16 0,-45.77 -35.89,-83 -80.02,-83zm3.54 168.02c-22.33,18.54 -44.95,32.51 -54.51,38.14 -9.53,-5.6 -31.99,-19.46 -54.28,-37.95 -26.01,-21.57 -57.01,-53.86 -57.01,-85.21 0,-34.9 27.06,-63.3 60.32,-63.3 16.65,0 32.17,6.98 43.67,19.66 1.87,2.05 4.52,3.22 7.3,3.22 2.78,0 5.42,-1.17 7.3,-3.22 11.5,-12.68 27.01,-19.66 43.67,-19.66 33.26,0 60.32,28.4 60.32,63.3 0,31.28 -30.88,63.5 -56.78,85.02l0 0zm0 0z"/>
   <path class="fil0" d="M317.57 67c5.45,0 9.82,-4.41 9.82,-9.85 0,-5.44 -4.45,-9.85 -9.89,-9.85 -5.44,0 -9.85,4.41 -9.85,9.85 0,5.44 4.41,9.85 9.85,9.85l0.07 0zm0 0z"/>
   <path class="fil0" d="M385.06 139.85c0,5.44 4.41,9.86 9.85,9.86 5.45,0 9.86,-4.42 9.86,-9.86 0,-36.07 -20.02,-69.12 -50.99,-84.18 -4.9,-2.38 -10.8,-0.34 -13.18,4.55 -2.37,4.9 -0.34,10.79 4.56,13.17 24.24,11.79 39.9,37.88 39.9,66.46l0 0zm0 0z"/>
  </g>
 </g>
</svg>
