<?xml version="1.0" encoding="UTF-8"?>
<!DOCTYPE svg PUBLIC "-//W3C//DTD SVG 1.1//EN" "http://www.w3.org/Graphics/SVG/1.1/DTD/svg11.dtd">
<!-- Creator: CorelDRAW 2018 (64 Bit Versão de avaliação) -->
<svg xmlns="http://www.w3.org/2000/svg" xml:space="preserve" width="6.1806mm" height="6.3498mm" version="1.1" style="shape-rendering:geometricPrecision; text-rendering:geometricPrecision; image-rendering:optimizeQuality; fill-rule:evenodd; clip-rule:evenodd"
viewBox="0 0 618.06 634.98"
 xmlns:xlink="http://www.w3.org/1999/xlink">
 <defs>
  <style type="text/css">
   <![CDATA[
    .fil1 {fill:#724086}
    .fil5 {fill:black}
    .fil0 {fill:#794094}
    .fil4 {fill:#E63950}
    .fil2 {fill:#EC5569}
    .fil3 {fill:#EC5569}
   ]]>
  </style>
 </defs>
 <g id="Camada_x0020_1">
  <metadata id="CorelCorpID_0Corel-Layer"/>
  <g id="_1645402918160">
   <path class="fil0" d="M496.62 10.21l-376.57 0c-62.67,0 -113.47,50.8 -113.47,113.47l0 246.98c0,62.67 50.8,113.47 113.47,113.47l54.04 0c2.57,0 4.66,2.08 4.66,4.65l0 121.83c0,14.41 17.62,21.39 27.48,10.9l127.83 -135.92c0.88,-0.93 2.11,-1.46 3.39,-1.46l159.17 -0.01c62.66,0 113.46,-50.8 113.46,-113.46l0 -246.98c0.01,-62.67 -50.79,-113.47 -113.46,-113.47z"/>
   <path class="fil1" d="M226.48 441.78c0,-2.71 -2.02,-4.9 -4.5,-4.9l-52.32 0c-60.67,0 -109.85,-53.5 -109.85,-119.49l0 -260.08c0,-11.17 1.41,-21.98 4.05,-32.23 -34.22,19.54 -57.28,56.38 -57.28,98.6l0 246.98c0,62.67 50.8,113.47 113.47,113.47l54.04 0c2.57,0 4.65,2.08 4.65,4.65l0 121.84c0,14.4 17.62,21.38 27.49,10.89l20.25 -21.53 0 -158.2 0 0z"/>
   <path class="fil2" d="M435.83 157.46l0 0c-28.81,-28.8 -75.52,-28.8 -104.33,0l-16.27 16.28c-3.88,3.88 -10.17,3.88 -14.05,0l-16.02 -16.01c-28.8,-28.81 -75.51,-28.81 -104.32,0l0 0c-28.81,28.8 -28.81,75.51 0,104.32l120.35 120.35c3.88,3.88 10.17,3.88 14.05,0l120.59 -120.61c28.8,-28.81 28.8,-75.52 0,-104.33z"/>
   <path class="fil3" d="M435.83 157.46l0 0c-28.81,-28.8 -75.52,-28.8 -104.33,0l-16.27 16.28c-3.88,3.88 -10.17,3.88 -14.05,0l-16.02 -16.01c-28.8,-28.81 -75.51,-28.81 -104.32,0l0 0c-28.81,28.8 -28.81,75.51 0,104.32l120.35 120.35c3.88,3.88 10.17,3.88 14.05,0l120.59 -120.61c28.8,-28.81 28.8,-75.52 0,-104.33z"/>
   <path class="fil4" d="M219.43 262.05c-28.81,-28.81 -28.81,-75.52 0,-104.33l0 0c9.45,-9.44 20.83,-15.77 32.87,-19.02 -24.66,-6.66 -52.1,-0.33 -71.46,19.02l0 0c-28.81,28.81 -28.81,75.52 0,104.33l120.35 120.35c3.88,3.87 10.17,3.87 14.05,0l12.27 -12.27 -108.08 -108.08z"/>
   <path class="fil5" d="M497.32 -0.01l-376.58 0c-26.51,0 -51.76,8.32 -73.01,24.05 -4.14,3.07 -5.01,8.92 -1.95,13.06 3.07,4.14 8.92,5.01 13.06,1.95 18.01,-13.34 39.42,-20.39 61.9,-20.39l376.58 0c57.41,0 104.13,46.71 104.13,104.13l0 246.99c0,57.41 -46.72,104.13 -104.13,104.13l-159.17 0c-3.84,0 -7.56,1.6 -10.19,4.4l-127.83 135.92c-2.76,2.93 -5.96,2.1 -7.2,1.61 -1.25,-0.5 -4.15,-2.08 -4.15,-6.11l0 -121.83c0,-7.72 -6.28,-13.99 -13.99,-13.99l-54.05 0c-57.42,0 -104.13,-46.71 -104.13,-104.13l0 -246.99c0,-21.12 6.29,-41.46 18.18,-58.81 2.92,-4.25 1.84,-10.06 -2.42,-12.98 -4.25,-2.91 -10.06,-1.83 -12.97,2.42 -14.04,20.47 -21.46,44.46 -21.46,69.37l0 246.99c0,67.71 55.09,122.8 122.8,122.8l49.37 0 0 117.15c0,10.42 6.25,19.63 15.94,23.46 3.05,1.21 6.22,1.8 9.35,1.8 6.81,0 13.45,-2.77 18.33,-7.97l126.44 -134.44 157.15 0c67.71,0 122.8,-55.09 122.8,-122.8l0 -246.99c0,-67.71 -55.09,-122.8 -122.8,-122.8z"/>
   <path class="fil5" d="M402.05 282.18c-3.65,3.65 -3.65,9.56 0,13.2 3.65,3.65 9.56,3.65 13.2,0l27.87 -27.88c32.4,-32.4 32.4,-85.12 0,-117.52 -32.4,-32.4 -85.12,-32.4 -117.52,0l-16.28 16.27c-0.04,0.04 -0.17,0.18 -0.42,0.18 -0.25,0 -0.38,-0.14 -0.43,-0.18l-16.01 -16.01c-32.4,-32.4 -85.12,-32.4 -117.52,0 -32.4,32.4 -32.4,85.12 0,117.52l120.34 120.35c3.64,3.64 8.48,5.64 13.63,5.64 5.15,0 9.99,-2 13.63,-5.64l66.13 -66.15c3.65,-3.65 3.65,-9.56 0,-13.2 -3.65,-3.64 -9.56,-3.65 -13.2,0l-66.14 66.15c-0.04,0.04 -0.17,0.18 -0.42,0.18 -0.25,0 -0.38,-0.14 -0.43,-0.18l-120.34 -120.35c-25.12,-25.12 -25.12,-66 0,-91.12 25.12,-25.12 66,-25.12 91.12,0l16.01 16.01c3.64,3.64 8.48,5.65 13.63,5.65 5.14,0 9.98,-2.01 13.62,-5.65l16.28 -16.27c25.12,-25.12 66,-25.12 91.12,0 25.12,25.12 25.12,66 0,91.12l-27.87 27.88z"/>
  </g>
 </g>
</svg>
