<?xml version="1.0" encoding="UTF-8"?>
<!DOCTYPE svg PUBLIC "-//W3C//DTD SVG 1.1//EN" "http://www.w3.org/Graphics/SVG/1.1/DTD/svg11.dtd">
<!-- Creator: CorelDRAW 2018 (64 Bit Versão de avaliação) -->
<svg xmlns="http://www.w3.org/2000/svg" xml:space="preserve" width="6.9426mm" height="6.3498mm" version="1.1" style="shape-rendering:geometricPrecision; text-rendering:geometricPrecision; image-rendering:optimizeQuality; fill-rule:evenodd; clip-rule:evenodd"
viewBox="0 0 694.26 634.98"
 xmlns:xlink="http://www.w3.org/1999/xlink">
 <defs>
  <style type="text/css">
   <![CDATA[
    .fil0 {fill:#FEFEFE;fill-rule:nonzero}
   ]]>
  </style>
 </defs>
 <g id="Camada_x0020_1">
  <metadata id="CorelCorpID_0Corel-Layer"/>
  <g id="_1645396881456">
   <path class="fil0" d="M518.47 508.55l30.56 -82.8 25.23 84.11 -55.79 -1.31zm-70.21 -174.65c-11.33,-11.79 -24.18,-21.82 -38.54,-30.12l99.19 0 -28.45 77.5c-8.2,-17.8 -18.94,-33.61 -32.2,-47.38zm-90.25 205.23c-11.38,4.58 -23.47,6.72 -36.27,6.42 -12.84,-0.31 -24.8,-3 -35.95,-8.11 -11.14,-5.11 -20.83,-11.99 -29.05,-20.63 -8.25,-8.63 -14.67,-18.63 -19.25,-30 -4.57,-11.38 -6.72,-23.47 -6.42,-36.27 0.3,-12.82 3,-24.81 8.11,-35.94 5.11,-11.13 11.99,-20.82 20.63,-29.08 8.63,-8.24 18.64,-14.65 30,-19.22 11.36,-4.58 23.45,-6.72 36.28,-6.42 12.79,0.3 24.78,3 35.92,8.11 11.14,5.11 20.84,11.97 29.08,20.61 8.24,8.64 14.65,18.66 19.23,30.01 4.59,11.37 6.73,23.45 6.42,36.29 -0.31,12.8 -3,24.77 -8.11,35.92 -5.12,11.13 -11.99,20.83 -20.62,29.07 -8.64,8.24 -18.64,14.66 -30,19.24zm-205.7 -20.92c-2.91,4.49 -6.84,8.43 -11.77,11.77 -4.92,3.34 -10.62,5.97 -17.08,7.85 -6.46,1.9 -13.12,2.77 -19.99,2.6l-21.57 -0.51 1.78 -75.95 12.18 0.29 0.94 0.03 8.46 0.18c6.86,0.17 13.48,1.35 19.85,3.54 6.35,2.2 11.91,5.08 16.69,8.66 4.75,3.57 8.49,7.74 11.2,12.52 2.7,4.79 3.99,9.71 3.88,14.73 -0.13,5.05 -1.64,9.81 -4.57,14.29zm-66.05 -164.51l16.61 0.38c11.06,0.26 19.73,2.96 26.01,8.08 6.26,5.11 9.34,9.84 9.24,14.15 -0.11,4.75 -3.41,9.43 -9.91,14.02 -6.5,4.6 -15.07,6.98 -25.73,7.17l-17.23 -0.39 1.01 -43.41zm91.69 -46.03c-1.21,-1.24 -2.44,-2.46 -3.73,-3.66 -9.49,-8.81 -20.58,-15.88 -33.28,-21.18 -12.69,-5.3 -26.25,-8.11 -40.61,-8.46l-13.73 -0.4 0 -129.18 91.35 162.88zm281.51 -166.64l27.19 83.49 -55.8 0 28.61 -83.49zm38.45 -139.75l-75.04 0 -95.15 279.36 -0.01 0c-14.74,-0.34 -28.98,1.08 -42.72,4.26l0 -283.62 -79.26 0 0 201.2 -112.09 -200.26 -93.17 0 0.33 615.08 100.81 2.36c18.13,0.43 35.24,-2.22 51.33,-7.94 16.07,-5.7 30.25,-13.75 42.55,-24.1 3.65,-3.07 7.04,-6.33 10.24,-9.73 13.68,12.9 29.43,23.48 47.27,31.72 20.7,9.56 42.91,14.61 66.64,15.16 23.72,0.56 46.14,-3.44 67.27,-12.02 3.51,-1.42 6.92,-2.97 10.29,-4.58l-6.75 18.41 83.92 1.97 15.05 -41.41 108.29 2.54 12.62 42.05 83.46 1.96 -195.88 -632.41z"/>
   <polygon class="fil0" points="324.88,475.94 343.91,493.53 342.03,467.69 367.65,463.77 346.26,449.13 359.17,426.66 334.4,434.25 324.88,410.15 315.36,434.25 290.59,426.66 303.5,449.13 282.12,463.77 307.74,467.69 305.85,493.53 "/>
  </g>
 </g>
</svg>
