<?xml version="1.0" encoding="UTF-8"?>
<!DOCTYPE svg PUBLIC "-//W3C//DTD SVG 1.1//EN" "http://www.w3.org/Graphics/SVG/1.1/DTD/svg11.dtd">
<!-- Creator: CorelDRAW 2018 (64 Bit Versão de avaliação) -->
<svg xmlns="http://www.w3.org/2000/svg" xml:space="preserve" width="4.4026mm" height="4.4026mm" version="1.1" style="shape-rendering:geometricPrecision; text-rendering:geometricPrecision; image-rendering:optimizeQuality; fill-rule:evenodd; clip-rule:evenodd"
viewBox="0 0 440.26 440.26"
 xmlns:xlink="http://www.w3.org/1999/xlink">
 <defs>
  <style type="text/css">
   <![CDATA[
    .fil0 {fill:#FEFEFE}
   ]]>
  </style>
 </defs>
 <g id="Camada_x0020_1">
  <metadata id="CorelCorpID_0Corel-Layer"/>
  <g id="_1645396940656">
   <g>
    <path class="fil0" d="M439.35 168.5c-0.04,-0.5 -0.14,-1 -0.3,-1.48 -0.1,-0.43 -0.24,-0.85 -0.41,-1.26 -0.21,-0.4 -0.45,-0.77 -0.73,-1.12 -0.29,-0.41 -0.61,-0.79 -0.98,-1.13 -0.11,-0.11 -0.17,-0.25 -0.29,-0.35l-70.31 -54.6 0 -56.59c0,-12.11 -9.82,-21.93 -21.93,-21.93l-79.23 0 -31.72 -24.63c-7.83,-6.12 -18.82,-6.12 -26.66,0l-31.73 24.63 -79.22 0c-12.12,0 -21.94,9.81 -21.94,21.93l0 56.59 -70.28 54.6c-0.13,0.11 -0.18,0.25 -0.29,0.35 -0.37,0.34 -0.69,0.72 -0.98,1.13 -0.28,0.35 -0.52,0.72 -0.73,1.12 -0.17,0.4 -0.31,0.83 -0.41,1.26 -0.15,0.47 -0.26,0.96 -0.3,1.46 0,0.15 -0.09,0.29 -0.09,0.44l0 248.58c0.01,4.65 1.51,9.18 4.29,12.91 0.04,0.06 0.05,0.14 0.1,0.2 0.05,0.06 0.16,0.12 0.24,0.21 4.1,5.4 10.49,8.59 17.28,8.61l394.78 0c6.81,-0.02 13.23,-3.22 17.34,-8.65 0.06,-0.07 0.15,-0.1 0.2,-0.17 0.05,-0.07 0.05,-0.14 0.1,-0.2 2.78,-3.73 4.28,-8.26 4.29,-12.91l0 -248.56c0,-0.15 -0.08,-0.29 -0.09,-0.44zm-223.62 -151.56c2.55,-2.03 6.17,-2.03 8.72,0l16.87 13.09 -42.4 0 16.81 -13.09zm-191.16 407.87l191.16 -148.48c2.56,-2.03 6.17,-2.03 8.72,0l191.22 148.48 -391.1 0zm400.25 -11.39l-191.37 -148.63c-7.84,-6.11 -18.82,-6.11 -26.66,0l-191.37 148.63 0 -233.35 119.8 93.03c3.19,2.48 7.78,1.9 10.26,-1.3 2.48,-3.19 1.89,-7.78 -1.3,-10.26l-121.71 -94.5 51.43 -39.97 0 56.49c0,4.04 3.28,7.31 7.32,7.31 4.03,0 7.31,-3.27 7.31,-7.31l0 -131.59c0,-4.04 3.27,-7.31 7.31,-7.31l248.56 0c4.04,0 7.31,3.27 7.31,7.31l0 131.59c0,4.04 3.27,7.31 7.31,7.31 4.04,0 7.31,-3.27 7.31,-7.31l0 -56.49 51.43 39.97 -121.92 94.67c-2.1,1.59 -3.18,4.18 -2.83,6.79 0.35,2.61 2.07,4.83 4.51,5.82 2.44,0.98 5.22,0.58 7.28,-1.06l120.02 -93.19 0 233.35 0 0z"/>
    <path class="fil0" d="M307.85 176.25l0 -29.24c0,-48.45 -39.28,-87.73 -87.73,-87.73 -48.45,0 -87.73,39.28 -87.73,87.73 0,48.45 39.28,87.73 87.73,87.73 4.04,0 7.31,-3.28 7.31,-7.32 0,-4.03 -3.27,-7.31 -7.31,-7.31 -40.38,0 -73.11,-32.73 -73.11,-73.1 0,-40.38 32.73,-73.11 73.11,-73.11 40.37,0 73.1,32.73 73.1,73.11l0 29.24c0,8.08 -6.54,14.62 -14.62,14.62 -8.07,0 -14.62,-6.54 -14.62,-14.62l0 -29.24c0,-4.04 -3.27,-7.31 -7.31,-7.31 -4.04,0 -7.31,3.27 -7.31,7.31 0,16.15 -13.09,29.24 -29.24,29.24 -16.15,0 -29.24,-13.09 -29.24,-29.24 0,-16.15 13.09,-29.24 29.24,-29.24 4.04,0 7.31,-3.28 7.31,-7.32 0,-4.03 -3.27,-7.31 -7.31,-7.31 -19.63,-0.04 -36.9,12.97 -42.28,31.85 -5.38,18.88 2.44,39.03 19.14,49.35 16.71,10.31 38.23,8.26 52.7,-5.01 1.59,15.46 15.02,26.96 30.55,26.13 15.52,-0.82 27.66,-13.67 27.62,-29.21z"/>
   </g>
  </g>
 </g>
</svg>
