<?xml version="1.0" encoding="UTF-8"?>
<!DOCTYPE svg PUBLIC "-//W3C//DTD SVG 1.1//EN" "http://www.w3.org/Graphics/SVG/1.1/DTD/svg11.dtd">
<!-- Creator: CorelDRAW 2018 (64 Bit Versão de avaliação) -->
<svg xmlns="http://www.w3.org/2000/svg" xml:space="preserve" width="5.4186mm" height="5.4186mm" version="1.1" style="shape-rendering:geometricPrecision; text-rendering:geometricPrecision; image-rendering:optimizeQuality; fill-rule:evenodd; clip-rule:evenodd"
viewBox="0 0 541.86 541.86"
 xmlns:xlink="http://www.w3.org/1999/xlink">
 <defs>
  <style type="text/css">
   <![CDATA[
    .fil0 {fill:#794094}
   ]]>
  </style>
 </defs>
 <g id="Camada_x0020_1">
  <metadata id="CorelCorpID_0Corel-Layer"/>
  <g id="_1645338253680">
   <path class="fil0" d="M345.76 513.27c-2.91,0 -5.7,-1.5 -7.26,-4.1l-20.28 -33.81c-6.11,-10.13 -4.7,-18.81 -2.43,-24.3 8.73,-21.2 45.46,-31.74 52.38,-33.56 2.96,-1.37 19.33,-9.79 19.33,-27.88 0,-0.54 0.05,-1.09 0.16,-1.63 0.57,-2.9 14.46,-70.96 58.72,-70.96 12.95,0 29.16,1.31 39.61,11.5l21.35 21.35c2.34,2.33 3.1,5.81 1.96,8.91 -26.86,72.84 -87.03,130.44 -160.95,154.08 -0.86,0.27 -1.73,0.4 -2.59,0.4l0 0zm58.66 -122.7c-0.59,30.27 -29.03,42.29 -30.26,42.79 -0.37,0.16 -0.76,0.28 -1.15,0.38 -13.72,3.47 -37.14,13 -41.58,23.77 -0.79,1.94 -1.37,4.73 1.29,9.12l16.79 27.99c64.39,-22.66 116.84,-73.12 141.96,-136.64l-17.4 -17.4c-4.67,-4.55 -13.24,-6.61 -27.71,-6.61 -28.2,-0.01 -40.48,50.1 -41.94,56.6l0 0zm0 0z"/>
   <path class="fil0" d="M440.25 143.94c-23.34,0 -42.34,-18.99 -42.34,-42.33 0,-23.35 18.99,-42.34 42.34,-42.34 23.34,0 42.33,18.99 42.33,42.34 0,23.34 -18.99,42.33 -42.33,42.33zm0 -67.74c-14.01,0 -25.4,11.4 -25.4,25.41 0,14 11.39,25.39 25.4,25.39 14,0 25.4,-11.39 25.4,-25.39 0,-14.01 -11.4,-25.41 -25.4,-25.41zm0 0z"/>
   <path class="fil0" d="M440.25 237.07c-2.26,0 -4.43,-0.9 -6.02,-2.51 -3.21,-3.25 -78.65,-80.06 -78.65,-127.88 0,-49.49 37.98,-89.75 84.67,-89.75 46.68,0 84.66,40.26 84.66,89.75 0,47.82 -75.43,124.63 -78.64,127.88 -1.6,1.61 -3.76,2.51 -6.02,2.51l0 0zm0 -203.2c-37.35,0 -67.74,32.66 -67.74,72.82 0,31.03 44.41,84.81 67.74,109.7 23.32,-24.9 67.73,-78.71 67.73,-109.7 0,-40.16 -30.39,-72.82 -67.73,-72.82zm0 0z"/>
   <path class="fil0" d="M101.58 431.8c-23.33,0 -42.33,-18.99 -42.33,-42.33 0,-23.35 18.99,-42.34 42.33,-42.34 23.35,0 42.34,18.99 42.34,42.34 0,23.34 -18.99,42.33 -42.34,42.33zm0 -67.73c-14,0 -25.39,11.39 -25.39,25.4 0,14 11.39,25.4 25.39,25.4 14.01,0 25.41,-11.4 25.41,-25.4 0,-14.01 -11.4,-25.4 -25.41,-25.4zm0 0z"/>
   <path class="fil0" d="M101.58 524.93c-2.26,0 -4.42,-0.9 -6.01,-2.51 -3.21,-3.25 -78.65,-80.05 -78.65,-127.88 0,-49.49 37.98,-89.75 84.66,-89.75 46.69,0 84.67,40.26 84.67,89.75 0,47.82 -75.44,124.63 -78.64,127.88 -1.6,1.61 -3.76,2.51 -6.03,2.51l0 0zm0 -203.19c-37.34,0 -67.73,32.65 -67.73,72.81 0,31.03 44.41,84.81 67.73,109.7 23.33,-24.9 67.74,-78.71 67.74,-109.7 0,-40.16 -30.39,-72.81 -67.74,-72.81zm0 0z"/>
   <path class="fil0" d="M215.37 518.18c-6.01,0 -14.84,-2.45 -29.14,-7.75l-1.41 -0.53c-12.37,-4.45 -24.47,-9.92 -35.96,-16.24 -5.66,-3.1 -11.38,-6.53 -17,-10.22 -1.98,-1.3 -3.32,-3.36 -3.71,-5.71 -0.38,-2.34 0.23,-4.74 1.7,-6.59 25.81,-32.91 39.46,-59.39 39.46,-76.6 0,-26.87 -13.71,-51.47 -35.76,-64.2 -2.08,-1.2 -3.56,-3.23 -4.06,-5.57 -0.5,-2.36 0.03,-4.81 1.45,-6.75 11.04,-15.12 16.64,-32.3 16.64,-51.06 0,-6.59 -2.22,-11.92 -6.79,-16.28 -11.19,-10.68 -36.83,-15.89 -70.44,-14.35 -16.73,0.79 -32.43,-4.34 -44.12,-14.37 -2.39,-2.05 -3.44,-5.26 -2.74,-8.32 15.12,-65.52 56.72,-123.44 114.14,-158.91 5.05,-3.13 12.23,-2.26 25.59,3.05 6.17,2.45 11.77,5.95 16.64,10.41 8.27,7.56 14.54,18.01 18.62,31.07 4.83,15.36 10.88,47.25 2.94,69.28 -0.66,1.83 -1.53,3.56 -2.42,5.3l-0.79 1.54c-5.41,11.06 -4.73,23.61 1.86,34.44 7.05,11.62 19.68,19.04 32.94,19.35 24.08,0.57 57.8,11.33 81.68,59.32 2.02,4.08 3.76,8.18 5.15,12.18 20.49,58.81 -22.61,96.53 -60.65,129.81 -9.35,8.18 -18.18,15.9 -25.85,23.72 -4.97,5.06 -7.89,9.97 -8.65,14.54 -0.61,3.71 0.02,8 0.68,12.54l0.29 1.96c1.14,7.98 1.77,16.11 1.91,24.18 0.07,3.44 -1.51,6.56 -4.29,8.54 -2.08,1.45 -4.56,2.22 -7.91,2.22l0 0zm-66.48 -44.03c2.71,1.63 5.43,3.2 8.12,4.68 10.72,5.89 22.01,11 33.55,15.16l1.56 0.56c9.07,3.37 14.74,5.07 18.24,5.9 -0.28,-4.96 -0.78,-9.94 -1.47,-14.84l-0.27 -1.89c-0.79,-5.36 -1.68,-11.45 -0.64,-17.76 1.34,-8.08 5.81,-16.04 13.28,-23.64 8.12,-8.28 17.19,-16.2 26.79,-24.6 35.66,-31.21 72.55,-63.47 55.81,-111.49 -1.16,-3.33 -2.62,-6.77 -4.33,-10.22 -20.11,-40.42 -47.5,-49.47 -66.92,-49.92 -18.97,-0.45 -36.98,-10.98 -47.01,-27.48 -9.65,-15.87 -10.58,-34.35 -2.59,-50.68l0.95 -1.87c0.55,-1.07 1.13,-2.13 1.54,-3.27 5.33,-14.8 2.45,-40.61 -3.16,-58.47 -3.19,-10.17 -7.87,-18.12 -13.89,-23.63 -3.35,-3.07 -7.22,-5.47 -11.49,-7.17 -6.95,-2.78 -10.35,-3.45 -11.68,-3.61 -51.42,32.2 -89.04,83.75 -104,142.23 7.87,5.19 17.7,7.77 28.3,7.27 27.39,-1.25 64.03,0.98 82.91,19.02 7.97,7.61 12.02,17.21 12.02,28.52 0,19.11 -5.14,37.49 -14.95,53.64 22.82,16.64 36.68,44.2 36.68,73.94 0.01,19.88 -12.55,46.64 -37.35,79.62l0 0zm0 0z"/>
   <path class="fil0" d="M270.92 524.93c-49.57,0 -97.65,-14.34 -139.05,-41.48 -1.98,-1.29 -3.33,-3.36 -3.71,-5.7 -0.38,-2.35 0.23,-4.74 1.69,-6.6 25.83,-32.9 39.48,-59.39 39.48,-76.6 0,-40.15 -30.39,-72.81 -67.73,-72.81 -22.54,0 -43.53,12.01 -56.16,32.13 -1.75,2.76 -4.95,4.28 -8.16,3.9 -3.26,-0.39 -5.99,-2.61 -7.04,-5.71 -8.82,-26.22 -13.29,-53.51 -13.29,-81.13 0,-140.05 113.94,-253.99 253.99,-253.99 40.93,0 80.08,9.5 116.37,28.24 2.28,1.19 3.9,3.34 4.41,5.86 0.51,2.51 -0.17,5.12 -1.8,7.09 -11.21,13.42 -17.38,30.65 -17.38,48.54 0,31.02 44.37,84.77 67.7,109.67 9.73,-10.45 29.45,-32.59 45.14,-56.17 1.69,-2.53 4.59,-3.84 7.64,-3.75 3.03,0.21 5.72,2.04 7.04,4.78 16.51,34.4 24.88,71.32 24.88,109.73 -0.03,140.06 -113.97,254 -254.02,254l0 0zm-122.03 -50.77c36.83,22.16 78.82,33.84 122.03,33.84 130.71,0 237.06,-106.35 237.06,-237.07 0,-30.86 -5.79,-60.71 -17.24,-88.89 -20.73,28.4 -43.39,51.42 -44.47,52.52 -3.18,3.22 -8.86,3.22 -12.04,0 -3.21,-3.25 -78.65,-80.06 -78.65,-127.88 0,-18.22 5.27,-35.93 14.99,-50.85 -31.32,-14.58 -64.79,-21.97 -99.65,-21.97 -130.72,0 -237.07,106.35 -237.07,237.07 0,20.37 2.62,40.57 7.79,60.23 15.73,-16.75 37.18,-26.37 59.94,-26.37 46.69,0 84.67,40.26 84.67,89.75 0,19.87 -12.56,46.62 -37.36,79.62l0 0zm0 0z"/>
   <path class="fil0" d="M203.18 364.07c-1.51,0 -3.04,-0.41 -4.42,-1.24 -3.99,-2.44 -5.24,-7.64 -2.81,-11.64 0.22,-0.35 5.35,-8.71 14.7,-21.54 2.76,-3.77 8.05,-4.61 11.83,-1.85 3.78,2.75 4.61,8.04 1.85,11.81 -8.9,12.21 -13.88,20.32 -13.93,20.4 -1.59,2.62 -4.37,4.06 -7.22,4.06zm0 0z"/>
   <path class="fil0" d="M244.98 308.79c-1.98,0 -3.97,-0.7 -5.58,-2.11 -3.51,-3.08 -3.86,-8.43 -0.78,-11.95 10.18,-11.58 20.7,-22.4 31.25,-32.18 3.43,-3.17 8.79,-2.99 11.97,0.47 3.17,3.43 2.97,8.79 -0.47,11.96 -10.13,9.37 -20.23,19.78 -30.03,30.93 -1.67,1.9 -4,2.88 -6.36,2.88l0 0zm64.75 -59.34c-2.66,0 -5.29,-1.25 -6.93,-3.59 -2.69,-3.83 -1.78,-9.11 2.05,-11.8 13.07,-9.22 26.31,-16.91 39.33,-22.88 4.25,-1.94 9.28,-0.09 11.22,4.16 1.95,4.25 0.09,9.28 -4.16,11.23 -12.08,5.54 -24.41,12.72 -36.64,21.33 -1.48,1.04 -3.19,1.55 -4.87,1.55l0 0zm0 0z"/>
   <path class="fil0" d="M389.56 213.95c-4.03,0 -7.6,-2.88 -8.33,-6.98 -0.81,-4.6 2.25,-8.99 6.86,-9.82 8.92,-1.59 17.93,-2.4 26.76,-2.4 4.67,0 8.47,3.78 8.47,8.46 0,4.68 -3.8,8.47 -8.47,8.47 -7.84,0 -15.84,0.72 -23.78,2.14 -0.51,0.08 -1.01,0.13 -1.51,0.13l0 0zm0 0z"/>
  </g>
 </g>
</svg>
