<?xml version="1.0" encoding="UTF-8"?>
<!DOCTYPE svg PUBLIC "-//W3C//DTD SVG 1.1//EN" "http://www.w3.org/Graphics/SVG/1.1/DTD/svg11.dtd">
<!-- Creator: CorelDRAW 2018 (64 Bit Versão de avaliação) -->
<svg xmlns="http://www.w3.org/2000/svg" xml:space="preserve" width="4.4026mm" height="4.4026mm" version="1.1" style="shape-rendering:geometricPrecision; text-rendering:geometricPrecision; image-rendering:optimizeQuality; fill-rule:evenodd; clip-rule:evenodd"
viewBox="0 0 440.26 440.26"
 xmlns:xlink="http://www.w3.org/1999/xlink">
 <defs>
  <style type="text/css">
   <![CDATA[
    .fil0 {fill:#FEFEFE}
   ]]>
  </style>
 </defs>
 <g id="Camada_x0020_1">
  <metadata id="CorelCorpID_0Corel-Layer"/>
  <path class="fil0" d="M375.87 64.4c-85.87,-85.87 -225.59,-85.87 -311.46,0 -30.13,30.13 -50.73,67.98 -59.6,109.46 -8.63,40.39 -5.8,82.24 8.17,121.01 1.68,4.66 6.82,7.07 11.48,5.4 4.65,-1.68 7.07,-6.82 5.39,-11.48 -12.84,-35.62 -15.44,-74.07 -7.51,-111.19 8.14,-38.09 27.07,-72.85 54.75,-100.53 78.88,-78.88 207.22,-78.88 286.1,0 37.57,37.57 58.6,87.5 59.21,140.61 0.62,53.01 -19.14,103.34 -55.62,141.72 -0.43,0.46 -0.86,0.92 -1.29,1.37 -0.75,0.81 -1.51,1.62 -2.3,2.41 -78.88,78.88 -207.22,78.88 -286.1,0 -0.42,-0.42 -0.83,-0.85 -1.24,-1.27 -0.02,-0.83 -0.04,-1.65 -0.04,-2.45 0,-1.81 0.04,-3.6 0.1,-5.39 0.03,-0.6 0.07,-1.2 0.1,-1.79 0.06,-1.2 0.11,-2.39 0.2,-3.57 0.05,-0.71 0.13,-1.41 0.19,-2.11 0.1,-1.07 0.18,-2.14 0.3,-3.2 0.08,-0.75 0.19,-1.49 0.28,-2.24 0.13,-1.01 0.25,-2.02 0.4,-3.02 0.12,-0.77 0.25,-1.53 0.38,-2.29 0.16,-0.97 0.31,-1.95 0.49,-2.93 0.14,-0.76 0.31,-1.53 0.46,-2.29 0.19,-0.96 0.38,-1.91 0.6,-2.86 0.17,-0.77 0.36,-1.54 0.54,-2.3 0.23,-0.93 0.45,-1.87 0.69,-2.79 0.2,-0.77 0.42,-1.53 0.63,-2.3 0.26,-0.91 0.51,-1.83 0.79,-2.73 0.22,-0.77 0.47,-1.52 0.71,-2.28 0.29,-0.9 0.58,-1.8 0.88,-2.69 0.26,-0.75 0.52,-1.49 0.79,-2.24 0.32,-0.89 0.64,-1.77 0.98,-2.65 0.28,-0.74 0.57,-1.48 0.87,-2.21 0.35,-0.87 0.7,-1.74 1.06,-2.6 0.31,-0.73 0.63,-1.46 0.96,-2.18 0.37,-0.86 0.76,-1.71 1.15,-2.55 0.34,-0.72 0.68,-1.43 1.03,-2.15 0.41,-0.83 0.82,-1.67 1.25,-2.5 0.36,-0.7 0.72,-1.4 1.1,-2.1 0.43,-0.82 0.88,-1.64 1.34,-2.46 0.38,-0.69 0.77,-1.37 1.16,-2.05 0.47,-0.81 0.95,-1.61 1.43,-2.42 0.41,-0.67 0.82,-1.34 1.24,-2 0.5,-0.8 1.01,-1.58 1.52,-2.36 0.43,-0.66 0.87,-1.31 1.31,-1.96 0.52,-0.78 1.06,-1.55 1.61,-2.31 0.45,-0.64 0.9,-1.28 1.36,-1.9 0.56,-0.76 1.13,-1.52 1.7,-2.26 0.48,-0.62 0.95,-1.24 1.43,-1.85 0.59,-0.74 1.19,-1.48 1.79,-2.21 0.49,-0.59 0.99,-1.19 1.49,-1.78 0.62,-0.73 1.25,-1.44 1.88,-2.16 0.51,-0.57 1.02,-1.15 1.54,-1.72 0.65,-0.71 1.31,-1.4 1.97,-2.1 0.53,-0.55 1.06,-1.11 1.6,-1.66 0.68,-0.69 1.37,-1.36 2.06,-2.04 0.55,-0.53 1.09,-1.07 1.64,-1.59 0.71,-0.68 1.44,-1.34 2.17,-2 0.56,-0.5 1.11,-1.01 1.67,-1.51 0.75,-0.66 1.52,-1.3 2.29,-1.95 0.56,-0.47 1.12,-0.95 1.68,-1.42 0.8,-0.65 1.61,-1.28 2.42,-1.91 0.56,-0.44 1.12,-0.89 1.69,-1.32 0.85,-0.65 1.72,-1.27 2.59,-1.9 0.55,-0.4 1.09,-0.81 1.65,-1.2 0.96,-0.67 1.94,-1.32 2.92,-1.97 0.48,-0.32 0.95,-0.66 1.44,-0.97 1.27,-0.83 2.57,-1.63 3.88,-2.43 0.2,-0.12 0.4,-0.25 0.6,-0.37 1.51,-0.91 3.05,-1.79 4.6,-2.64 0.53,-0.29 1.07,-0.57 1.61,-0.85 1.03,-0.55 2.05,-1.11 3.1,-1.63 0.67,-0.34 1.36,-0.66 2.04,-0.98 0.85,-0.42 1.7,-0.83 2.57,-1.23 16.24,15.52 37.92,24.3 60.41,24.3 22.5,0 44.17,-8.79 60.42,-24.31 31.71,14.68 57.67,41.02 71.76,73.04 1.99,4.53 7.28,6.59 11.81,4.6 4.53,-2 6.59,-7.29 4.6,-11.82 -15.42,-35.03 -42.25,-63.02 -76.22,-79.92 9.86,-14.46 15.19,-31.53 15.19,-49.14 0,-48.28 -39.28,-87.56 -87.56,-87.56 -4.95,0 -8.96,4.01 -8.96,8.96 0,4.95 4.01,8.97 8.96,8.97 38.4,0 69.63,31.23 69.63,69.63 0,17.16 -6.38,33.7 -17.96,46.54 0,0 -0.01,0 -0.01,0.01 -13.22,14.66 -32.05,23.08 -51.66,23.08 -19.61,0 -38.44,-8.42 -51.66,-23.08 0,-0.01 -0.01,-0.01 -0.01,-0.01 -11.58,-12.85 -17.96,-29.38 -17.96,-46.54 0,-18.74 7.34,-36.32 20.66,-49.5 3.52,-3.48 3.55,-9.16 0.07,-12.68 -3.49,-3.52 -9.16,-3.54 -12.68,-0.07 -16.75,16.57 -25.98,38.68 -25.98,62.24 0,17.6 5.32,34.66 15.16,49.11 -0.09,0.04 -0.17,0.09 -0.26,0.13 -0.7,0.35 -1.38,0.73 -2.08,1.08 -1.06,0.55 -2.12,1.1 -3.17,1.67 -0.74,0.4 -1.47,0.83 -2.2,1.24 -0.98,0.56 -1.96,1.11 -2.92,1.68 -0.75,0.44 -1.49,0.91 -2.23,1.36 -0.92,0.57 -1.85,1.14 -2.76,1.73 -0.75,0.48 -1.48,0.97 -2.22,1.46 -0.88,0.59 -1.77,1.18 -2.64,1.79 -0.73,0.51 -1.46,1.03 -2.18,1.55 -0.85,0.62 -1.7,1.23 -2.54,1.86 -0.72,0.54 -1.43,1.09 -2.14,1.64 -0.82,0.64 -1.63,1.28 -2.44,1.93 -0.7,0.57 -1.39,1.14 -2.08,1.71 -0.8,0.67 -1.58,1.34 -2.36,2.02 -0.68,0.58 -1.35,1.18 -2.02,1.77 -0.77,0.7 -1.53,1.4 -2.28,2.1 -0.65,0.61 -1.3,1.22 -1.95,1.84 -0.74,0.72 -1.47,1.45 -2.21,2.18 -0.62,0.63 -1.25,1.25 -1.86,1.89 -0.72,0.75 -1.43,1.51 -2.14,2.28 -0.6,0.64 -1.19,1.27 -1.78,1.92 -0.71,0.79 -1.4,1.6 -2.09,2.4 -0.56,0.65 -1.12,1.29 -1.67,1.94 -0.7,0.84 -1.38,1.7 -2.07,2.55 -0.51,0.64 -1.03,1.27 -1.53,1.91 -0.72,0.93 -1.41,1.87 -2.11,2.81 -0.44,0.59 -0.89,1.17 -1.32,1.77 -0.89,1.23 -1.74,2.47 -2.59,3.72 -0.22,0.33 -0.46,0.65 -0.68,0.98 -1.06,1.57 -2.08,3.17 -3.08,4.78 -0.35,0.56 -0.67,1.13 -1.01,1.69 -0.65,1.07 -1.3,2.15 -1.92,3.24 -0.39,0.68 -0.75,1.37 -1.13,2.05 -0.55,0.99 -1.1,1.97 -1.62,2.97 -0.39,0.74 -0.75,1.49 -1.13,2.23 -0.49,0.97 -0.98,1.93 -1.45,2.9 -0.37,0.77 -0.72,1.56 -1.08,2.33 -0.44,0.96 -0.89,1.92 -1.31,2.89 -0.35,0.8 -0.69,1.61 -1.02,2.41 -0.41,0.97 -0.81,1.94 -1.19,2.91 -0.33,0.82 -0.64,1.64 -0.95,2.47 -0.37,0.97 -0.73,1.95 -1.08,2.94 -0.3,0.83 -0.58,1.67 -0.87,2.51 -0.33,0.99 -0.65,1.98 -0.97,2.98 -0.26,0.84 -0.52,1.69 -0.78,2.55 -0.3,1 -0.58,2.01 -0.86,3.02 -0.24,0.86 -0.47,1.71 -0.69,2.57 -0.27,1.03 -0.52,2.05 -0.76,3.09 -0.21,0.86 -0.41,1.71 -0.6,2.58 -0.23,1.04 -0.45,2.09 -0.65,3.14 -0.18,0.86 -0.35,1.73 -0.51,2.59 -0.19,1.07 -0.37,2.15 -0.55,3.23 -0.13,0.85 -0.28,1.7 -0.4,2.56 -0.17,1.11 -0.3,2.23 -0.44,3.35 -0.11,0.83 -0.22,1.66 -0.31,2.5 -0.13,1.17 -0.23,2.35 -0.33,3.53 -0.07,0.79 -0.15,1.58 -0.21,2.37 -0.09,1.32 -0.16,2.64 -0.22,3.97 -0.03,0.66 -0.08,1.31 -0.11,1.97 -0.07,1.99 -0.11,3.99 -0.11,5.99 0,2.17 0.08,4.22 0.16,6.48 0.02,0.52 0.1,1.03 0.2,1.52 0.01,0.04 0.02,0.08 0.03,0.12 0.11,0.49 0.26,0.96 0.45,1.41 0.02,0.05 0.03,0.09 0.05,0.14 0.19,0.44 0.42,0.87 0.68,1.28 0.04,0.05 0.07,0.1 0.1,0.15 0.27,0.4 0.57,0.77 0.89,1.12 0.02,0.03 0.04,0.06 0.06,0.08l1.19 1.26c0.89,0.96 1.78,1.91 2.72,2.84 42.93,42.94 99.33,64.41 155.73,64.41 56.39,0 112.79,-21.47 155.72,-64.41 0.94,-0.93 1.83,-1.88 2.72,-2.84l1.19 -1.26c39.72,-41.78 61.22,-96.57 60.55,-154.28 -0.66,-57.82 -23.56,-112.19 -64.45,-153.08z"/>
 </g>
</svg>
