<?xml version="1.0" encoding="UTF-8"?>
<!DOCTYPE svg PUBLIC "-//W3C//DTD SVG 1.1//EN" "http://www.w3.org/Graphics/SVG/1.1/DTD/svg11.dtd">
<!-- Creator: CorelDRAW 2018 (64 Bit Versão de avaliação) -->
<svg xmlns="http://www.w3.org/2000/svg" xml:space="preserve" width="6.7732mm" height="6.7732mm" version="1.1" style="shape-rendering:geometricPrecision; text-rendering:geometricPrecision; image-rendering:optimizeQuality; fill-rule:evenodd; clip-rule:evenodd"
viewBox="0 0 677.32 677.32"
 xmlns:xlink="http://www.w3.org/1999/xlink">
 <defs>
  <style type="text/css">
   <![CDATA[
    .fil0 {fill:#FEFEFE}
   ]]>
  </style>
 </defs>
 <g id="Camada_x0020_1">
  <metadata id="CorelCorpID_0Corel-Layer"/>
  <g id="_1645402520352">
   <polygon class="fil0" points="225.78,79.02 451.55,79.02 451.55,56.44 225.78,56.44 "/>
   <path class="fil0" d="M558.79 423.33c0,-21.79 -17.72,-39.52 -39.51,-39.52l-22.57 0 0 -158.04 -22.58 0 0 158.04 -28.22 0c-21.79,0 -39.51,17.73 -39.51,39.52 0,11.05 4.59,21.04 11.94,28.22 -7.35,7.18 -11.94,17.16 -11.94,28.22 0,7.61 2.26,14.66 6.01,20.7 -13.51,6.29 -22.95,19.89 -22.95,35.74 0,6.08 1.5,11.78 3.97,16.93l-88.63 0c0,-34.51 -17.3,-65.06 -43.68,-83.43 25.51,-9.72 43.68,-34.43 43.68,-63.32 0,-6.23 -5.05,-11.29 -11.29,-11.29l-90.31 0 0 -112.88 -22.58 0 0 112.88c-18.67,0 -33.87,15.19 -33.87,33.87l0 248.35 22.58 0 0 -248.35c0,-6.22 5.06,-11.29 11.29,-11.29l100.17 0c-5.02,19.45 -22.73,33.87 -43.73,33.87l-33.86 0c-6.24,0 -11.29,5.05 -11.29,11.29 0,6.23 5.05,11.28 11.29,11.28 43.57,0 79.02,35.45 79.02,79.03l0 11.28c0,6.24 5.05,11.29 11.29,11.29l66.05 0c-2.47,5.15 -3.96,10.85 -3.96,16.94 0,21.78 17.72,39.51 39.51,39.51l0 45.15 22.57 0 0 -45.15 45.16 0 5.64 0c21.79,0 39.52,-17.73 39.52,-39.51 0,-6.15 -1.54,-11.9 -4.06,-17.1 21.04,-0.86 37.92,-18.11 37.92,-39.35 0,-7.61 -2.26,-14.66 -6.01,-20.7 13.51,-6.29 22.94,-19.89 22.94,-35.74 0,-11.06 -4.59,-21.04 -11.94,-28.22 7.35,-7.18 11.94,-17.17 11.94,-28.22zm-90.31 186.26l-5.64 0 -56.44 0 -11.29 0c-9.34,0 -16.94,-7.6 -16.94,-16.93 0,-9.34 7.6,-16.94 16.94,-16.94l33.86 0 39.51 0c9.34,0 16.94,7.6 16.94,16.94 0,9.33 -7.6,16.93 -16.94,16.93zm33.87 -56.45l-33.87 0 -39.51 0c-9.33,0 -16.93,-7.59 -16.93,-16.93 0,-9.34 7.6,-16.93 16.93,-16.93l16.94 0 56.44 0c9.34,0 16.93,7.59 16.93,16.93 0,9.34 -7.59,16.93 -16.93,16.93zm16.93 -56.44l-16.93 0 -56.44 0c-9.34,0 -16.94,-7.59 -16.94,-16.93 0,-9.34 7.6,-16.93 16.94,-16.93l73.37 0c9.34,0 16.94,7.59 16.94,16.93 0,9.34 -7.6,16.93 -16.94,16.93zm0 -56.44l-73.37 0c-9.34,0 -16.94,-7.6 -16.94,-16.93 0,-9.34 7.6,-16.94 16.94,-16.94l73.37 0c9.34,0 16.94,7.6 16.94,16.94 0,9.33 -7.6,16.93 -16.94,16.93z"/>
   <path class="fil0" d="M169.3 143.69c-0.23,-3.24 -1.84,-6.23 -4.43,-8.19l-11.75 -8.91c-2.81,-14.23 -15.31,-24.99 -30.24,-24.99 -16.86,0 -30.61,13.7 -30.83,30.63 -9.02,-1.58 -17.64,-5.04 -25.35,-10.24l-3.94 -2.66c-3.45,-2.33 -7.93,-2.58 -11.62,-0.61 -3.68,1.96 -5.98,5.8 -5.98,9.97l0 9.26c0,13.6 4.1,26.58 11.7,37.48l-8.44 8.54c-3.21,3.24 -4.15,8.08 -2.39,12.29 1.75,4.2 5.86,6.93 10.41,6.93l54.71 0c21.81,0 39.85,-16.62 42.28,-37.97l12.64 -12.79c2.28,-2.31 3.46,-5.5 3.23,-8.74zm-34.92 8.67c-2.09,2.11 -3.26,4.97 -3.26,7.94 0,11.2 -8.96,20.32 -19.97,20.32l-28.72 0c1.78,-4.11 1.01,-9.08 -2.33,-12.45 -5.27,-5.34 -9.04,-12.05 -10.94,-19.29 10.77,4.54 22.34,6.9 34.18,6.9 6.24,0 11.29,-5.05 11.29,-11.29l0 -11.85c0,-4.67 3.7,-8.47 8.25,-8.47 4.54,0 8.24,3.8 8.24,8.47 0,3.53 1.66,6.86 4.47,9l5.38 4.07 -6.59 6.65z"/>
   <path class="fil0" d="M372.53 191.91l0 -22.58 -33.87 0c-6.24,0 -11.29,5.05 -11.29,11.29l0 33.86 -22.57 0 0 22.58 22.57 0 0 45.16 22.58 0 0 -45.16 22.58 0 0 -22.58 -22.58 0 0 -22.57 22.58 0z"/>
   <path class="fil0" d="M406.4 124.17l-135.47 0c-18.67,0 -33.87,15.2 -33.87,33.87l0 135.47c0,18.67 15.2,33.86 33.87,33.86l135.47 0c18.67,0 33.86,-15.19 33.86,-33.87l0 -135.46c0,-18.67 -15.19,-33.87 -33.86,-33.87zm11.28 169.33c0,6.23 -5.06,11.29 -11.28,11.29l-135.47 0c-6.23,0 -11.29,-5.06 -11.29,-11.29l0 -135.46c0,-6.22 5.06,-11.29 11.29,-11.29l135.47 0c6.22,0 11.28,5.07 11.28,11.29l0 135.46z"/>
   <path class="fil0" d="M169.33 56.44l-135.46 0c-18.68,0 -33.87,15.19 -33.87,33.87l0 135.46c0,18.68 15.19,33.87 33.87,33.87l135.46 0c18.68,0 33.87,-15.19 33.87,-33.87l0 -135.46c0,-18.68 -15.19,-33.87 -33.87,-33.87zm11.29 169.33c0,6.23 -5.06,11.29 -11.29,11.29l-135.46 0c-6.23,0 -11.29,-5.06 -11.29,-11.29l0 -135.46c0,-6.22 5.06,-11.29 11.29,-11.29l135.46 0c6.23,0 11.29,5.07 11.29,11.29l0 135.46z"/>
   <path class="fil0" d="M643.46 0l-135.47 0c-18.67,0 -33.86,15.19 -33.86,33.86l0 135.47c0,18.67 15.19,33.87 33.86,33.87l135.47 -0.01c18.67,0 33.87,-15.19 33.87,-33.86l0 -135.47c0,-18.67 -15.2,-33.86 -33.87,-33.86zm11.29 169.33c0,6.22 -5.06,11.29 -11.29,11.29l-135.47 0c-6.22,0 -11.28,-5.07 -11.28,-11.29l0 -56.44 23.72 0c5.24,25.73 28.04,45.15 55.3,45.15 27.25,0 50.06,-19.42 55.3,-45.15l23.72 0 0 56.44zm-112.89 -67.73c0,-18.68 15.19,-33.87 33.87,-33.87 18.67,0 33.86,15.19 33.86,33.87 0,18.67 -15.19,33.86 -33.86,33.86 -18.68,0 -33.87,-15.19 -33.87,-33.86zm112.89 -11.29l-23.72 0c-5.25,-25.73 -28.05,-45.16 -55.3,-45.16 -27.26,0 -50.06,19.43 -55.31,45.16l-23.71 0 0 -56.45c0,-6.22 5.06,-11.28 11.29,-11.28l135.46 0c6.23,0 11.29,5.06 11.29,11.28l0 56.45z"/>
   <polygon class="fil0" points="327.37,485.41 349.95,485.41 349.95,462.84 327.37,462.84 "/>
  </g>
 </g>
</svg>
