<?xml version="1.0" encoding="UTF-8"?>
<!DOCTYPE svg PUBLIC "-//W3C//DTD SVG 1.1//EN" "http://www.w3.org/Graphics/SVG/1.1/DTD/svg11.dtd">
<!-- Creator: CorelDRAW 2018 (64 Bit Versão de avaliação) -->
<svg xmlns="http://www.w3.org/2000/svg" xml:space="preserve" width="4.6566mm" height="4.6566mm" version="1.1" style="shape-rendering:geometricPrecision; text-rendering:geometricPrecision; image-rendering:optimizeQuality; fill-rule:evenodd; clip-rule:evenodd"
viewBox="0 0 465.66 465.66"
 xmlns:xlink="http://www.w3.org/1999/xlink">
 <defs>
  <style type="text/css">
   <![CDATA[
    .fil0 {fill:#8C4A99}
   ]]>
  </style>
 </defs>
 <g id="Camada_x0020_1">
  <metadata id="CorelCorpID_0Corel-Layer"/>
  <g id="_1645399507040">
   <path class="fil0" d="M354.13 111.95c-3.96,-4.23 -9.71,-3.61 -12.97,-0.58 -3.26,3.04 -4.28,8.73 -0.34,12.98 0.03,0.03 0.05,0.06 0.08,0.09 1.97,2.08 4.38,2.97 6.69,2.97 2.37,0 4.64,-0.93 6.28,-2.48 3.24,-3.06 4.23,-8.75 0.26,-12.98z"/>
   <path class="fil0" d="M295.29 201.09c17.05,0 30.92,-13.88 30.92,-30.93 0,-17.05 -13.87,-30.92 -30.92,-30.92 -17.05,0 -30.93,13.87 -30.93,30.92 0,1.47 0.11,2.92 0.31,4.33l-79.79 37.48c-5.66,-6.23 -13.82,-10.14 -22.87,-10.14 -17.05,0 -30.93,13.88 -30.93,30.93 0,17.05 13.88,30.92 30.93,30.92 7.57,0 14.52,-2.74 19.9,-7.28l67.23 40.01c-0.34,1.73 -0.53,3.51 -0.53,5.34 0,15.05 12.24,27.29 27.29,27.29 15.04,0 27.28,-12.24 27.28,-27.29 0,-15.04 -12.24,-27.28 -27.28,-27.28 -6.63,0 -12.71,2.37 -17.44,6.32l-66.68 -39.68c0.74,-2.66 1.15,-5.46 1.15,-8.35 0,-1.47 -0.11,-2.92 -0.31,-4.33l79.79 -37.48c5.67,6.22 13.82,10.14 22.88,10.14zm0 -43.66c7.02,0 12.73,5.71 12.73,12.73 0,7.02 -5.71,12.74 -12.73,12.74 -7.02,0 -12.74,-5.72 -12.74,-12.74 0,-7.02 5.72,-12.73 12.74,-12.73zm-133.28 88.06c-7.02,0 -12.73,-5.71 -12.73,-12.73 0,-7.02 5.71,-12.74 12.73,-12.74 7.02,0 12.73,5.72 12.73,12.74 0,7.02 -5.71,12.73 -12.73,12.73zm113.89 47.17c5.02,0 9.09,4.08 9.09,9.09 0,5.02 -4.08,9.1 -9.09,9.1 -5.02,0 -9.09,-4.08 -9.09,-9.1 0,-5.01 4.07,-9.09 9.09,-9.09z"/>
   <path class="fil0" d="M454.49 400.45c-7.22,-7.21 -16.81,-11.18 -27.02,-11.18 -7.09,0 -13.89,1.92 -19.81,5.52l-17.58 -17.58c-3.55,-3.56 -9.31,-3.56 -12.86,0 -3.56,3.55 -3.56,9.31 0,12.86l17.58 17.58c-3.6,5.92 -5.52,12.72 -5.52,19.81 0,10.21 3.97,19.8 11.18,27.02 7.22,7.21 16.81,11.18 27.01,11.18 10.21,0 19.8,-3.97 27.02,-11.18 7.21,-7.22 11.18,-16.81 11.18,-27.02 0,-10.2 -3.97,-19.79 -11.18,-27.01zm-12.87 41.16c-3.78,3.78 -8.8,5.86 -14.15,5.86 -5.34,0 -10.36,-2.08 -14.14,-5.86 -3.78,-3.78 -5.86,-8.8 -5.86,-14.15 0,-5.34 2.08,-10.36 5.86,-14.14 3.78,-3.78 8.8,-5.86 14.14,-5.86 5.35,0 10.37,2.08 14.15,5.86 3.78,3.78 5.86,8.8 5.86,14.14 0,5.35 -2.08,10.37 -5.86,14.15z"/>
   <path class="fil0" d="M99.65 86.78l-28.77 -28.78c3.6,-5.91 5.52,-12.71 5.52,-19.81 0,-10.2 -3.97,-19.79 -11.19,-27.01 -7.21,-7.21 -16.8,-11.19 -27.01,-11.19 -10.2,0 -19.79,3.98 -27.01,11.19 -7.21,7.22 -11.19,16.81 -11.19,27.01 0,10.21 3.98,19.8 11.19,27.01 7.22,7.22 16.81,11.19 27.01,11.19 7.1,0 13.9,-1.92 19.81,-5.52l28.77 28.77c1.78,1.77 4.11,2.66 6.44,2.66 2.32,0 4.65,-0.89 6.43,-2.66 3.55,-3.55 3.55,-9.31 0,-12.86zm-47.3 -34.44c-3.78,3.78 -8.8,5.86 -14.15,5.86 -5.34,0 -10.37,-2.08 -14.14,-5.86 -3.78,-3.78 -5.87,-8.8 -5.87,-14.15 0,-5.34 2.09,-10.37 5.87,-14.15 3.78,-3.77 8.8,-5.86 14.14,-5.86 5.35,0 10.37,2.09 14.15,5.87 3.78,3.77 5.86,8.8 5.86,14.14 0,5.35 -2.08,10.37 -5.86,14.15z"/>
   <path class="fil0" d="M95.86 369.81c-3.55,-3.55 -9.31,-3.55 -12.86,0l-24.99 24.98c-5.91,-3.6 -12.71,-5.52 -19.81,-5.52 -10.2,0 -19.79,3.97 -27.01,11.18 -7.21,7.22 -11.19,16.81 -11.19,27.01 0,10.21 3.98,19.8 11.19,27.02 7.22,7.21 16.81,11.18 27.01,11.18 10.21,0 19.8,-3.97 27.01,-11.18 7.22,-7.22 11.19,-16.81 11.19,-27.02 0,-7.09 -1.92,-13.89 -5.52,-19.81l24.98 -24.98c3.55,-3.55 3.55,-9.31 0,-12.86zm-43.51 71.8c-3.78,3.78 -8.8,5.86 -14.15,5.86 -5.34,0 -10.37,-2.08 -14.14,-5.86 -3.78,-3.78 -5.87,-8.8 -5.87,-14.15 0,-5.34 2.09,-10.36 5.87,-14.14 3.78,-3.78 8.8,-5.86 14.14,-5.86 5.35,0 10.37,2.08 14.15,5.86 3.78,3.78 5.86,8.8 5.86,14.14 0,5.35 -2.08,10.37 -5.86,14.15z"/>
   <path class="fil0" d="M454.49 11.18c-7.22,-7.21 -16.81,-11.19 -27.02,-11.19 -10.2,0 -19.79,3.98 -27.01,11.19 -7.21,7.22 -11.18,16.81 -11.18,27.01 0,7.1 1.92,13.9 5.52,19.81l-32.57 32.58c-3.55,3.55 -3.55,9.31 0,12.86 1.77,1.78 4.1,2.66 6.43,2.66 2.33,0 4.65,-0.88 6.43,-2.66l32.57 -32.57c5.92,3.6 12.72,5.52 19.81,5.52 10.21,0 19.8,-3.97 27.02,-11.19 7.21,-7.21 11.18,-16.8 11.18,-27.01 0,-10.2 -3.97,-19.79 -11.18,-27.01zm-12.87 41.16c-3.78,3.78 -8.8,5.86 -14.15,5.86 -5.34,0 -10.36,-2.08 -14.14,-5.86 -3.78,-3.78 -5.86,-8.8 -5.86,-14.15 0,-5.34 2.08,-10.37 5.86,-14.15 3.78,-3.77 8.8,-5.86 14.14,-5.86 5.35,0 10.37,2.09 14.15,5.87 3.78,3.77 5.86,8.8 5.86,14.14 0,5.35 -2.08,10.37 -5.86,14.15z"/>
   <path class="fil0" d="M379.82 145.4c-2.58,-4.31 -8.16,-5.73 -12.47,-3.16 -4.32,2.58 -5.73,8.16 -3.16,12.47 14.03,23.54 21.45,50.56 21.45,78.12 0,84.25 -68.55,152.8 -152.8,152.8 -19.23,0 -37.98,-3.53 -55.73,-10.49 -3.08,-1.2 -6.57,-0.64 -9.12,1.46l-28.59 23.65 0 -42.14c0,-2.73 -1.23,-5.31 -3.33,-7.04 -35.61,-29.17 -56.03,-72.27 -56.03,-118.24 0,-84.25 68.55,-152.8 152.8,-152.8 26.24,0 52.12,6.76 74.84,19.55 4.38,2.47 9.92,0.92 12.39,-3.46 2.46,-4.38 0.91,-9.92 -3.47,-12.39 -25.43,-14.32 -54.4,-21.89 -83.76,-21.89 -94.28,0 -170.99,76.71 -170.99,170.99 0,49.99 21.58,96.94 59.35,129.51l0 57.23c0,3.53 2.04,6.73 5.23,8.23 1.23,0.58 2.55,0.87 3.87,0.87 2.08,0 4.13,-0.71 5.8,-2.09l39.43 -32.61c18.36,6.54 37.62,9.85 57.31,9.85 94.28,0 170.99,-76.71 170.99,-170.99 0,-30.84 -8.31,-61.07 -24.01,-87.43z"/>
   <path class="fil0" d="M204.92 114.26c-1.52,-4.79 -6.63,-7.45 -11.42,-5.94 -34.28,10.82 -62.87,35.67 -78.44,68.16 -2.18,4.53 -0.26,9.96 4.27,12.13 1.26,0.61 2.6,0.9 3.92,0.9 3.39,0 6.65,-1.91 8.21,-5.17 13.41,-27.97 38.02,-49.36 67.52,-58.67 4.79,-1.51 7.45,-6.62 5.94,-11.41z"/>
   <path class="fil0" d="M232.84 102.29l-0.23 0c-5.02,0 -9.09,4.07 -9.09,9.09 0,5.03 4.07,9.1 9.09,9.1l0.23 0c5.02,0 9.09,-4.07 9.09,-9.09 0,-5.03 -4.07,-9.1 -9.09,-9.1z"/>
  </g>
 </g>
</svg>
