<svg xmlns="http://www.w3.org/2000/svg" xml:space="preserve" width="20.828mm" height="20.828mm" version="1.1" style="shape-rendering:geometricPrecision; text-rendering:geometricPrecision; image-rendering:optimizeQuality; fill-rule:evenodd; clip-rule:evenodd" viewBox="0 0 2082.8 2082.8"
     xmlns:xlink="http://www.w3.org/1999/xlink">
     <defs>
     <style type="text/css">
        <![CDATA[
           .fil0 {fill:#DBDBDB}
        ]]>
        </style>
     </defs>
     <g id="Camada_x0020_1">
      <metadata id="CorelCorpID_0Corel-Layer"/>
      <g id="_2072868331616">
       <circle class="fil0" cx="1041.4" cy="1041.4" r="329.35"/>
       <path class="fil0" d="M95.86 1986.94c240.71,240.7 859.16,12.5 1381.37,-509.71 170,-170.01 308.81,-350.2 410.46,-524.25 -13.8,-4.77 -26.6,-11.66 -38.03,-20.29 -91.01,174.5 -223.41,356.49 -391.95,525.02 -475.47,475.47 -1058.05,663.75 -1277.21,444.59 -219.16,-219.16 -32.5,-803.37 442.97,-1278.83 475.46,-475.47 1059.67,-662.13 1278.83,-442.97 103.69,103.69 116.14,288.74 50.14,505.29 20.4,2.92 39.36,10.29 55.86,21.1 102.18,-261.01 103.12,-486.54 -21.36,-611.03 -240.71,-240.7 -859.16,-12.5 -1381.37,509.71 -522.21,522.21 -750.41,1140.66 -509.71,1381.37z"/>
       <path class="fil0" d="M1986.94 1986.94c-131.05,131.05 -374.09,123.08 -652.59,4.36 11.1,-15.13 19.18,-32.6 23.39,-51.53 233.35,79.85 434.66,72.44 544.56,-37.47 219.16,-219.16 32.5,-803.37 -442.97,-1278.83 -426.01,-426.02 -939.27,-620.11 -1199.08,-498.26 -8.31,-40.2 -34.1,-74.01 -69.07,-93.13 283.83,-121.6 822.79,110.23 1286.05,573.49 522.21,522.21 750.41,1140.66 509.71,1381.37zm-1874.18 -1696.14c-93.94,267.65 102.49,757.07 512.33,1166.91 156.03,156.03 323.59,281.13 486.06,371.05 -8.01,11.04 -14.42,23.29 -18.9,36.45 -162.3,-99.28 -328.88,-230.18 -486.68,-387.98 -439.02,-439.02 -670.19,-946.03 -589.7,-1239.45 22.9,29.54 57.52,49.54 96.89,53.02z"/>
       <circle class="fil0" cx="1222.97" cy="1909.72" r="111.37"/>
       <circle class="fil0" cx="1932.76" cy="822.45" r="126.7"/>
       <circle class="fil0" cx="125.06" cy="153.29" r="110.45"/>
      </g>
     </g>
</svg>