<svg xmlns="http://www.w3.org/2000/svg" xml:space="preserve" width="22.2672mm" height="4.9106mm" version="1.1" style="shape-rendering:geometricPrecision; text-rendering:geometricPrecision; image-rendering:optimizeQuality; fill-rule:evenodd; clip-rule:evenodd"
viewBox="0 0 2226.72 491.06"
 xmlns:xlink="http://www.w3.org/1999/xlink">
 <defs>
  <style type="text/css">
   <![CDATA[
    .fil0 {fill:#FEFEFE}
    .fil1 {fill:#FEFEFE;fill-rule:nonzero}
   ]]>
  </style>
 </defs>
 <g id="Camada_x0020_1">
  <metadata id="CorelCorpID_0Corel-Layer"/>
  <g id="_2073080783776">
   <g>
    <circle class="fil0" cx="244.5" cy="245.53" r="77.86"/>
    <path class="fil0" d="M20.96 469.07c56.91,56.9 203.12,2.95 326.57,-120.51 40.2,-40.19 73.01,-82.79 97.04,-123.94 -3.26,-1.12 -6.29,-2.75 -8.99,-4.79 -21.52,41.25 -52.82,84.28 -92.66,124.12 -112.41,112.41 -250.14,156.92 -301.95,105.11 -51.81,-51.82 -7.68,-189.93 104.72,-302.34 112.41,-112.4 250.53,-156.53 302.34,-104.72 24.51,24.51 27.45,68.26 11.85,119.46 4.82,0.69 9.3,2.43 13.21,4.99 24.15,-61.71 24.38,-115.03 -5.05,-144.46 -56.91,-56.9 -203.12,-2.95 -326.58,120.5 -123.45,123.46 -177.4,269.67 -120.5,326.58z"/>
    <path class="fil0" d="M468.04 469.07c-30.99,30.98 -88.44,29.09 -154.28,1.03 2.62,-3.58 4.53,-7.71 5.53,-12.19 55.16,18.88 102.75,17.13 128.74,-8.85 51.81,-51.82 7.68,-189.93 -104.73,-302.34 -100.71,-100.71 -222.05,-146.6 -283.47,-117.79 -1.97,-9.5 -8.07,-17.5 -16.33,-22.02 67.1,-28.74 194.51,26.06 304.03,135.58 123.46,123.46 177.41,269.67 120.51,326.58zm-443.08 -400.99c-22.21,63.27 24.23,178.98 121.12,275.87 36.89,36.89 76.5,66.46 114.91,87.72 -1.89,2.61 -3.41,5.51 -4.47,8.62 -38.37,-23.47 -77.75,-54.42 -115.06,-91.73 -103.78,-103.78 -158.44,-223.65 -139.41,-293.02 5.42,6.99 13.6,11.72 22.91,12.54z"/>
    <circle class="fil0" cx="287.43" cy="450.81" r="26.33"/>
    <circle class="fil0" cx="455.23" cy="193.77" r="29.95"/>
    <circle class="fil0" cx="27.86" cy="35.57" r="26.11"/>
   </g>
   <path class="fil1" d="M615.87 187.23l0 -44.36 32.32 0 0 -126.75 44.36 0 0 126.75 83.02 0 0 44.36 -83.02 0 0 272.51 -44.36 0 0 -272.51 -32.32 0zm105.13 113.44c0,-24.08 4.54,-46.69 13.63,-67.81 9.08,-21.13 21.54,-39.61 37.39,-55.46 15.84,-15.84 34.33,-28.3 55.45,-37.39 21.13,-9.08 43.73,-13.62 67.81,-13.62 24.08,0 46.69,4.54 67.81,13.62 21.13,9.09 39.61,21.55 55.46,37.39 15.84,15.85 28.3,34.33 37.39,55.46 9.08,21.12 13.62,43.73 13.62,67.81 0,24.08 -4.54,46.69 -13.62,67.81 -9.09,21.13 -21.55,39.61 -37.39,55.45 -15.85,15.85 -34.33,28.31 -55.46,37.39 -21.12,9.09 -43.73,13.63 -67.81,13.63 -24.08,0 -46.68,-4.54 -67.81,-13.63 -21.12,-9.08 -39.61,-21.54 -55.45,-37.39 -15.85,-15.84 -28.31,-34.32 -37.39,-55.45 -9.09,-21.12 -13.63,-43.73 -13.63,-67.81zm44.36 0c0,17.74 3.38,34.54 10.14,50.38 6.76,15.85 16.06,29.68 27.89,41.51 11.83,11.83 25.67,21.13 41.51,27.89 15.84,6.76 32.64,10.14 50.38,10.14 17.75,0 34.54,-3.38 50.39,-10.14 15.84,-6.76 29.68,-16.06 41.51,-27.89 11.83,-11.83 21.12,-25.66 27.88,-41.51 6.76,-15.84 10.14,-32.64 10.14,-50.38 0,-17.75 -3.38,-34.54 -10.14,-50.38 -6.76,-15.85 -16.05,-29.68 -27.88,-41.51 -11.83,-11.83 -25.67,-21.13 -41.51,-27.89 -15.85,-6.76 -32.64,-10.14 -50.39,-10.14 -17.74,0 -34.54,3.38 -50.38,10.14 -15.84,6.76 -29.68,16.06 -41.51,27.89 -11.83,11.83 -21.13,25.66 -27.89,41.51 -6.76,15.84 -10.14,32.63 -10.14,50.38zm291.46 0c0,-24.08 4.54,-46.69 13.63,-67.81 9.08,-21.13 21.54,-39.61 37.39,-55.46 15.84,-15.84 34.33,-28.3 55.45,-37.39 21.13,-9.08 43.73,-13.62 67.81,-13.62 24.08,0 46.69,4.54 67.81,13.62 21.13,9.09 39.61,21.55 55.46,37.39 15.84,15.85 28.3,34.33 37.39,55.46 9.08,21.12 13.62,43.73 13.62,67.81 0,24.08 -4.54,46.69 -13.62,67.81 -9.09,21.13 -21.55,39.61 -37.39,55.45 -15.85,15.85 -34.33,28.31 -55.46,37.39 -21.12,9.09 -43.73,13.63 -67.81,13.63 -24.08,0 -46.68,-4.54 -67.81,-13.63 -21.12,-9.08 -39.61,-21.54 -55.45,-37.39 -15.85,-15.84 -28.31,-34.32 -37.39,-55.45 -9.09,-21.12 -13.63,-43.73 -13.63,-67.81zm44.36 0c0,17.74 3.38,34.54 10.14,50.38 6.76,15.85 16.06,29.68 27.89,41.51 11.83,11.83 25.67,21.13 41.51,27.89 15.84,6.76 32.64,10.14 50.38,10.14 17.75,0 34.54,-3.38 50.39,-10.14 15.84,-6.76 29.68,-16.06 41.51,-27.89 11.83,-11.83 21.12,-25.66 27.88,-41.51 6.76,-15.84 10.14,-32.64 10.14,-50.38 0,-17.75 -3.38,-34.54 -10.14,-50.38 -6.76,-15.85 -16.05,-29.68 -27.88,-41.51 -11.83,-11.83 -25.67,-21.13 -41.51,-27.89 -15.85,-6.76 -32.64,-10.14 -50.39,-10.14 -17.74,0 -34.54,3.38 -50.38,10.14 -15.84,6.76 -29.68,16.06 -41.51,27.89 -11.83,11.83 -21.13,25.66 -27.89,41.51 -6.76,15.84 -10.14,32.63 -10.14,50.38zm521.51 159.07l-57.04 0 -120.41 -159.7 0.64 159.7 -44.37 0 -0.63 -443.62 44.36 0 0 231.31 117.88 -104.56 52.6 0 -136.26 128.65 143.23 188.22zm-72.31 -159.07c0,-24.08 4.54,-46.69 13.63,-67.81 9.08,-21.13 21.54,-39.61 37.39,-55.46 15.84,-15.84 34.33,-28.3 55.45,-37.39 21.13,-9.08 43.73,-13.62 67.81,-13.62 24.08,0 46.69,4.54 67.81,13.62 21.13,9.09 39.61,21.55 55.46,37.39 15.84,15.85 28.3,34.33 37.39,55.46 9.08,21.12 13.62,43.73 13.62,67.81l0 159.07 -44.36 0 0 -42.46c-2.11,2.11 -4.44,4.44 -6.97,6.97 -15.63,15.63 -34.01,27.99 -55.14,37.07 -21.12,9.09 -43.73,13.63 -67.81,13.63 -24.08,0 -46.68,-4.54 -67.81,-13.63 -21.12,-9.08 -39.61,-21.54 -55.45,-37.39 -15.85,-15.84 -28.31,-34.32 -37.39,-55.45 -9.09,-21.12 -13.63,-43.73 -13.63,-67.81zm44.36 0c0,17.74 3.38,34.54 10.14,50.38 6.76,15.85 16.06,29.68 27.89,41.51 11.83,11.83 25.67,21.13 41.51,27.89 15.84,6.76 32.64,10.14 50.38,10.14 17.75,0 34.54,-3.38 50.39,-10.14 15.84,-6.76 29.68,-16.06 41.51,-27.89 11.83,-11.83 21.12,-25.56 27.88,-41.19 5.92,-14.37 9.3,-29.36 10.14,-45l0 -5.7c0,-17.75 -3.38,-34.54 -10.14,-50.38 -6.76,-15.85 -16.05,-29.68 -27.88,-41.51 -11.83,-11.83 -25.67,-21.13 -41.51,-27.89 -15.85,-6.76 -32.64,-10.14 -50.39,-10.14 -17.74,0 -34.54,3.38 -50.38,10.14 -15.84,6.76 -29.68,16.06 -41.51,27.89 -11.83,11.83 -21.13,25.66 -27.89,41.51 -6.76,15.84 -10.14,32.63 -10.14,50.38zm633.69 0c0,24.08 -4.54,46.69 -13.62,67.81 -9.09,21.13 -21.55,39.61 -37.39,55.45 -15.85,15.85 -34.33,28.31 -55.46,37.39 -21.12,9.09 -43.73,13.63 -67.81,13.63 -24.08,0 -46.68,-4.54 -67.81,-13.63 -21.12,-9.08 -39.61,-21.54 -55.45,-37.39 -15.85,-15.84 -28.31,-34.32 -37.39,-55.45 -9.09,-21.12 -13.63,-43.73 -13.63,-67.81 0,-24.08 4.54,-46.69 13.63,-67.81 9.08,-21.13 21.54,-39.61 37.39,-55.46 15.84,-15.84 34.33,-28.3 55.45,-37.39 21.13,-9.08 43.73,-13.62 67.81,-13.62 24.08,0 48.8,6.44 74.15,19.33 25.35,12.88 43.94,28.83 55.77,47.85l0 -177.45 44.36 0 0 284.55zm-44.36 0c0,-17.75 -3.38,-34.54 -10.14,-50.38 -6.76,-15.85 -16.05,-29.68 -27.88,-41.51 -11.83,-11.83 -25.67,-21.13 -41.51,-27.89 -15.85,-6.76 -32.64,-10.14 -50.39,-10.14 -17.74,0 -34.54,3.38 -50.38,10.14 -15.84,6.76 -29.68,16.06 -41.51,27.89 -11.83,11.83 -21.13,25.66 -27.89,41.51 -6.76,15.84 -10.14,32.63 -10.14,50.38 0,17.74 3.38,34.54 10.14,50.38 6.76,15.85 16.06,29.68 27.89,41.51 11.83,11.83 25.67,21.13 41.51,27.89 15.84,6.76 32.64,10.14 50.38,10.14 17.75,0 34.54,-3.38 50.39,-10.14 15.84,-6.76 29.68,-16.06 41.51,-27.89 11.83,-11.83 21.12,-25.66 27.88,-41.51 6.76,-15.84 10.14,-32.64 10.14,-50.38z"/>
  </g>
 </g>
</svg>