<?xml version="1.0" encoding="UTF-8"?>
<!DOCTYPE svg PUBLIC "-//W3C//DTD SVG 1.1//EN" "http://www.w3.org/Graphics/SVG/1.1/DTD/svg11.dtd">
<!-- Creator: CorelDRAW 2018 (64 Bit Versão de avaliação) -->
<svg xmlns="http://www.w3.org/2000/svg" xml:space="preserve" width="8.4666mm" height="8.4666mm" version="1.1" style="shape-rendering:geometricPrecision; text-rendering:geometricPrecision; image-rendering:optimizeQuality; fill-rule:evenodd; clip-rule:evenodd"
viewBox="0 0 846.66 846.66"
 xmlns:xlink="http://www.w3.org/1999/xlink">
 <defs>
  <style type="text/css">
   <![CDATA[
    .fil0 {fill:#4B1C61}
   ]]>
  </style>
 </defs>
 <g id="Camada_x0020_1">
  <metadata id="CorelCorpID_0Corel-Layer"/>
  <g id="_1645399071200">
   <g>
    <path class="fil0" d="M763.98 72.76l-78.82 0 0 -23.16c0,-27.35 -22.26,-49.61 -49.61,-49.61 -27.36,0 -49.61,22.26 -49.61,49.61l0 23.16 -277.82 0 0 -23.16c0,-27.35 -22.25,-49.61 -49.6,-49.61 -27.36,0 -49.61,22.26 -49.61,49.61l0 23.77c-1.41,-0.39 -2.88,-0.61 -4.41,-0.61l-65.89 0c-45.59,0 -82.68,37.09 -82.68,82.68l0 281.67c0,9.13 7.4,16.54 16.53,16.54 9.13,0 16.54,-7.41 16.54,-16.54l0 -194.03 596.16 0c9.13,0 16.53,-7.4 16.53,-16.53 0,-9.14 -7.4,-16.54 -16.53,-16.54l-596.16 0 0 -54.57c0,-27.36 22.25,-49.61 49.61,-49.61l65.89 0c1.53,0 3,-0.23 4.41,-0.61l0 21.28c0,27.35 22.25,49.61 49.61,49.61 27.35,0 49.6,-22.26 49.6,-49.61l0 -20.67 277.82 0 0 20.67c0,27.35 22.25,49.61 49.61,49.61 27.35,0 49.61,-22.26 49.61,-49.61l0 -20.67 78.82 0c27.36,0 49.61,22.25 49.61,49.61l0 628.38c0,16.41 -13.35,29.77 -29.77,29.77 -16.42,0 -29.78,-13.36 -29.78,-29.77l0 -42.78c0,-9.13 -7.41,-16.54 -16.54,-16.54l-192.35 0c-9.13,0 -16.54,7.41 -16.54,16.54 0,9.13 7.41,16.53 16.54,16.53l175.82 0 0 26.25c0,10.76 2.72,20.9 7.51,29.77l-665.65 0c-16.41,0 -29.76,-13.35 -29.76,-29.76l0 -26.26 370.13 0c9.13,0 16.53,-7.4 16.53,-16.53 0,-9.13 -7.4,-16.54 -16.53,-16.54l-165.23 0c28.9,-24.88 47.25,-61.69 47.25,-102.73 0,-74.77 -60.83,-135.6 -135.6,-135.6 -74.77,0 -135.6,60.83 -135.6,135.6 0,41.04 18.34,77.85 47.24,102.73l-44.73 0c-9.13,0 -16.54,7.41 -16.54,16.54l0 42.79c0,34.65 28.19,62.84 62.84,62.84l720.99 0c34.65,0 62.85,-28.2 62.85,-62.85l0 -628.38c0,-45.59 -37.1,-82.68 -82.69,-82.68zm-488.93 53.74c0,9.12 -7.42,16.54 -16.53,16.54 -9.12,0 -16.54,-7.42 -16.54,-16.54l0 -76.9c0,-9.11 7.42,-16.53 16.54,-16.53 9.11,0 16.53,7.42 16.53,16.53l0 76.9zm377.04 0c0,9.12 -7.42,16.54 -16.54,16.54 -9.12,0 -16.54,-7.42 -16.54,-16.54l0 -76.9c0,-9.11 7.42,-16.53 16.54,-16.53 9.12,0 16.53,7.42 16.53,16.53l0.01 76.9zm-605 495.27c0,-56.54 45.99,-102.53 102.53,-102.53 56.53,0 102.52,45.99 102.52,102.53 0,56.53 -45.99,102.52 -102.52,102.52 -56.54,0 -102.53,-45.99 -102.53,-102.52z"/>
   </g>
   <g>
    <path class="fil0" d="M774.42 214.85c-3.08,-3.07 -7.35,-4.84 -11.69,-4.84 -4.36,0 -8.62,1.77 -11.7,4.84 -3.07,3.08 -4.84,7.35 -4.84,11.7 0,4.34 1.77,8.61 4.84,11.69 3.08,3.07 7.34,4.84 11.7,4.84 4.34,0 8.61,-1.77 11.69,-4.84 3.07,-3.08 4.84,-7.35 4.84,-11.69 0,-4.35 -1.77,-8.62 -4.84,-11.7z"/>
   </g>
   <g>
    <path class="fil0" d="M493.86 729.34c-3.08,-3.08 -7.34,-4.83 -11.69,-4.83 -4.35,0 -8.62,1.75 -11.7,4.83 -3.07,3.09 -4.84,7.34 -4.84,11.69 0,4.37 1.77,8.62 4.84,11.71 3.08,3.07 7.35,4.83 11.7,4.83 4.35,0 8.61,-1.76 11.69,-4.83 3.07,-3.1 4.84,-7.36 4.84,-11.71 0,-4.35 -1.77,-8.6 -4.84,-11.69z"/>
   </g>
   <g>
    <path class="fil0" d="M374.13 502.71c-34.65,0 -62.84,28.19 -62.84,62.83 0,34.65 28.19,62.84 62.84,62.84 34.64,0 62.83,-28.19 62.83,-62.84 0,-34.64 -28.19,-62.83 -62.83,-62.83zm0 92.6c-16.42,0 -29.77,-13.35 -29.77,-29.77 0,-16.41 13.35,-29.76 29.77,-29.76 16.41,0 29.76,13.35 29.76,29.76 0,16.42 -13.35,29.77 -29.76,29.77z"/>
   </g>
   <g>
    <path class="fil0" d="M528.47 502.71c-34.65,0 -62.84,28.19 -62.84,62.83 0,34.65 28.19,62.84 62.84,62.84 34.64,0 62.83,-28.19 62.83,-62.84 0,-34.64 -28.18,-62.83 -62.83,-62.83zm0 92.6c-16.42,0 -29.77,-13.35 -29.77,-29.77 0,-16.41 13.35,-29.76 29.77,-29.76 16.41,0 29.76,13.35 29.76,29.76 0,16.42 -13.35,29.77 -29.76,29.77z"/>
   </g>
   <g>
    <path class="fil0" d="M682.81 502.71c-34.65,0 -62.84,28.19 -62.84,62.83 0,34.65 28.19,62.84 62.84,62.84 34.65,0 62.84,-28.19 62.84,-62.84 0,-34.64 -28.19,-62.83 -62.84,-62.83zm0 92.6c-16.41,0 -29.77,-13.35 -29.77,-29.77 0,-16.41 13.35,-29.76 29.77,-29.76 16.41,0 29.76,13.35 29.76,29.76 0,16.42 -13.35,29.77 -29.76,29.77z"/>
   </g>
   <g>
    <path class="fil0" d="M219.79 330.73c-34.65,0 -62.84,28.19 -62.84,62.83 0,34.65 28.19,62.84 62.84,62.84 34.64,0 62.83,-28.19 62.83,-62.84 0,-34.64 -28.19,-62.83 -62.83,-62.83zm0 92.6c-16.42,0 -29.77,-13.35 -29.77,-29.77 0,-16.41 13.35,-29.76 29.77,-29.76 16.41,0 29.76,13.35 29.76,29.76 0,16.42 -13.35,29.77 -29.76,29.77z"/>
   </g>
   <g>
    <path class="fil0" d="M528.47 330.73c-34.65,0 -62.84,28.19 -62.84,62.83 0,34.65 28.19,62.84 62.84,62.84 34.64,0 62.83,-28.19 62.83,-62.84 0,-34.64 -28.18,-62.83 -62.83,-62.83zm0 92.6c-16.42,0 -29.77,-13.35 -29.77,-29.77 0,-16.41 13.35,-29.76 29.77,-29.76 16.41,0 29.76,13.35 29.76,29.76 0,16.42 -13.35,29.77 -29.76,29.77z"/>
   </g>
   <g>
    <path class="fil0" d="M682.81 330.73c-34.65,0 -62.84,28.19 -62.84,62.83 0,34.65 28.19,62.84 62.84,62.84 34.65,0 62.84,-28.19 62.84,-62.84 0,-34.64 -28.19,-62.83 -62.84,-62.83zm0 92.6c-16.41,0 -29.77,-13.35 -29.77,-29.77 0,-16.41 13.35,-29.76 29.77,-29.76 16.41,0 29.76,13.35 29.76,29.76 0,16.42 -13.35,29.77 -29.76,29.77z"/>
   </g>
   <g>
    <path class="fil0" d="M374.13 330.73c-34.65,0 -62.84,28.19 -62.84,62.83 0,34.65 28.19,62.84 62.84,62.84 34.64,0 62.83,-28.19 62.83,-62.84 0,-34.64 -28.19,-62.83 -62.83,-62.83zm0 92.6c-16.42,0 -29.77,-13.35 -29.77,-29.77 0,-16.41 13.35,-29.76 29.77,-29.76 16.41,0 29.76,13.35 29.76,29.76 0,16.42 -13.35,29.77 -29.76,29.77z"/>
   </g>
   <g>
    <path class="fil0" d="M208.53 581.47c-6.46,-6.46 -16.93,-6.46 -23.39,0l-53.85 53.85 -18.41 -18.4c-6.46,-6.46 -16.92,-6.46 -23.38,0 -6.46,6.45 -6.46,16.93 0,23.38l30.09 30.1c3.11,3.1 7.31,4.84 11.7,4.84 4.38,0 8.59,-1.74 11.69,-4.84l65.55 -65.55c6.45,-6.45 6.45,-16.93 0,-23.38z"/>
   </g>
  </g>
 </g>
</svg>
