<?xml version="1.0" encoding="UTF-8"?>
<!DOCTYPE svg PUBLIC "-//W3C//DTD SVG 1.1//EN" "http://www.w3.org/Graphics/SVG/1.1/DTD/svg11.dtd">
<!-- Creator: CorelDRAW 2018 (64 Bit Versão de avaliação) -->
<svg xmlns="http://www.w3.org/2000/svg" xml:space="preserve" width="4.4026mm" height="4.4026mm" version="1.1" style="shape-rendering:geometricPrecision; text-rendering:geometricPrecision; image-rendering:optimizeQuality; fill-rule:evenodd; clip-rule:evenodd"
viewBox="0 0 440.26 440.26"
 xmlns:xlink="http://www.w3.org/1999/xlink">
 <defs>
  <style type="text/css">
   <![CDATA[
    .fil1 {fill:#FEFEFE}
    .fil0 {fill:#FEFEFE;fill-rule:nonzero}
   ]]>
  </style>
 </defs>
 <g id="Camada_x0020_1">
  <metadata id="CorelCorpID_0Corel-Layer"/>
  <g id="_1645399261632">
   <polygon class="fil0" points="221.07,282.91 271.38,329.4 266.39,261.09 334.11,250.74 277.58,212.04 311.72,152.64 246.23,172.71 221.07,108.99 195.91,172.71 130.42,152.64 164.55,212.04 108.02,250.74 175.75,261.09 170.77,329.4 "/>
   <path class="fil1" d="M220.13 439.01c120.88,0 218.88,-98 218.88,-218.88 0,-120.88 -98,-218.88 -218.88,-218.88 -120.88,0 -218.88,98 -218.88,218.88 0,120.88 98,218.88 218.88,218.88zm0 -38.1c99.85,0 180.78,-80.93 180.78,-180.78 0,-99.85 -80.93,-180.78 -180.78,-180.78 -99.85,0 -180.78,80.93 -180.78,180.78 0,99.85 80.93,180.78 180.78,180.78z"/>
  </g>
 </g>
</svg>
