<?xml version="1.0" encoding="UTF-8"?>
<!DOCTYPE svg PUBLIC "-//W3C//DTD SVG 1.1//EN" "http://www.w3.org/Graphics/SVG/1.1/DTD/svg11.dtd">
<!-- Creator: CorelDRAW 2018 (64 Bit Versão de avaliação) -->
<svg xmlns="http://www.w3.org/2000/svg" xml:space="preserve" width="4.2332mm" height="4.2332mm" version="1.1" style="shape-rendering:geometricPrecision; text-rendering:geometricPrecision; image-rendering:optimizeQuality; fill-rule:evenodd; clip-rule:evenodd"
viewBox="0 0 423.32 423.32"
 xmlns:xlink="http://www.w3.org/1999/xlink">
 <defs>
  <style type="text/css">
   <![CDATA[
    .fil0 {fill:#AD72AC}
   ]]>
  </style>
 </defs>
 <g id="Camada_x0020_1">
  <metadata id="CorelCorpID_0Corel-Layer"/>
  <g id="_1645402549696">
   <g>
    <path class="fil0" d="M381.98 36.37l-39.41 0 0 -11.57c0,-13.68 -11.13,-24.81 -24.8,-24.81 -13.68,0 -24.81,11.13 -24.81,24.81l0 11.57 -138.91 0 0 -11.57c0,-13.68 -11.12,-24.81 -24.8,-24.81 -13.68,0 -24.81,11.13 -24.81,24.81l0 11.88c-0.7,-0.2 -1.44,-0.31 -2.2,-0.31l-32.94 0c-22.8,0 -41.35,18.55 -41.35,41.34l0 140.84c0,4.57 3.71,8.27 8.27,8.27 4.57,0 8.27,-3.71 8.27,-8.27l0 -97.02 298.08 0c4.57,0 8.27,-3.7 8.27,-8.26 0,-4.57 -3.7,-8.27 -8.27,-8.27l-298.08 0 0 -27.29c0,-13.67 11.13,-24.8 24.81,-24.8l32.94 0c0.76,0 1.5,-0.11 2.2,-0.31l0 10.64c0,13.68 11.13,24.81 24.81,24.81 13.68,0 24.8,-11.13 24.8,-24.81l0 -10.33 138.91 0 0 10.33c0,13.68 11.13,24.81 24.81,24.81 13.67,0 24.8,-11.13 24.8,-24.81l0 -10.33 39.41 0c13.68,0 24.81,11.13 24.81,24.8l0 314.19c0,8.21 -6.68,14.89 -14.89,14.89 -8.21,0 -14.89,-6.68 -14.89,-14.89l0 -21.39c0,-4.56 -3.7,-8.27 -8.27,-8.27l-96.17 0c-4.57,0 -8.27,3.71 -8.27,8.27 0,4.57 3.7,8.27 8.27,8.27l87.91 0 0 13.12c0,5.38 1.36,10.46 3.75,14.89l-332.82 0c-8.21,0 -14.89,-6.68 -14.89,-14.88l0 -13.13 185.07 0c4.57,0 8.27,-3.7 8.27,-8.27 0,-4.56 -3.7,-8.27 -8.27,-8.27l-82.61 0c14.44,-12.44 23.62,-30.84 23.62,-51.36 0,-37.39 -30.42,-67.8 -67.8,-67.8 -37.39,0 -67.8,30.41 -67.8,67.8 0,20.52 9.17,38.92 23.62,51.36l-22.36 0c-4.57,0 -8.27,3.71 -8.27,8.27l0 21.4c0,17.32 14.09,31.42 31.42,31.42l360.49 0c17.33,0 31.43,-14.1 31.43,-31.43l0 -314.19c0,-22.79 -18.55,-41.34 -41.35,-41.34zm-244.46 26.87c0,4.56 -3.71,8.27 -8.27,8.27 -4.56,0 -8.27,-3.71 -8.27,-8.27l0 -38.44c0,-4.56 3.71,-8.27 8.27,-8.27 4.56,0 8.27,3.71 8.27,8.27l0 38.44zm188.51 0c0,4.56 -3.7,8.27 -8.26,8.27 -4.56,0 -8.27,-3.71 -8.27,-8.27l0 -38.44c0,-4.56 3.71,-8.27 8.27,-8.27 4.56,0 8.26,3.71 8.26,8.27l0 38.44zm-302.49 247.64c0,-28.27 22.99,-51.27 51.26,-51.27 28.27,0 51.26,23 51.26,51.27 0,28.26 -22.99,51.26 -51.26,51.26 -28.27,0 -51.26,-23 -51.26,-51.26z"/>
   </g>
   <g>
    <path class="fil0" d="M387.2 107.42c-1.54,-1.54 -3.67,-2.42 -5.84,-2.42 -2.18,0 -4.31,0.88 -5.85,2.42 -1.54,1.54 -2.42,3.67 -2.42,5.85 0,2.17 0.88,4.3 2.42,5.84 1.54,1.54 3.67,2.43 5.85,2.43 2.17,0 4.3,-0.89 5.84,-2.43 1.54,-1.54 2.42,-3.67 2.42,-5.84 0,-2.18 -0.88,-4.31 -2.42,-5.85z"/>
   </g>
   <g>
    <path class="fil0" d="M246.92 364.66c-1.54,-1.54 -3.67,-2.41 -5.84,-2.41 -2.18,0 -4.31,0.87 -5.85,2.41 -1.54,1.55 -2.42,3.67 -2.42,5.85 0,2.18 0.88,4.31 2.42,5.85 1.54,1.54 3.67,2.42 5.85,2.42 2.17,0 4.3,-0.88 5.84,-2.42 1.54,-1.54 2.42,-3.68 2.42,-5.85 0,-2.18 -0.88,-4.3 -2.42,-5.85z"/>
   </g>
   <g>
    <path class="fil0" d="M187.05 251.35c-17.32,0 -31.41,14.09 -31.41,31.42 0,17.32 14.09,31.41 31.41,31.41 17.33,0 31.42,-14.09 31.42,-31.41 0,-17.33 -14.09,-31.42 -31.42,-31.42zm0 46.3c-8.2,0 -14.88,-6.68 -14.88,-14.88 0,-8.21 6.68,-14.89 14.88,-14.89 8.21,0 14.89,6.68 14.89,14.89 0,8.2 -6.68,14.88 -14.89,14.88z"/>
   </g>
   <g>
    <path class="fil0" d="M264.22 251.35c-17.32,0 -31.41,14.09 -31.41,31.42 0,17.32 14.09,31.41 31.41,31.41 17.33,0 31.42,-14.09 31.42,-31.41 0,-17.33 -14.09,-31.42 -31.42,-31.42zm0 46.3c-8.2,0 -14.88,-6.68 -14.88,-14.88 0,-8.21 6.68,-14.89 14.88,-14.89 8.21,0 14.89,6.68 14.89,14.89 0,8.2 -6.68,14.88 -14.89,14.88z"/>
   </g>
   <g>
    <path class="fil0" d="M341.4 251.35c-17.33,0 -31.42,14.09 -31.42,31.42 0,17.32 14.09,31.41 31.42,31.41 17.32,0 31.42,-14.09 31.42,-31.41 0,-17.33 -14.1,-31.42 -31.42,-31.42zm0 46.3c-8.21,0 -14.89,-6.68 -14.89,-14.88 0,-8.21 6.68,-14.89 14.89,-14.89 8.2,0 14.88,6.68 14.88,14.89 0,8.2 -6.68,14.88 -14.88,14.88z"/>
   </g>
   <g>
    <path class="fil0" d="M109.88 165.36c-17.32,0 -31.42,14.09 -31.42,31.42 0,17.32 14.1,31.41 31.42,31.41 17.33,0 31.42,-14.09 31.42,-31.41 0,-17.33 -14.09,-31.42 -31.42,-31.42zm0 46.3c-8.2,0 -14.88,-6.68 -14.88,-14.88 0,-8.21 6.68,-14.89 14.88,-14.89 8.21,0 14.89,6.68 14.89,14.89 0,8.2 -6.68,14.88 -14.89,14.88z"/>
   </g>
   <g>
    <path class="fil0" d="M264.22 165.36c-17.32,0 -31.41,14.09 -31.41,31.42 0,17.32 14.09,31.41 31.41,31.41 17.33,0 31.42,-14.09 31.42,-31.41 0,-17.33 -14.09,-31.42 -31.42,-31.42zm0 46.3c-8.2,0 -14.88,-6.68 -14.88,-14.88 0,-8.21 6.68,-14.89 14.88,-14.89 8.21,0 14.89,6.68 14.89,14.89 0,8.2 -6.68,14.88 -14.89,14.88z"/>
   </g>
   <g>
    <path class="fil0" d="M341.4 165.36c-17.33,0 -31.42,14.09 -31.42,31.42 0,17.32 14.09,31.41 31.42,31.41 17.32,0 31.42,-14.09 31.42,-31.41 0,-17.33 -14.1,-31.42 -31.42,-31.42zm0 46.3c-8.21,0 -14.89,-6.68 -14.89,-14.88 0,-8.21 6.68,-14.89 14.89,-14.89 8.2,0 14.88,6.68 14.88,14.89 0,8.2 -6.68,14.88 -14.88,14.88z"/>
   </g>
   <g>
    <path class="fil0" d="M187.05 165.36c-17.32,0 -31.41,14.09 -31.41,31.42 0,17.32 14.09,31.41 31.41,31.41 17.33,0 31.42,-14.09 31.42,-31.41 0,-17.33 -14.09,-31.42 -31.42,-31.42zm0 46.3c-8.2,0 -14.88,-6.68 -14.88,-14.88 0,-8.21 6.68,-14.89 14.88,-14.89 8.21,0 14.89,6.68 14.89,14.89 0,8.2 -6.68,14.88 -14.89,14.88z"/>
   </g>
   <g>
    <path class="fil0" d="M104.25 290.73c-3.23,-3.23 -8.46,-3.23 -11.69,0l-26.93 26.92 -9.2 -9.2c-3.23,-3.23 -8.46,-3.23 -11.69,0 -3.23,3.23 -3.23,8.47 0,11.7l15.05 15.04c1.55,1.55 3.65,2.42 5.84,2.42 2.2,0 4.3,-0.87 5.85,-2.42l32.77 -32.77c3.23,-3.23 3.23,-8.46 0,-11.69z"/>
   </g>
  </g>
 </g>
</svg>
