<?xml version="1.0" encoding="UTF-8"?>
<!DOCTYPE svg PUBLIC "-//W3C//DTD SVG 1.1//EN" "http://www.w3.org/Graphics/SVG/1.1/DTD/svg11.dtd">
<!-- Creator: CorelDRAW 2018 (64 Bit Versão de avaliação) -->
<svg xmlns="http://www.w3.org/2000/svg" xml:space="preserve" width="5.4186mm" height="5.4186mm" version="1.1" style="shape-rendering:geometricPrecision; text-rendering:geometricPrecision; image-rendering:optimizeQuality; fill-rule:evenodd; clip-rule:evenodd"
viewBox="0 0 541.86 541.86"
 xmlns:xlink="http://www.w3.org/1999/xlink">
 <defs>
  <style type="text/css">
   <![CDATA[
    .fil0 {fill:#FEFEFE;fill-rule:nonzero}
   ]]>
  </style>
 </defs>
 <g id="Camada_x0020_1">
  <metadata id="CorelCorpID_0Corel-Layer"/>
  <g id="_1647087953616">
   <path class="fil0" d="M50.8 474.13l220.13 0 0 -16.94 -220.13 0c-14.03,0 -25.4,-11.37 -25.4,-25.4l0 -372.53c0,-14.03 11.37,-25.4 25.4,-25.4l372.53 0c14.03,0 25.4,11.37 25.4,25.4l0 194.73 16.94 0 0 -194.73c-0.03,-23.37 -18.97,-42.3 -42.34,-42.33l-372.53 0c-23.37,0.03 -42.31,18.96 -42.34,42.33l0 372.53c0.03,23.37 18.97,42.31 42.34,42.34zm0 0z"/>
   <path class="fil0" d="M42.33 50.8l16.93 0 0 16.93 -16.93 0 0 -16.93zm0 0z"/>
   <path class="fil0" d="M76.2 50.8l16.93 0 0 16.93 -16.93 0 0 -16.93zm0 0z"/>
   <path class="fil0" d="M110.06 50.8l16.94 0 0 16.93 -16.94 0 0 -16.93zm0 0z"/>
   <path class="fil0" d="M42.33 84.66l389.47 0 0 16.94 -389.47 0 0 -16.94zm0 0z"/>
   <path class="fil0" d="M129.48 121.01l-21.51 21.51c-18.17,-12.04 -42.52,-8.35 -56.31,8.54 -13.8,16.88 -12.56,41.47 2.86,56.88 15.41,15.42 40,16.66 56.89,2.86 16.88,-13.79 20.57,-38.14 8.53,-56.31l21.51 -21.51 -11.97 -11.97zm-44.82 82.18c-14.02,0 -25.4,-11.37 -25.4,-25.39 0,-14.03 11.38,-25.4 25.4,-25.4 3.78,0.01 7.5,0.88 10.88,2.53l-16.86 16.87 11.97 11.97 16.88 -16.85c1.65,3.38 2.52,7.1 2.53,10.88 0,14.02 -11.36,25.39 -25.4,25.39zm0 0z"/>
   <path class="fil0" d="M152.4 152.4l143.93 0 0 16.93 -143.93 0 0 -16.93zm0 0z"/>
   <path class="fil0" d="M152.4 186.26l59.26 0 0 16.93 -59.26 0 0 -16.93zm0 0z"/>
   <path class="fil0" d="M228.6 186.26l118.53 0 0 16.93 -118.53 0 0 -16.93zm0 0z"/>
   <path class="fil0" d="M313.26 152.4l84.67 0 0 16.93 -84.67 0 0 -16.93zm0 0z"/>
   <path class="fil0" d="M129.48 222.61l-21.51 21.5c-18.17,-12.03 -42.52,-8.34 -56.31,8.55 -13.8,16.88 -12.56,41.47 2.86,56.89 15.41,15.41 40,16.65 56.89,2.85 16.88,-13.79 20.57,-38.13 8.53,-56.31l21.51 -21.51 -11.97 -11.97zm-44.82 82.18c-14.02,0 -25.4,-11.37 -25.4,-25.39 0,-14.03 11.38,-25.41 25.4,-25.41 3.78,0.02 7.5,0.89 10.88,2.54l-16.86 16.87 11.97 11.97 16.88 -16.85c1.65,3.38 2.52,7.1 2.53,10.88 0,14.02 -11.36,25.39 -25.4,25.39zm0 0z"/>
   <path class="fil0" d="M152.4 253.99l143.93 0 0 16.94 -143.93 0 0 -16.94zm0 0z"/>
   <path class="fil0" d="M152.4 287.86l59.26 0 0 16.93 -59.26 0 0 -16.93zm0 0z"/>
   <path class="fil0" d="M228.6 287.86l67.73 0 0 16.93 -67.73 0 0 -16.93zm0 0z"/>
   <path class="fil0" d="M313.26 253.99l33.87 0 0 16.94 -33.87 0 0 -16.94zm0 0z"/>
   <path class="fil0" d="M129.48 324.21l-21.51 21.5c-18.17,-12.03 -42.52,-8.34 -56.31,8.55 -13.8,16.88 -12.56,41.47 2.86,56.89 15.41,15.41 40,16.65 56.89,2.85 16.88,-13.79 20.57,-38.13 8.53,-56.32l21.51 -21.5 -11.97 -11.97zm-44.82 82.18c-14.02,0 -25.4,-11.37 -25.4,-25.4 0,-14.03 11.38,-25.4 25.4,-25.4 3.78,0.02 7.5,0.88 10.88,2.54l-16.86 16.87 11.97 11.97 16.88 -16.86c1.65,3.39 2.52,7.11 2.53,10.88 0,14.03 -11.36,25.4 -25.4,25.4zm0 0z"/>
   <path class="fil0" d="M152.4 355.59l110.06 0 0 16.94 -110.06 0 0 -16.94zm0 0z"/>
   <path class="fil0" d="M152.4 389.46l59.26 0 0 16.93 -59.26 0 0 -16.93zm0 0z"/>
   <path class="fil0" d="M228.6 389.46l33.86 0 0 16.93 -33.86 0 0 -16.93zm0 0z"/>
   <path class="fil0" d="M406.4 524.93c70.14,0 127,-56.86 127,-127 0,-70.14 -56.86,-127 -127,-127 -70.14,0 -127,56.86 -127,127 0.08,70.1 56.89,126.92 127,127zm0 -237.07c60.78,0 110.06,49.28 110.06,110.07 0,60.79 -49.28,110.06 -110.06,110.06 -60.79,0 -110.07,-49.27 -110.07,-110.06 0.07,-60.76 49.31,-110 110.07,-110.07zm0 0z"/>
   <path class="fil0" d="M354.75 402.61l-15.15 7.57 16.93 33.86c1.21,2.44 3.53,4.14 6.22,4.58 0.44,0.07 0.87,0.1 1.31,0.11 2.25,0 4.4,-0.89 5.99,-2.48l101.6 -101.6 -11.97 -11.97 -93.3 93.29 -11.63 -23.36zm0 0z"/>
  </g>
 </g>
</svg>
