<?xml version="1.0" encoding="UTF-8"?>
<!DOCTYPE svg PUBLIC "-//W3C//DTD SVG 1.1//EN" "http://www.w3.org/Graphics/SVG/1.1/DTD/svg11.dtd">
<!-- Creator: CorelDRAW 2018 (64 Bit Versão de avaliação) -->
<svg xmlns="http://www.w3.org/2000/svg" xml:space="preserve" width="8.4666mm" height="8.4666mm" version="1.1" style="shape-rendering:geometricPrecision; text-rendering:geometricPrecision; image-rendering:optimizeQuality; fill-rule:evenodd; clip-rule:evenodd"
viewBox="0 0 846.66 846.66"
 xmlns:xlink="http://www.w3.org/1999/xlink">
 <defs>
  <style type="text/css">
   <![CDATA[
    .fil0 {fill:#848688}
   ]]>
  </style>
 </defs>
 <g id="Camada_x0020_1">
  <metadata id="CorelCorpID_0Corel-Layer"/>
  <g id="_1645407383728">
   <g>
    <path class="fil0" d="M674.38 -0.01l-502.1 0c-35.35,0 -69.01,11.1 -97.35,32.08 -5.52,4.09 -6.68,11.88 -2.59,17.41 4.09,5.52 11.88,6.68 17.41,2.59 24.01,-17.78 52.55,-27.18 82.53,-27.18l502.1 0c76.55,0 138.83,62.28 138.83,138.84l0 329.31c0,76.56 -62.28,138.84 -138.83,138.84l-212.22 0c-5.13,0 -10.08,2.15 -13.59,5.88l-170.44 181.22c-3.68,3.91 -7.94,2.8 -9.61,2.15 -1.66,-0.66 -5.53,-2.77 -5.53,-8.15l0 -162.44c0,-10.28 -8.36,-18.65 -18.65,-18.65l-72.06 0c-76.55,0 -138.84,-62.29 -138.84,-138.84l0 -329.32c0,-28.17 8.38,-55.28 24.25,-78.41 3.88,-5.67 2.44,-13.42 -3.23,-17.31 -5.67,-3.88 -13.42,-2.44 -17.3,3.23 -18.72,27.3 -28.61,59.28 -28.61,92.49l0 329.31c0,90.29 73.45,163.74 163.73,163.74l65.82 0 0 156.21c0,13.88 8.34,26.16 21.25,31.28 4.07,1.61 8.3,2.4 12.47,2.4 9.08,0 17.93,-3.7 24.45,-10.63l168.58 -179.26 209.53 0c90.28,0 163.73,-73.45 163.73,-163.73l0 -329.32c0,-90.28 -73.45,-163.74 -163.73,-163.74z"/>
   </g>
   <g>
    <path class="fil0" d="M602.12 199.98c-43.2,-43.2 -113.5,-43.2 -156.7,0l-21.7 21.7c-0.05,0.05 -0.23,0.23 -0.56,0.23 -0.33,0 -0.51,-0.17 -0.57,-0.23l-21.35 -21.35c-43.2,-43.21 -113.5,-43.2 -156.7,0 -43.2,43.2 -43.2,113.5 0,156.7l160.46 160.46c4.86,4.85 11.31,7.53 18.17,7.53 6.86,0 13.32,-2.68 18.17,-7.53l88.18 -88.2c4.86,-4.86 4.86,-12.74 0,-17.6 -4.86,-4.86 -12.75,-4.86 -17.6,0l-88.18 88.2c-0.06,0.06 -0.24,0.23 -0.57,0.23 -0.33,0 -0.51,-0.17 -0.57,-0.23l-160.46 -160.47c-33.49,-33.49 -33.49,-87.99 0,-121.49 33.5,-33.5 88,-33.5 121.5,0l21.34 21.35c4.86,4.85 11.31,7.52 18.17,7.52 6.87,0 13.32,-2.67 18.17,-7.52l21.7 -21.7c33.5,-33.49 88,-33.49 121.49,0 33.5,33.5 33.5,88 0,121.5l-37.16 37.17c-4.86,4.86 -4.86,12.74 0.01,17.6 4.86,4.86 12.74,4.86 17.6,0l37.16 -37.17c43.2,-43.2 43.2,-113.5 0,-156.7z"/>
   </g>
  </g>
 </g>
</svg>
