<?xml version="1.0" encoding="UTF-8"?>
<!DOCTYPE svg PUBLIC "-//W3C//DTD SVG 1.1//EN" "http://www.w3.org/Graphics/SVG/1.1/DTD/svg11.dtd">
<!-- Creator: CorelDRAW 2018 (64 Bit Versão de avaliação) -->
<svg xmlns="http://www.w3.org/2000/svg" xml:space="preserve" width="4.6566mm" height="4.6566mm" version="1.1" style="shape-rendering:geometricPrecision; text-rendering:geometricPrecision; image-rendering:optimizeQuality; fill-rule:evenodd; clip-rule:evenodd"
viewBox="0 0 465.66 465.66"
 xmlns:xlink="http://www.w3.org/1999/xlink">
 <defs>
  <style type="text/css">
   <![CDATA[
    .fil0 {fill:#8C4A99}
   ]]>
  </style>
 </defs>
 <g id="Camada_x0020_1">
  <metadata id="CorelCorpID_0Corel-Layer"/>
  <g id="_1645395949840">
   <path class="fil0" d="M397.47 68.19c-43.98,-43.98 -102.45,-68.2 -164.64,-68.2 -62.19,0 -120.66,24.22 -164.64,68.2 -43.98,43.98 -68.2,102.45 -68.2,164.64 0,62.19 24.22,120.66 68.2,164.64 43.98,43.98 102.45,68.2 164.64,68.2 62.19,0 120.66,-24.22 164.64,-68.2 43.98,-43.98 68.2,-102.45 68.2,-164.64 0,-62.19 -24.22,-120.66 -68.2,-164.64zm-164.64 379.28c-118.36,0 -214.64,-96.28 -214.64,-214.64 0,-118.36 96.28,-214.64 214.64,-214.64 118.36,0 214.64,96.28 214.64,214.64 0,118.36 -96.28,214.64 -214.64,214.64z"/>
   <path class="fil0" d="M362.74 102.92c-71.63,-71.63 -188.19,-71.63 -259.82,0 -29.61,29.61 -47.8,67.2 -52.59,108.71 -4.65,40.26 4.25,81.44 25.06,115.96 2.59,4.3 8.18,5.69 12.48,3.1 4.3,-2.6 5.69,-8.19 3.09,-12.49 -39.33,-65.24 -29.12,-148.48 24.82,-202.42 64.54,-64.54 169.56,-64.54 234.1,0 64.54,64.54 64.54,169.56 0,234.1 -54.55,54.54 -138.41,64.37 -203.94,23.89 -4.27,-2.64 -9.88,-1.32 -12.52,2.95 -2.64,4.28 -1.32,9.88 2.96,12.52 28.92,17.87 62.61,27.3 96.63,27.3 6.69,0 13.39,-0.36 20.07,-1.1 41.29,-4.55 80.23,-23.27 109.66,-52.7 71.63,-71.63 71.63,-188.19 0,-259.82z"/>
   <path class="fil0" d="M115.87 349.97l-0.13 -0.14c-3.54,-3.56 -9.3,-3.58 -12.87,-0.04 -3.56,3.54 -3.58,9.3 -0.04,12.86l0.14 0.14c1.77,1.79 4.11,2.68 6.45,2.68 2.32,0 4.63,-0.88 6.41,-2.64 3.56,-3.54 3.58,-9.3 0.04,-12.86z"/>
   <path class="fil0" d="M264.72 296.44l-4.6 0 0 -81.71c0,-15.04 -12.24,-27.28 -27.29,-27.28l-25.47 0c-15.04,0 -27.28,12.24 -27.28,27.28 0,14.44 11.26,26.29 25.46,27.23l0 54.48 -4.6 0c-15.05,0 -27.29,12.24 -27.29,27.28 0,15.05 12.24,27.29 27.29,27.29l63.78 0c15.05,0 27.29,-12.24 27.29,-27.29 0,-15.04 -12.24,-27.28 -27.29,-27.28zm0 36.38l-63.78 0c-5.02,0 -9.1,-4.08 -9.1,-9.1 0,-5.01 4.08,-9.09 9.1,-9.09l0 0 13.7 0c5.02,0 9.09,-4.08 9.09,-9.1l0 -72.61c0,-5.02 -4.07,-9.09 -9.09,-9.09l-7.28 0c-5.01,0 -9.09,-4.08 -9.09,-9.1 0,-5.01 4.08,-9.09 9.09,-9.09l25.47 0c5.02,0 9.09,4.08 9.09,9.09l0 90.8c0,5.02 4.08,9.1 9.1,9.1l13.7 0c5.02,0 9.1,4.08 9.1,9.09 0,5.02 -4.08,9.1 -9.1,9.1z"/>
   <path class="fil0" d="M232.83 114.65c-15.05,0 -27.29,12.24 -27.29,27.29 0,15.04 12.24,27.28 27.29,27.28 15.05,0 27.29,-12.24 27.29,-27.28 0,-15.05 -12.24,-27.29 -27.29,-27.29zm0 36.38c-5.02,0 -9.09,-4.08 -9.09,-9.09 0,-5.02 4.08,-9.1 9.09,-9.1 5.02,0 9.09,4.08 9.09,9.1 0,5.01 -4.07,9.09 -9.09,9.09z"/>
  </g>
 </g>
</svg>
