<?xml version="1.0" encoding="UTF-8"?>
<!DOCTYPE svg PUBLIC "-//W3C//DTD SVG 1.1//EN" "http://www.w3.org/Graphics/SVG/1.1/DTD/svg11.dtd">
<!-- Creator: CorelDRAW 2018 (64 Bit Versão de avaliação) -->
<svg xmlns="http://www.w3.org/2000/svg" xml:space="preserve" width="7.3658mm" height="6.7732mm" version="1.1" style="shape-rendering:geometricPrecision; text-rendering:geometricPrecision; image-rendering:optimizeQuality; fill-rule:evenodd; clip-rule:evenodd"
viewBox="0 0 736.58 677.32"
 xmlns:xlink="http://www.w3.org/1999/xlink">
 <defs>
  <style type="text/css">
   <![CDATA[
    .fil0 {fill:#FEFEFE}
   ]]>
  </style>
 </defs>
 <g id="Camada_x0020_1">
  <metadata id="CorelCorpID_0Corel-Layer"/>
  <g id="_1645396477392">
   <g>
    <path class="fil0" d="M304.25 274.25c-3.83,-3.01 -8.16,-5.37 -12.74,-7.01 -18.14,-6.48 -39.01,-0.49 -50.89,14.68 -3.01,3.83 -5.37,8.16 -7.01,12.74l-72.38 202.68 -72.39 -202.68c-6.15,-17.23 -22.59,-29.35 -40.91,-30.05 -5.77,-0.22 -11.55,0.69 -16.99,2.63 -17.23,6.16 -29.34,22.59 -30.05,40.91 -0.22,5.77 0.69,11.55 2.63,16.99l115.04 322.12c6.43,17.98 23.57,30.06 42.66,30.06 19.1,0 36.24,-12.08 42.66,-30.06l115.05 -322.12c6.47,-18.14 0.49,-39.01 -14.68,-50.89zm-5.64 43.63l-115.04 322.12c-3.36,9.42 -12.34,15.75 -22.35,15.75 -10,0 -18.98,-6.33 -22.34,-15.75l-115.04 -322.12c-4.36,-12.2 2.19,-25.98 14.36,-30.33 12.2,-4.35 25.98,2.2 30.32,14.37l82.55 231.11c1.51,4.25 5.65,7.16 10.15,7.16 4.51,0 8.65,-2.91 10.16,-7.16l82.54 -231.11c4.35,-12.17 18.13,-18.73 30.33,-14.37 12.14,4.42 18.74,18.08 14.36,30.33z"/>
   </g>
   <g>
    <path class="fil0" d="M425.83 378.21c5.95,0 10.78,-4.83 10.78,-10.79l0 -57.52c0,-24.98 -20.32,-45.3 -45.3,-45.3 -24.98,0 -45.3,20.32 -45.3,45.3l0 322.12c0,24.98 20.32,45.3 45.3,45.3 24.98,0 45.3,-20.32 45.3,-45.3l0 -227.21c0,-5.96 -4.83,-10.79 -10.78,-10.79 -5.96,0 -10.79,4.83 -10.79,10.79l0 227.21c0,13.08 -10.64,23.73 -23.73,23.73 -13.08,0 -23.72,-10.65 -23.72,-23.73l-0.01 -322.12c0,-13.09 10.65,-23.73 23.73,-23.73 13.09,0 23.73,10.64 23.73,23.73l0 57.52c0,5.96 4.83,10.79 10.79,10.79z"/>
   </g>
   <g>
    <path class="fil0" d="M690.43 264.6l-184.07 0c-24.98,0 -45.3,20.32 -45.3,45.3l0 322.12c0,24.98 20.32,45.3 45.3,45.3 24.97,0 45.3,-20.32 45.3,-45.3l0 -92.75 138.77 0c24.97,0 45.3,-20.32 45.3,-45.3l0 -184.07c0,-24.98 -20.33,-45.3 -45.3,-45.3zm23.72 229.37c0,13.08 -10.64,23.73 -23.72,23.73l-149.56 0c-5.96,0 -10.79,4.82 -10.79,10.78l0 103.54c0,13.08 -10.64,23.73 -23.72,23.73 -13.09,0 -23.73,-10.65 -23.73,-23.73l0 -322.12c0,-13.09 10.64,-23.73 23.73,-23.73l184.07 0c13.08,0 23.72,10.64 23.72,23.73l0 184.07z"/>
   </g>
   <g>
    <path class="fil0" d="M655.91 333.63l-115.04 0c-5.96,0 -10.79,4.82 -10.79,10.78l0 115.04c0,5.96 4.83,10.79 10.79,10.79l115.04 0c5.96,0 10.79,-4.83 10.79,-10.79l0 -115.04c0,-5.96 -4.83,-10.78 -10.79,-10.78zm-10.78 115.04l-93.48 0 0 -93.47 93.48 0 0 93.47z"/>
   </g>
   <g>
    <path class="fil0" d="M540.87 46.02c-18.64,0 -33.79,15.16 -33.79,33.79 0,2.75 0.33,5.42 0.96,7.98l-66.48 24.93 -33.19 -49.77c10,-5.88 16.73,-16.74 16.73,-29.16 0,-18.63 -15.15,-33.79 -33.79,-33.79 -18.63,0 -33.79,15.16 -33.79,33.79 0,12.42 6.73,23.28 16.73,29.16l-33.18 49.77 -66.48 -24.93c0.62,-2.56 0.96,-5.23 0.96,-7.98 0,-18.63 -15.16,-33.79 -33.79,-33.79 -18.64,0 -33.8,15.16 -33.8,33.79 0,18.63 15.16,33.79 33.8,33.79 3.91,0 7.66,-0.67 11.16,-1.9l58.58 97.65 0 31.52c0,5.96 4.83,10.78 10.79,10.78l138.05 0c5.96,0 10.78,-4.82 10.78,-10.78l0 -31.52 58.59 -97.65c3.49,1.23 7.25,1.91 11.16,1.91 18.63,0 33.79,-15.16 33.79,-33.8 0,-18.63 -15.16,-33.79 -33.79,-33.79zm-299.11 46.01c-6.75,0 -12.23,-5.48 -12.23,-12.22 0,-6.74 5.48,-12.22 12.23,-12.22 6.74,0 12.22,5.48 12.22,12.22 0,6.74 -5.49,12.22 -12.22,12.22zm149.55 -70.46c6.74,0 12.22,5.48 12.22,12.22 0,6.74 -5.48,12.22 -12.22,12.22 -6.74,0 -12.22,-5.48 -12.22,-12.22 0,-6.74 5.48,-12.22 12.22,-12.22zm58.24 208.52l-116.48 0 0 -12.95 116.48 0 0 12.95zm4.68 -34.52l-125.84 0 -49.98 -83.31 63.1 23.66c4.69,1.77 9.98,0.06 12.76,-4.11l37.04 -55.57 37.05 55.57c2.75,4.12 8.12,5.85 12.76,4.11l63.1 -23.66 -49.99 83.31zm86.64 -103.54c-6.74,0 -12.22,-5.48 -12.22,-12.22 0,-6.74 5.48,-12.22 12.22,-12.22 6.74,0 12.22,5.48 12.22,12.22 0,6.74 -5.48,12.22 -12.22,12.22z"/>
   </g>
  </g>
 </g>
</svg>
