<?xml version="1.0" encoding="UTF-8"?>
<!DOCTYPE svg PUBLIC "-//W3C//DTD SVG 1.1//EN" "http://www.w3.org/Graphics/SVG/1.1/DTD/svg11.dtd">
<!-- Creator: CorelDRAW 2018 (64 Bit Versão de avaliação) -->
<svg xmlns="http://www.w3.org/2000/svg" xml:space="preserve" width="10.7526mm" height="12.9538mm" version="1.1" style="shape-rendering:geometricPrecision; text-rendering:geometricPrecision; image-rendering:optimizeQuality; fill-rule:evenodd; clip-rule:evenodd"
viewBox="0 0 1075.26 1295.38"
 xmlns:xlink="http://www.w3.org/1999/xlink">
 <defs>
  <style type="text/css">
   <![CDATA[
    .fil0 {fill:#FEFEFE}
   ]]>
  </style>
 </defs>
 <g id="Camada_x0020_1">
  <metadata id="CorelCorpID_0Corel-Layer"/>
  <g id="_1645396463472">
   <path class="fil0" d="M44.44 429.93c-4.7,-4.71 -11.23,-7.42 -17.88,-7.42 -6.66,0 -13.18,2.71 -17.89,7.42 -4.71,4.7 -7.41,11.23 -7.41,17.88 0,6.66 2.7,13.19 7.41,17.89 4.7,4.71 11.23,7.42 17.89,7.42 6.65,0 13.18,-2.71 17.88,-7.42 4.71,-4.7 7.42,-11.23 7.42,-17.89 0,-6.65 -2.71,-13.18 -7.42,-17.88z"/>
   <path class="fil0" d="M998.1 -0.01l-511.91 0c-13.97,0 -25.3,11.33 -25.3,25.3 0,13.97 11.33,25.3 25.3,25.3l511.91 0c13.95,0 25.3,11.35 25.3,25.3l0 1143.6c0,13.95 -11.35,25.3 -25.3,25.3l-920.94 0c-13.95,0 -25.3,-11.35 -25.3,-25.3l0 -677.22c0,-13.97 -11.33,-25.3 -25.3,-25.3 -13.97,0 -25.3,11.33 -25.3,25.3l0 677.22c0,41.85 34.04,75.9 75.9,75.9l920.94 0c41.86,0 75.9,-34.05 75.9,-75.9l0 -1143.6c0,-41.85 -34.04,-75.9 -75.9,-75.9z"/>
   <path class="fil0" d="M537.63 101.19c-17.21,0 -34.52,1.32 -51.42,3.91 -13.81,2.12 -23.29,15.03 -21.17,28.84 2.11,13.81 15.03,23.28 28.84,21.18 14.38,-2.21 29.1,-3.33 43.75,-3.33 157.65,0 285.9,128.26 285.9,285.91 0,70 -25.31,134.2 -67.23,183.96 -18.56,-31.91 -43.9,-59.43 -74.66,-80.77 -17.95,-12.46 -37.23,-22.4 -57.42,-29.76 23.04,-22.53 37.38,-53.92 37.38,-88.61l0 -24.67c0,-68.36 -55.61,-123.98 -123.97,-123.98 -68.36,0 -123.97,55.62 -123.97,123.98l0 24.67c0,34.69 14.34,66.08 37.38,88.61 -20.18,7.36 -39.47,17.3 -57.42,29.76 -30.91,21.45 -56.35,49.12 -74.93,81.22 -31.94,-37.97 -54.28,-84.66 -63.01,-136.75 -2.31,-13.78 -15.37,-23.08 -29.14,-20.77 -13.78,2.31 -23.08,15.35 -20.77,29.14 13.01,77.57 53.28,148.57 113.4,199.93 60.8,51.93 138.39,80.54 218.46,80.54 185.55,0 336.5,-150.95 336.5,-336.5 0,-185.55 -150.95,-336.51 -336.5,-336.51zm-73.37 296.66c0,-40.46 32.91,-73.38 73.37,-73.38 40.46,0 73.37,32.92 73.37,73.38l0 24.67c0,40.45 -32.91,73.37 -73.37,73.37 -40.46,0 -73.37,-32.92 -73.37,-73.37l0 -24.67zm73.37 325.75c-68.5,0 -131.83,-23.92 -181.39,-64.47 33.97,-68.95 103.43,-112.64 181.39,-112.64 77.8,0 147.12,43.51 181.17,112.21 -49.35,40.53 -112.47,64.9 -181.17,64.9z"/>
   <path class="fil0" d="M771.3 1006.97l-359.27 0c-13.97,0 -25.3,11.33 -25.3,25.3 0,13.97 11.33,25.3 25.3,25.3l359.27 0c13.97,0 25.3,-11.33 25.3,-25.3 0,-13.97 -11.33,-25.3 -25.3,-25.3z"/>
   <path class="fil0" d="M321.84 872.69c-4.71,-4.71 -11.23,-7.41 -17.89,-7.41 -6.65,0 -13.18,2.7 -17.89,7.41 -4.7,4.71 -7.41,11.23 -7.41,17.89 0,6.67 2.71,13.18 7.41,17.88 4.71,4.71 11.24,7.42 17.89,7.42 6.66,0 13.18,-2.71 17.89,-7.42 4.73,-4.7 7.41,-11.23 7.41,-17.88 0,-6.66 -2.68,-13.18 -7.41,-17.89z"/>
   <path class="fil0" d="M321.84 1014.37c-4.71,-4.71 -11.21,-7.41 -17.89,-7.41 -6.65,0 -13.18,2.71 -17.89,7.41 -4.7,4.71 -7.41,11.24 -7.41,17.89 0,6.68 2.71,13.18 7.41,17.89 4.71,4.71 11.24,7.41 17.89,7.41 6.66,0 13.18,-2.7 17.89,-7.41 4.73,-4.71 7.41,-11.21 7.41,-17.89 0,-6.65 -2.68,-13.18 -7.41,-17.89z"/>
   <path class="fil0" d="M771.3 865.28l-359.27 0c-13.97,0 -25.3,11.33 -25.3,25.3 0,13.97 11.33,25.3 25.3,25.3l359.27 0c13.97,0 25.3,-11.33 25.3,-25.3 0,-13.97 -11.33,-25.3 -25.3,-25.3z"/>
   <path class="fil0" d="M298.86 145.8c-9.89,-9.88 -25.9,-9.88 -35.79,0l-82.39 82.39 -28.16 -28.16c-9.88,-9.87 -25.9,-9.87 -35.78,0 -9.88,9.89 -9.88,25.91 0,35.79l46.05 46.04c4.94,4.94 11.41,7.41 17.89,7.41 6.47,0 12.95,-2.47 17.89,-7.4l100.29 -100.29c9.88,-9.88 9.88,-25.9 0,-35.78z"/>
   <path class="fil0" d="M208.72 -0.01c-114.4,0 -207.46,93.07 -207.46,207.47 0,114.39 93.06,207.46 207.46,207.46 114.4,0 207.47,-93.07 207.47,-207.46 0,-114.4 -93.07,-207.47 -207.47,-207.47zm0 364.33c-86.49,0 -156.86,-70.37 -156.86,-156.86 0,-86.5 70.37,-156.87 156.86,-156.87 86.5,0 156.87,70.37 156.87,156.87 0,86.49 -70.37,156.86 -156.87,156.86z"/>
  </g>
 </g>
</svg>
