<?xml version="1.0" encoding="UTF-8"?>
<!DOCTYPE svg PUBLIC "-//W3C//DTD SVG 1.1//EN" "http://www.w3.org/Graphics/SVG/1.1/DTD/svg11.dtd">
<!-- Creator: CorelDRAW 2018 (64 Bit Versão de avaliação) -->
<svg xmlns="http://www.w3.org/2000/svg" xml:space="preserve" width="12.1072mm" height="12.9538mm" version="1.1" style="shape-rendering:geometricPrecision; text-rendering:geometricPrecision; image-rendering:optimizeQuality; fill-rule:evenodd; clip-rule:evenodd"
viewBox="0 0 1210.72 1295.38"
 xmlns:xlink="http://www.w3.org/1999/xlink">
 <defs>
  <style type="text/css">
   <![CDATA[
    .fil0 {fill:#FEFEFE}
   ]]>
  </style>
 </defs>
 <g id="Camada_x0020_1">
  <metadata id="CorelCorpID_0Corel-Layer"/>
  <g id="_1645402521536">
   <g>
    <circle class="fil0" cx="660.82" cy="875.21" r="50.56"/>
    <path class="fil0" d="M830.2 1193.74l-629.49 0c-55.76,0 -101.12,-45.36 -101.12,-101.12l0 -414.6c0,-55.76 45.37,-101.12 101.12,-101.12l728.08 0c11.51,0 20.65,1.02 27.93,3.1 26.84,7.69 54.83,-7.83 62.53,-34.68 7.69,-26.84 -7.84,-54.83 -34.68,-62.53 -16.47,-4.72 -34.71,-7.01 -55.78,-7.01l-60.77 0 0 -178.31c0,-163.74 -136.09,-296.96 -303.36,-296.96 -167.28,0 -303.37,133.22 -303.37,296.96l0 178.31 -60.58 0c-111.51,0 -202.24,90.73 -202.24,202.25l0 414.6c0,111.51 90.73,202.24 202.24,202.24l629.49 0c27.92,0 50.56,-22.64 50.56,-50.56 0,-27.93 -22.64,-50.56 -50.56,-50.57zm-467.78 -896.27c0,-107.99 90.72,-195.84 202.24,-195.84 111.52,0 202.24,87.85 202.24,195.84l0 178.31 -404.48 0 0 -178.31z"/>
    <circle class="fil0" cx="471.21" cy="875.21" r="50.56"/>
    <path class="fil0" d="M1212.21 837.82c-1.11,-98.06 -81.23,-177.49 -179.55,-177.49 -99,0 -179.55,80.55 -179.55,179.55 0,27.93 22.63,50.57 50.56,50.57 27.92,0 50.56,-22.64 50.56,-50.57 0,-43.24 35.18,-78.43 78.43,-78.43 43.25,0 78.44,35.19 78.44,78.43 0,0.46 0,0.92 0.02,1.38 -0.53,30.96 -19.12,58.67 -47.69,70.87 -49.4,21.1 -81.33,69.82 -81.33,124.13l0 43.72c0,27.93 22.64,50.57 50.57,50.57 27.92,0 50.56,-22.64 50.56,-50.57l0 -43.72c0,-13.75 7.81,-25.97 19.9,-31.13 66.31,-28.3 109.14,-93.17 109.12,-165.26 0,-0.68 -0.02,-1.37 -0.04,-2.05z"/>
    <circle class="fil0" cx="1032.44" cy="1244.31" r="50.56"/>
    <circle class="fil0" cx="281.61" cy="875.21" r="50.56"/>
   </g>
  </g>
 </g>
</svg>
