<?xml version="1.0" encoding="UTF-8"?>
<!DOCTYPE svg PUBLIC "-//W3C//DTD SVG 1.1//EN" "http://www.w3.org/Graphics/SVG/1.1/DTD/svg11.dtd">
<!-- Creator: CorelDRAW 2018 (64 Bit Versão de avaliação) -->
<svg xmlns="http://www.w3.org/2000/svg" xml:space="preserve" width="4.6566mm" height="4.6566mm" version="1.1" style="shape-rendering:geometricPrecision; text-rendering:geometricPrecision; image-rendering:optimizeQuality; fill-rule:evenodd; clip-rule:evenodd"
viewBox="0 0 465.66 465.66"
 xmlns:xlink="http://www.w3.org/1999/xlink">
 <defs>
  <style type="text/css">
   <![CDATA[
    .fil0 {fill:#8C4A99}
   ]]>
  </style>
 </defs>
 <g id="Camada_x0020_1">
  <metadata id="CorelCorpID_0Corel-Layer"/>
  <g id="_1645402532352">
   <path class="fil0" d="M118.26 183.19c-2.39,0 -4.74,0.97 -6.43,2.67 -1.69,1.69 -2.67,4.03 -2.67,6.43 0,2.4 0.98,4.74 2.67,6.43 1.69,1.69 4.04,2.66 6.43,2.66 2.39,0 4.74,-0.97 6.43,-2.66 1.69,-1.69 2.66,-4.04 2.66,-6.43 0,-2.4 -0.97,-4.74 -2.66,-6.43 -1.69,-1.7 -4.04,-2.67 -6.43,-2.67zm0 0z"/>
   <path class="fil0" d="M281.94 201.91c-44.12,0 -80.02,35.9 -80.02,80.03 0,44.14 35.9,80.04 80.02,80.04 44.12,0 80.02,-35.9 80.02,-80.04 0,-44.13 -35.9,-80.03 -80.02,-80.03zm0 141.88c-34.09,0 -61.83,-27.74 -61.83,-61.85 0,-34.1 27.74,-61.84 61.83,-61.84 34.1,0 61.83,27.74 61.83,61.84 0,34.11 -27.73,61.85 -61.83,61.85zm0 0z"/>
   <path class="fil0" d="M456.59 413.02l-26.51 -26.51c-3.55,-3.55 -9.3,-3.55 -12.86,0 -3.55,3.55 -3.55,9.31 0,12.86l26.51 26.51c2.39,2.39 3.7,5.57 3.7,8.95 0,3.37 -1.31,6.55 -3.7,8.94 -4.93,4.93 -12.96,4.93 -17.89,0l-69.78 -69.79c26.87,-21.7 44.09,-54.89 44.09,-92.04 0,-41.77 -21.77,-78.55 -54.56,-99.59l0 -159.2c0,-6.49 -3.33,-12.33 -8.9,-15.64 -5.58,-3.31 -12.3,-3.44 -17.99,-0.34l-91.33 49.78 -100.41 -54.73c-5.45,-2.97 -11.95,-2.97 -17.41,0l-100.02 54.52c-5.85,3.19 -9.49,9.31 -9.49,15.97l0 203.02c0,6.49 3.33,12.33 8.91,15.64 2.88,1.72 6.07,2.58 9.27,2.58 2.98,0 5.97,-0.75 8.71,-2.25l91.33 -49.77 46.38 25.28c-0.6,4.83 -0.91,9.75 -0.91,14.73 0,65.2 53.03,118.24 118.21,118.24 21.42,0 41.53,-5.73 58.87,-15.73l72.17 72.18c5.82,5.82 13.57,9.03 21.81,9.03 8.23,0 15.97,-3.21 21.8,-9.03 12.02,-12.02 12.02,-31.59 0,-43.61l0 0zm-129.19 -389.87l0 149.66c-14,-5.86 -29.36,-9.1 -45.46,-9.1 -16.11,0 -31.47,3.24 -45.47,9.1l0 -98.22c0,-0.61 -0.06,-1.21 -0.18,-1.78l91.11 -49.66zm-200.44 202.81c-5.45,-2.97 -11.95,-2.98 -17.41,0l-91.32 49.77 0 -203.02 90.93 -49.56 0 132.34c0,5.02 4.08,9.09 9.1,9.09 5.02,0 9.09,-4.07 9.09,-9.09l0 -132.34 91.11 49.66c-0.12,0.57 -0.18,1.17 -0.18,1.78l0 107.77c-23.7,15.21 -41.64,38.65 -49.76,66.25l-41.56 -22.65zm54.95 55.98c0,-55.16 44.87,-100.04 100.03,-100.04 55.15,0 100.03,44.88 100.03,100.04 0,55.17 -44.88,100.05 -100.03,100.05 -55.16,0 -100.03,-44.88 -100.03,-100.05zm0 0z"/>
   <path class="fil0" d="M281.94 241.02c-5.02,0 -9.09,4.07 -9.09,9.1 0,5.02 4.07,9.09 9.09,9.09 12.53,0 22.73,10.2 22.73,22.73 0,5.03 4.07,9.1 9.09,9.1 5.02,0 9.1,-4.07 9.1,-9.1 0,-22.56 -18.36,-40.92 -40.92,-40.92l0 0zm0 0z"/>
   <path class="fil0" d="M391.1 369.46c0,2.41 0.97,4.74 2.66,6.45 1.69,1.69 4.03,2.65 6.43,2.65 2.39,0 4.74,-0.96 6.43,-2.65 1.69,-1.71 2.67,-4.04 2.67,-6.45 0,-2.39 -0.98,-4.73 -2.67,-6.42 -1.69,-1.69 -4.04,-2.67 -6.43,-2.67 -2.4,0 -4.74,0.97 -6.43,2.67 -1.69,1.69 -2.66,4.03 -2.66,6.42zm0 0z"/>
  </g>
 </g>
</svg>
