<?xml version="1.0" encoding="UTF-8"?>
<!DOCTYPE svg PUBLIC "-//W3C//DTD SVG 1.1//EN" "http://www.w3.org/Graphics/SVG/1.1/DTD/svg11.dtd">
<!-- Creator: CorelDRAW 2018 (64 Bit Versão de avaliação) -->
<svg xmlns="http://www.w3.org/2000/svg" xml:space="preserve" width="6.7732mm" height="6.7732mm" version="1.1" style="shape-rendering:geometricPrecision; text-rendering:geometricPrecision; image-rendering:optimizeQuality; fill-rule:evenodd; clip-rule:evenodd"
viewBox="0 0 677.32 677.32"
 xmlns:xlink="http://www.w3.org/1999/xlink">
 <defs>
  <style type="text/css">
   <![CDATA[
    .fil0 {fill:#FEFEFE}
   ]]>
  </style>
 </defs>
 <g id="Camada_x0020_1">
  <metadata id="CorelCorpID_0Corel-Layer"/>
  <g id="_1645407279344">
   <path class="fil0" d="M667.27 0l-525.76 0c-5.55,0 -10.06,4.5 -10.06,10.06 0,5.55 4.51,10.06 10.06,10.06l515.7 0 0 64.74 -637.09 0 0 -64.74 81.15 0c5.56,0 10.06,-4.51 10.06,-10.06 0,-5.56 -4.5,-10.06 -10.06,-10.06l-91.2 0c-5.56,0 -10.07,4.5 -10.07,10.06l0 84.86c0,5.55 4.51,10.06 10.07,10.06l29.21 0 0 229.46c-20.54,15.16 -33.9,39.52 -33.9,66.95l0 76.45c0,27.43 13.36,51.79 33.9,66.94l0 122.48c0,5.55 4.5,10.06 10.06,10.06l578.65 0c5.55,0 10.06,-4.51 10.06,-10.06l0 -122.47c20.54,-15.16 33.9,-39.52 33.9,-66.95l0 -76.45c0,-27.43 -13.36,-51.8 -33.9,-66.95l0 -104.06c0,-5.55 -4.51,-10.06 -10.06,-10.06 -5.56,0 -10.06,4.51 -10.06,10.06l0 93.13c-9.07,-3.4 -18.89,-5.28 -29.14,-5.28 -45.85,0 -83.15,37.31 -83.15,83.16l0 76.45c0,42.44 31.97,77.54 73.1,82.52l0 96.84 -141.89 0 0 -223.09 21.08 0c5.55,0 10.06,-4.5 10.06,-10.06l0 -45.71c0,-5.55 -4.51,-10.06 -10.06,-10.06l-238.53 0c-5.56,0 -10.06,4.51 -10.06,10.06l0 45.71c0,5.56 4.5,10.06 10.06,10.06l21.08 0 0 149.02c0,5.55 4.51,10.06 10.06,10.06 5.56,0 10.06,-4.51 10.06,-10.06l0 -149.02 68.01 0 0 97.12 -15.09 0c-5.56,0 -10.06,4.51 -10.06,10.06 0,5.56 4.5,10.06 10.06,10.06l15.09 0 0 105.85 -68.01 0 0 -33.83c0,-5.56 -4.5,-10.06 -10.06,-10.06 -5.55,0 -10.06,4.5 -10.06,10.06l0 33.83 -141.88 0 0 -96.84c41.12,-4.98 73.09,-40.08 73.09,-82.52l0 -76.45c0,-45.85 -37.3,-83.16 -83.15,-83.16 -10.25,0 -20.07,1.88 -29.14,5.28l0 -218.53 558.53 0 0 85.16c0,5.56 4.5,10.06 10.06,10.06 5.55,0 10.06,-4.5 10.06,-10.06l0 -85.16 29.22 0c5.55,0 10.06,-4.51 10.06,-10.06l0 -84.86c0,-5.56 -4.51,-10.06 -10.06,-10.06zm-141.51 477.84l0 -76.45c0,-34.76 28.28,-63.04 63.03,-63.04 34.77,0 63.04,28.28 63.04,63.04l0 76.45c0,34.76 -28.27,63.04 -63.04,63.04 -34.75,0 -63.03,-28.28 -63.03,-63.04zm73.09 82.52c6.63,-0.8 13.03,-2.37 19.08,-4.64l0 101.48 -19.08 0 0 -96.84zm-348.31 -146.37l-21.08 0 0 -25.59 218.41 0 0 25.59 -197.33 0zm98.18 137.36l15.09 0c5.56,0 10.06,-4.5 10.06,-10.06 0,-5.55 -4.5,-10.06 -10.06,-10.06l-15.09 0 0 -97.12 68.01 0 0 223.09 -68.01 0 0 -105.85zm-289.32 105.85l0 -101.49c6.06,2.28 12.45,3.85 19.08,4.65l0 96.84 -19.08 0zm29.14 -318.85c34.76,0 63.03,28.28 63.03,63.04l0 76.45c0,34.76 -28.27,63.04 -63.03,63.04 -34.76,0 -63.04,-28.28 -63.04,-63.04l0 -76.45c0,-34.76 28.28,-63.04 63.04,-63.04zm0 0z"/>
   <path class="fil0" d="M105.83 140.28c-5.55,0 -10.06,4.51 -10.06,10.06l0 133.23c0,5.55 4.51,10.05 10.06,10.05l76.06 0c5.55,0 10.05,-4.5 10.05,-10.05l0 -133.23c0,-5.55 -4.5,-10.06 -10.05,-10.06l-76.06 0zm66 133.23l-55.94 0 0 -113.11 55.94 0 0 113.11zm0 0z"/>
   <path class="fil0" d="M235.7 140.28c-5.55,0 -10.06,4.51 -10.06,10.06l0 133.23c0,5.55 4.51,10.05 10.06,10.05l76.05 0c5.56,0 10.07,-4.5 10.07,-10.05l0 -133.23c0,-5.55 -4.51,-10.06 -10.07,-10.06l-76.05 0zm66 133.23l-55.94 0 0 -113.11 55.94 0 0 113.11zm0 0z"/>
   <path class="fil0" d="M365.57 140.28c-5.56,0 -10.06,4.51 -10.06,10.06l0 133.23c0,5.55 4.5,10.05 10.06,10.05l76.06 0c5.55,0 10.06,-4.5 10.06,-10.05l0 -133.23c0,-5.55 -4.51,-10.06 -10.06,-10.06l-76.06 0zm66 133.23l-55.94 0 0 -113.11 55.94 0 0 113.11zm0 0z"/>
   <path class="fil0" d="M495.44 140.28c-5.55,0 -10.06,4.51 -10.06,10.06l0 133.23c0,5.55 4.51,10.05 10.06,10.05l76.06 0c5.55,0 10.05,-4.5 10.05,-10.05l0 -133.23c0,-5.55 -4.5,-10.06 -10.05,-10.06l-76.06 0zm66 133.23l-55.94 0 0 -113.11 55.94 0 0 113.11zm0 0z"/>
  </g>
 </g>
</svg>
