<?xml version="1.0" encoding="UTF-8"?>
<!DOCTYPE svg PUBLIC "-//W3C//DTD SVG 1.1//EN" "http://www.w3.org/Graphics/SVG/1.1/DTD/svg11.dtd">
<!-- Creator: CorelDRAW 2018 (64 Bit Versão de avaliação) -->
<svg xmlns="http://www.w3.org/2000/svg" xml:space="preserve" width="3.2172mm" height="4.4026mm" version="1.1" style="shape-rendering:geometricPrecision; text-rendering:geometricPrecision; image-rendering:optimizeQuality; fill-rule:evenodd; clip-rule:evenodd"
viewBox="0 0 321.72 440.26"
 xmlns:xlink="http://www.w3.org/1999/xlink">
 <defs>
  <style type="text/css">
   <![CDATA[
    .fil0 {fill:#FEFEFE;fill-rule:nonzero}
   ]]>
  </style>
 </defs>
 <g id="Camada_x0020_1">
  <metadata id="CorelCorpID_0Corel-Layer"/>
  <g id="_1645299833760">
   <path class="fil0" d="M289.36 169.59l0 -40.27c0,-70.86 -57.64,-128.5 -128.5,-128.5 -70.86,0 -128.5,57.64 -128.5,128.5l0 40.27c-19.53,3.98 -34.27,21.29 -34.27,41.97l0 48.63c0,4.74 3.84,8.57 8.57,8.57 4.73,0 8.56,-3.83 8.56,-8.57l0 -48.63c0,-14.17 11.53,-25.7 25.7,-25.7l239.88 0c14.17,0 25.7,11.53 25.7,25.7l0 185.04c0,11.17 -7.17,20.7 -17.14,24.23l0 -51.64c0,-4.73 -3.83,-8.57 -8.56,-8.57 -4.74,0 -8.57,3.84 -8.57,8.57l0 53.12 -231.31 0c-14.17,0 -25.7,-11.53 -25.7,-25.71l0 -67.67c0,-4.73 -3.83,-8.57 -8.56,-8.57 -4.73,0 -8.57,3.84 -8.57,8.57l0 67.67c0,23.62 19.22,42.84 42.83,42.84l239.88 0c23.61,0 42.83,-19.22 42.83,-42.84l0 -185.04c0,-20.68 -14.74,-37.99 -34.27,-41.97zm-193.61 -0.86l0 -39.41c0,-35.9 29.21,-65.11 65.11,-65.11 35.9,0 65.11,29.21 65.11,65.11l0 39.41 -130.22 0zm147.35 0l0 -39.41c0,-45.35 -36.89,-82.24 -82.24,-82.24 -45.35,0 -82.24,36.89 -82.24,82.24l0 39.41 -29.13 0 0 -39.41c0,-61.41 49.96,-111.37 111.37,-111.37 61.41,0 111.37,49.96 111.37,111.37l0 39.41 -29.13 0zm0 0z"/>
   <path class="fil0" d="M6.66 302.79c2.25,0 4.46,-0.92 6.05,-2.51 1.6,-1.59 2.51,-3.8 2.51,-6.06 0,-2.25 -0.91,-4.46 -2.51,-6.05 -1.59,-1.6 -3.8,-2.52 -6.05,-2.52 -2.26,0 -4.47,0.92 -6.06,2.52 -1.59,1.59 -2.51,3.8 -2.51,6.05 0,2.26 0.92,4.47 2.51,6.06 1.59,1.59 3.8,2.51 6.06,2.51zm0 0z"/>
   <path class="fil0" d="M160.86 393.18c14.17,0 25.7,-11.53 25.7,-25.7l0 -45.49c12.87,-8.52 20.67,-22.85 20.67,-38.54 0,-25.51 -20.75,-46.26 -46.26,-46.26 -25.51,0 -46.26,20.75 -46.26,46.26 0,15.58 7.71,29.85 20.45,38.39l0 45.64c0,14.17 11.53,25.7 25.7,25.7zm-29.02 -109.73c0,-16.06 13.07,-29.13 29.13,-29.13 16.06,0 29.13,13.07 29.13,29.13 0,11.03 -6.13,20.98 -15.98,25.99 -2.88,1.46 -4.69,4.41 -4.69,7.64l0 50.4c0,4.72 -3.85,8.56 -8.57,8.56 -4.73,0 -8.57,-3.84 -8.57,-8.56l0 -50.52c0,-3.2 -1.79,-6.14 -4.64,-7.61 -9.75,-5.03 -15.81,-14.95 -15.81,-25.9zm0 0z"/>
   <path class="fil0" d="M280.8 342.63c2.26,0 4.46,-0.91 6.05,-2.51 1.6,-1.59 2.51,-3.79 2.51,-6.05 0,-2.27 -0.91,-4.47 -2.51,-6.06 -1.59,-1.59 -3.79,-2.51 -6.05,-2.51 -2.26,0 -4.47,0.92 -6.06,2.51 -1.59,1.59 -2.51,3.8 -2.51,6.06 0,2.25 0.92,4.46 2.51,6.05 1.59,1.6 3.8,2.51 6.06,2.51zm0 0z"/>
  </g>
 </g>
</svg>
