<?xml version="1.0" encoding="UTF-8"?>
<!DOCTYPE svg PUBLIC "-//W3C//DTD SVG 1.1//EN" "http://www.w3.org/Graphics/SVG/1.1/DTD/svg11.dtd">
<!-- Creator: CorelDRAW 2018 (64 Bit Versão de avaliação) -->
<svg xmlns="http://www.w3.org/2000/svg" xml:space="preserve" width="4.3178mm" height="6.0958mm" version="1.1" style="shape-rendering:geometricPrecision; text-rendering:geometricPrecision; image-rendering:optimizeQuality; fill-rule:evenodd; clip-rule:evenodd"
viewBox="0 0 431.78 609.58"
 xmlns:xlink="http://www.w3.org/1999/xlink">
 <defs>
  <style type="text/css">
   <![CDATA[
    .fil0 {fill:#724086}
    .fil1 {fill:#724086;fill-rule:nonzero}
   ]]>
  </style>
 </defs>
 <g id="Camada_x0020_1">
  <metadata id="CorelCorpID_0Corel-Layer"/>
  <g id="_1645407240368">
   <path class="fil0" d="M215.89 -0.3c-118.26,0 -214.13,95.87 -214.13,214.12 0,9.06 0.73,17.88 1.83,26.63 18.3,167.26 198.4,360.04 198.4,360.04 3.2,3.59 6.3,5.8 9.28,7.41l0.15 0.07 6 1.91 5.99 -1.91 0.16 -0.07c2.98,-1.61 6.07,-3.94 9.28,-7.41 0,0 177.5,-193.12 195.37,-360.42 1.07,-8.64 1.8,-17.38 1.8,-26.28 -0.04,-118.22 -95.87,-214.09 -214.13,-214.09zm0 351.86c-75.93,0 -137.74,-61.8 -137.74,-137.73 0,-75.94 61.81,-137.74 137.74,-137.74 75.93,0 137.7,61.8 137.7,137.74 0,75.93 -61.77,137.73 -137.7,137.73z"/>
   <polygon class="fil1" points="215.89,254.16 251.76,287.3 248.2,238.61 296.47,231.23 256.18,203.64 280.51,161.29 233.83,175.61 215.89,130.18 197.96,175.61 151.27,161.29 175.6,203.64 135.31,231.23 183.58,238.61 180.04,287.3 "/>
  </g>
 </g>
</svg>
