<?xml version="1.0" encoding="UTF-8"?>
<!DOCTYPE svg PUBLIC "-//W3C//DTD SVG 1.1//EN" "http://www.w3.org/Graphics/SVG/1.1/DTD/svg11.dtd">
<!-- Creator: CorelDRAW 2018 (64 Bit Versão de avaliação) -->
<svg xmlns="http://www.w3.org/2000/svg" xml:space="preserve" width="9.1438mm" height="8.4666mm" version="1.1" style="shape-rendering:geometricPrecision; text-rendering:geometricPrecision; image-rendering:optimizeQuality; fill-rule:evenodd; clip-rule:evenodd"
viewBox="0 0 914.38 846.66"
 xmlns:xlink="http://www.w3.org/1999/xlink">
 <defs>
  <style type="text/css">
   <![CDATA[
    .fil0 {fill:#848688}
   ]]>
  </style>
 </defs>
 <g id="Camada_x0020_1">
  <metadata id="CorelCorpID_0Corel-Layer"/>
  <g id="_1645399243136">
   <g>
    <path class="fil0" d="M377.15 342.81c-4.8,-3.75 -10.2,-6.71 -15.93,-8.76 -22.67,-8.1 -48.77,-0.61 -63.62,18.35 -3.75,4.79 -6.71,10.2 -8.76,15.93l-90.48 253.35 -90.48 -253.35c-7.69,-21.54 -28.24,-36.69 -51.14,-37.57 -7.21,-0.27 -14.44,0.87 -21.23,3.29 -21.55,7.7 -36.69,28.24 -37.57,51.15 -0.28,7.2 0.86,14.44 3.29,21.23l143.8 402.66c8.03,22.47 29.46,37.57 53.33,37.57 23.87,0 45.3,-15.1 53.32,-37.57l143.81 -402.66c8.09,-22.67 0.61,-48.77 -18.34,-63.62zm-7.05 54.54l-143.81 402.66c-4.2,11.78 -15.43,19.69 -27.93,19.69 -12.5,0 -23.72,-7.91 -27.93,-19.69l-143.81 -402.66c-5.44,-15.24 2.75,-32.48 17.96,-37.91 15.25,-5.44 32.47,2.75 37.9,17.96l103.18 288.9c1.9,5.31 7.07,8.95 12.7,8.95 5.63,0 10.8,-3.64 12.7,-8.95l103.18 -288.9c5.43,-15.21 22.66,-23.4 37.9,-17.96 15.18,5.53 23.43,22.6 17.96,37.91z"/>
   </g>
   <g>
    <path class="fil0" d="M529.12 472.76c7.44,0 13.48,-6.03 13.48,-13.48l0 -71.9c0,-31.22 -25.4,-56.63 -56.63,-56.63 -31.22,0 -56.62,25.4 -56.62,56.63l0 402.66c0,31.22 25.4,56.62 56.62,56.62 31.23,0 56.63,-25.4 56.63,-56.62l0 -284.02c0,-7.45 -6.04,-13.48 -13.48,-13.48 -7.45,0 -13.48,6.03 -13.48,13.48l0 284.02c0,16.35 -13.31,29.66 -29.66,29.66 -16.36,0 -29.66,-13.31 -29.66,-29.66l-0.01 -402.66c0,-16.36 13.31,-29.66 29.67,-29.66 16.35,0 29.66,13.3 29.66,29.66l0 71.9c-0.01,7.45 6.03,13.48 13.48,13.48z"/>
   </g>
   <g>
    <path class="fil0" d="M859.87 330.75l-230.09 0c-31.22,0 -56.62,25.4 -56.62,56.63l0 402.66c0,31.22 25.4,56.62 56.62,56.62 31.22,0 56.63,-25.4 56.63,-56.62l0 -115.95 173.46 0c31.23,0 56.63,-25.4 56.63,-56.62l0 -230.09c0,-31.23 -25.41,-56.63 -56.63,-56.63zm29.66 286.72c0,16.35 -13.3,29.66 -29.66,29.66l-186.95 0c-7.44,0 -13.48,6.03 -13.48,13.48l0 129.43c0,16.35 -13.3,29.66 -29.66,29.66 -16.35,0 -29.66,-13.31 -29.66,-29.66l0 -402.66c0,-16.36 13.31,-29.66 29.66,-29.66l230.09 0c16.36,0 29.66,13.3 29.66,29.66l0 230.09z"/>
   </g>
   <g>
    <path class="fil0" d="M816.73 417.04l-143.81 0c-7.44,0 -13.48,6.03 -13.48,13.48l0 143.8c0,7.45 6.04,13.49 13.48,13.49l143.81 0c7.45,0 13.48,-6.04 13.48,-13.48l0 -143.81c0,-7.45 -6.03,-13.48 -13.48,-13.48zm-13.48 143.8l-116.84 0 0 -116.84 116.84 0 0 116.84z"/>
   </g>
   <g>
    <path class="fil0" d="M672.92 57.52c-23.29,0 -42.24,18.95 -42.24,42.24 0,3.44 0.42,6.78 1.2,9.98l-83.1 31.16 -41.48 -62.22c12.5,-7.34 20.92,-20.92 20.92,-36.44 0,-23.3 -18.95,-42.24 -42.25,-42.24 -23.29,0 -42.24,18.94 -42.24,42.24 0,15.52 8.42,29.1 20.92,36.44l-41.48 62.22 -83.1 -31.16c0.78,-3.2 1.2,-6.54 1.2,-9.98 0,-23.29 -18.95,-42.24 -42.24,-42.24 -23.3,0 -42.25,18.95 -42.25,42.24 0,23.29 18.95,42.24 42.25,42.24 4.88,0 9.58,-0.84 13.95,-2.37l73.23 122.05 0 39.41c0,7.45 6.03,13.48 13.48,13.48l172.57 0c7.45,0 13.48,-6.03 13.48,-13.48l0 -39.41 73.23 -122.05c4.37,1.53 9.06,2.38 13.95,2.38 23.3,0 42.24,-18.95 42.24,-42.25 0.01,-23.29 -18.94,-42.24 -42.24,-42.24zm-373.89 57.52c-8.43,0 -15.28,-6.85 -15.28,-15.28 0,-8.42 6.85,-15.28 15.28,-15.28 8.42,0 15.27,6.86 15.27,15.28 0.01,8.43 -6.85,15.28 -15.27,15.28zm186.94 -88.08c8.43,0 15.28,6.85 15.28,15.28 0,8.42 -6.85,15.28 -15.28,15.28 -8.42,0 -15.27,-6.86 -15.27,-15.28 0,-8.43 6.85,-15.28 15.27,-15.28zm72.81 260.65l-145.61 0 0 -16.18 145.61 0 0 16.18zm5.85 -43.14l-157.31 0 -62.48 -104.14 78.88 29.58c5.87,2.2 12.47,0.07 15.95,-5.15l46.31 -69.46 46.3 69.46c3.44,5.15 10.16,7.32 15.95,5.15l78.88 -29.58 -62.48 104.14zm108.29 -129.43c-8.42,0 -15.28,-6.85 -15.28,-15.28 0,-8.42 6.86,-15.28 15.28,-15.28 8.43,0 15.28,6.86 15.28,15.28 0,8.43 -6.85,15.28 -15.28,15.28z"/>
   </g>
  </g>
 </g>
</svg>
